<?xml version="1.0" encoding="utf-8"?>
<!-- Generator: Adobe Illustrator 24.3.0, SVG Export Plug-In . SVG Version: 6.00 Build 0)  -->
<svg version="1.1" id="Capa_1" xmlns="http://www.w3.org/2000/svg" xmlns:xlink="http://www.w3.org/1999/xlink" x="0px" y="0px"
	 viewBox="0 0 614 729" style="enable-background:new 0 0 614 729;" xml:space="preserve">
<g>
	<g>
		<g>
			<g>
				<path d="M118.44,717.86h-15.98v-36.87c0-4.45-0.22-11.98-10.38-11.98c-7.07,0-12.56,4.79-12.56,14.04v34.81H63.53v-60.73h15.29
					v8.91h0.23c2.17-3.65,6.73-10.5,18.26-10.5c11.88,0,21.12,6.96,21.12,20.31V717.86z"/>
			</g>
			<g>
				<path d="M151.21,657.13h9.93v11.41h-9.93v32.99c0,3.53,0.11,4.91,6.62,4.91c1.02,0,2.16-0.11,3.3-0.23v12.09
					c-2.5,0.12-5.02,0.24-7.53,0.24h-2.06c-13.81,0-16.32-5.25-16.32-13.13v-36.87h-8.22v-11.41h8.22V640.7h15.98V657.13z"/>
			</g>
			<g>
				<path d="M221.76,700.06c-4.22,14.61-16.32,19.41-26.71,19.41c-17.12,0-30.24-8.22-30.24-33.22c0-7.3,2.51-30.7,29.09-30.7
					c12,0,28.54,5.7,28.54,33.44v2.85h-41.66c0.46,4.57,1.37,14.84,14.27,14.84c4.45,0,9.02-2.29,10.27-6.62H221.76z M206.01,681.44
					c-0.91-9.81-7.19-12.78-12.32-12.78c-7.53,0-11.54,4.79-12.44,12.78H206.01z"/>
			</g>
			<g>
				<path d="M232.97,657.13h15.3v10.51h0.23c3.31-6.17,6.97-12.1,16.67-12.1c1.02,0,2.04,0.11,3.07,0.22v16.21
					c-1.37-0.23-3.07-0.23-4.57-0.23c-12.44,0-14.72,7.77-14.72,14.5v31.62h-15.98V657.13z"/>
			</g>
		</g>
		<g>
			<g>
				<path d="M47.38,717.28H21.55V593.62h25.83V717.28z"/>
			</g>
		</g>
		<path d="M355.7,615.78v9.9h8.97c6.59,0,7.69,1.12,7.72,1.15c0.19,0.22,1.16,1.56,1.16,6.93v35.6l-50.22-53.58h-55.08v9.9h9.98
			c5.48,0,6.71,0.67,6.75,0.67c0.03,0.03,0.71,0.94,0.71,5.16v67.6c0,7.26-0.93,8.67-1.02,8.79c-0.05,0.04-1.25,1.06-7.87,1.06
			h-7.96v9.91h48.27v-9.91h-10.49c-6.48,0-7.72-0.94-7.74-0.94c-0.04-0.04-0.94-0.98-0.94-5.76v-64.22l76.85,82.14h11.01V631.5
			c0-3.59,0.79-4.56,1.05-4.77c0.05-0.04,1.28-1.05,7.93-1.05h7.36v-9.9H355.7z"/>
		<g>
			<g>
				<path d="M469.8,692.5H420.9c0.71,4.31,2.59,7.74,5.67,10.29c3.06,2.55,6.97,3.82,11.73,3.82c5.69,0,10.58-1.99,14.66-5.97
					l12.83,6.02c-3.2,4.53-7.02,7.88-11.49,10.06c-4.45,2.18-9.75,3.26-15.89,3.26c-9.52,0-17.26-3-23.25-9.01
					c-5.98-5.99-8.97-13.51-8.97-22.54c0-9.25,2.98-16.94,8.95-23.05c5.96-6.12,13.45-9.18,22.44-9.18c9.55,0,17.32,3.06,23.3,9.18
					c5.98,6.1,8.98,14.19,8.98,24.22L469.8,692.5z M454.58,680.52c-1.01-3.39-2.99-6.14-5.94-8.26c-2.96-2.11-6.4-3.18-10.31-3.18
					c-4.24,0-7.97,1.2-11.16,3.57c-2.01,1.48-3.88,4.1-5.59,7.86H454.58z"/>
			</g>
			<g>
				<path d="M499.77,657.69h9.93v11.42h-9.93v32.99c0,3.53,0.11,4.9,6.62,4.9c1.03,0,2.17-0.11,3.31-0.22v12.09
					c-2.51,0.12-5.02,0.23-7.53,0.23h-2.05c-13.81,0-16.32-5.25-16.32-13.13v-36.87h-8.22v-11.42h8.22v-16.43h15.98V657.69z"/>
			</g>
			<g>
				<path d="M564.91,657.77h15.22v60.66h-15.22v-6.41c-2.97,2.82-5.95,4.86-8.94,6.11c-2.99,1.24-6.23,1.86-9.71,1.86
					c-7.83,0-14.61-3.04-20.32-9.12c-5.71-6.08-8.58-13.63-8.58-22.67c0-9.36,2.76-17.03,8.29-23.02
					c5.53-5.99,12.25-8.98,20.16-8.98c3.64,0,7.05,0.7,10.25,2.07c3.18,1.38,6.14,3.44,8.85,6.19V657.77z M548.91,670.26
					c-4.71,0-8.61,1.67-11.73,4.99c-3.11,3.33-4.67,7.59-4.67,12.8c0,5.24,1.58,9.55,4.75,12.93c3.18,3.39,7.06,5.08,11.7,5.08
					c4.78,0,8.75-1.66,11.89-4.99c3.14-3.33,4.72-7.69,4.72-13.08c0-5.28-1.58-9.55-4.72-12.82
					C557.71,671.89,553.72,670.26,548.91,670.26z"/>
			</g>
		</g>
	</g>
	<g>
		<path d="M68.29,117.6c-0.01-0.7-0.03-1.19-0.03-1.21C68.21,116.56,68.25,117.07,68.29,117.6z"/>
		<g>
			<path d="M349.42,490.28c0,0,0.37-6.19-15.66-19.67c-16.02-13.47-26.21-19.66-26.94-26.94c-0.73-7.28,2.91-9.83,6.19-12.38
				c3.28-2.55,6.19-10.2,2.91-14.93s-15.77-5.1-18.44-12.38s-1.02-18.93,3.79-21.48c4.82-2.55,8.1-9.1,5.18-10.92
				c-2.91-1.82-13.41,0-13.41,0s-8.43-2.18-13.53-10.93c-4.44-7.61-9.1-12.03-9.1-3.1c0,8.93,6.19,23.13,7.64,23.13
				c1.46,0,1.46,12.02,1.46,19.3c0,7.28-2.18,11.28-6.19,11.65c-4,0.37-12.02,14.2-5.83,19.66c6.19,5.46,13.47,5.82,13.47,5.82
				l-3.64,39.69c0,0,3.64,9.11,10.56,11.29c6.92,2.18,20.76,5.09,22.21-2.19c1.46-7.28,3.28-12.74,3.28-12.74s4.36,1.09,7.64,3.64
				C324.3,479.35,338.13,492.83,349.42,490.28z"/>
			<path d="M434.2,400.7c0,0,10.99-4.73,17.18-4.73s10.55-3.28,5.82-5.1c-4.73-1.82-8.98-1.82-10.5-6.55
				c-1.52-4.73-1.88-15.66-1.88-15.66s-5.1-0.36-5.83,6.56c-0.73,6.91-2.67,12.01-4.79,15.66
				C432.08,394.51,426.9,403.41,434.2,400.7z"/>
			<path d="M426.28,319.97c0,0,10.25-6.75,14.84-14.84c4.59-8.1,8.64-7.02,5.13-9.71c-3.51-2.7-13.22-1.89-13.76-4.59
				c-0.54-2.7-2.43-5.67-7.83-5.4c-5.4,0.27-9.71,1.35-12.68,3.24c-2.97,1.89-18.89,0.27-18.89,0.27s-5.94-0.81-3.51,2.43
				c2.43,3.24,17,21.05,19.7,23.21C411.98,316.73,417.65,321.05,426.28,319.97z"/>
			<path d="M345.33,294.6c0,0-3.51-31.57-2.16-43.45c1.35-11.87,1.89-22.94,4.05-24.29c2.16-1.35,5.13-2.7,7.83-9.71
				c2.7-7.02,5.67-8.36,8.1-9.44c2.43-1.08,17.54-8.1,17.54-8.1s4.05-0.81,3.78-2.7c-0.27-1.89-1.08-2.16-7.83,0
				c-6.75,2.16-22.67,2.43-30.76,2.43s-19.97,0.27-12.41,4.32c7.56,4.05,9.98,8.37,9.98,8.37s-1.62,7.56-7.29,12.68
				c-5.67,5.13-4.86,12.68-2.7,21.86c2.16,9.17-0.81,19.97,0.54,26.98c1.35,7.02,3.24,30.49,2.16,33.46
				c-1.08,2.97-11.06,12.14-12.14-10.52c-1.08-22.67-5.94-46.68-14.03-56.94c-8.1-10.25-44.79-21.05-48.03,10.52
				c-3.24,31.57-1.08,28.87,1.89,40.48c2.97,11.6,7.83,24.02,7.02,27.25c-0.81,3.24,8.36,0.27,6.48-8.1
				c-1.89-8.37-8.91-43.72-4.05-54.78c4.86-11.06,18.08-18.08,26.72-5.4c8.64,12.68,16.73,56.4,16.19,64.49s21.86,10.25,26.17,1.35
				C346.68,306.48,346.11,302.38,345.33,294.6z"/>
			<path d="M184.08,152.41c-10.75,0-15.6,1.52-16.66,4.39c-1.06,2.88-3.94,13.48-6.82,23.62c-2.88,10.14,0.91,13.02,3.63,13.02
				c2.72,0,5-14.69,8.64-22.64c3.63-7.95,5.45-7.8,7.42-7.65c1.97,0.15,2.58,1.21,5.3,6.66c0.1,0.21,0.19,0.4,0.28,0.61
				c-0.21,3.08-0.54,7.77-0.74,8.47c-0.22,0.77,2.65,2.13,4.37,0.3c0.21,0.22,0.41,0.27,0.63,0c0.08-0.11,0.19-0.29,0.3-0.52
				c1.39-2.77,4.92-13.74,5.75-19.31C197.1,153.33,194.84,152.41,184.08,152.41z"/>
			<path d="M293.04,97.88c-8.75-6.48-14.45-9.53-42.16-8.81s-53.61,20.51-53.61,20.51c-8.26,5.47-11.51,10.97-6.48,14.21
				c5.04,3.24,34,2.34,46.95,2.52c12.95,0.18,45.33-0.9,52.53-6.42C297.48,114.38,301.8,104.36,293.04,97.88z M282.37,107.65
				c-3.96,11.2-25.18,7.87-36.7,8.38c-11.51,0.51-26.09-1.05-26.09-1.05c-1.94-0.15-5.84-0.65-5.22-3.25
				c0.94-3.99,6.36-5.74,9.57-6.73c9.02-2.79,18.06-5.48,27.05-8.37C263.3,92.66,286.33,96.45,282.37,107.65z"/>
			<path d="M369.08,114.61c-5.4-6.21-19.97-16.46-19.97-16.46s-10.79-3.87-14.3-1.53c-3.51,2.34-4.59,11.68-4.05,14.7
				c0.54,3.02,2.97,9.8,11.33,8.57c0,0,11.06,0.96,17,0C365.03,118.93,374.47,120.82,369.08,114.61z M348.57,112.57
				c-1.89-0.42-10.25,0-10.25,0c-2.98,0.12,1.08-3.9,1.35-7.06c0.27-3.16,4.59-2.77,8.91,2.13
				C352.89,112.56,350.46,112.99,348.57,112.57z"/>
		</g>
		<path d="M564.45,281.02c6.48,8.64,16.55,0,16.55,0V150.82c0-16.11-11.73-29.17-26.21-29.17h-29.12c2.19-4.16,4.81-8.01,2.35-10.33
			c-1.57-1.48-4.53-3.22-7.64-5.23c-0.95-1.29-2.04-2.48-3.47-3.47c-1.99-1.4-4.36-3.52-6.25-5.75l-0.95-1.66
			c-1.71-6.12,5.63-5.92,5.63-11.84c0-3.97-8.98-6.09-15.35-7.1c-4.49-3.5-10.1-5.44-15.72-4.99l-7.09,0.56
			c-11.11,0.91-40.65,3.33-45.2,1.81c-5.94-1.99-21.71-7.24-29.67,8.23c-4.43,8.61-7.44,8.49-10.58,8.46
			c-2.19-0.16-16.48-3.89-29.03-7.4c-1.16-0.32-2.39-0.15-3.42,0.48c-2.76,1.69-7.86,3.52-9.84,2.44c-0.94-0.51-1.52-2.33-1.58-4.97
			c-0.35-16.46,5.06-24.6,6.97-25.55c0.99-0.49,2.58-1.26,4.49-2.16c11.35-5.41,17.09-8.31,18.94-10.16
			c0.08-0.08,0.11-0.19,0.19-0.27c2.8,0.09,6.08,0.12,6.83-0.18c1.35-0.54-2.31-6.57-4.66-10.17c0,0,0,0,0-0.01
			c-0.26-2.34-1.11-5.75-3.16-8.24c-0.44-1.58-0.86-3.09-1.35-4.25c-1.35-3.24-8.58-7.09-11.31-1.39c-0.02,0.05-0.04,0.07-0.06,0.11
			c-0.71,0.06-1.29,0.03-2.11,0.16c-1.13,0.19-2.22,0.13-3.24-0.05c-0.92-1.91-2.45-4.92-3.52-6.15c-1.62-1.87-5.24-4.78-6.94,0.05
			c-4.29-0.5-9.21,2.7-15.17,9.79c-7.95,9.47-16.64,26.6-17.88,35.26c-0.3,2.1-0.65,3.74-0.99,4.98
			c-7.8-3.31-24.37-10.33-28.84-12.01c-7.4-2.78-50.36-1.87-78.89,5.62c-27.68,7.27-68.29,3.66-72.72,0.9
			c-1.23-1.34-3.76-2.24-5.43-1.55c-1.68,0.7-2.77,2.45-2.69,4.26c0.19,4.4,16.01,26.18,29.9,30.59c6.82,2.16,7.45,3.9,7.46,3.92
			c0.24,0.74-1.89,3.64-2.8,4.88c-3.99,5.43-11.23,15.93-11.23,15.93c-0.45,0.66-0.7,1.43-0.75,2.23c-0.91,0.2-2.88,0.4-6.64-0.09
			l-5.36-0.69c-12.72-1.61-37.66-4.79-48.76-8.59c-0.21-0.11-9.98-5.09-12.65-7.76c-2.51-2.51-11.92,0.56-11.91,6.47
			c-1.11,1.46-3.38,8.59-5.23,14.86H47.76c-14.48,0-26.21,13.06-26.21,29.17v396.79c0,14.62,9.7,26.62,22.32,28.73
			c-1.07-10.45,1.19-23.67,13.63-36.62c26.62-27.71,29.86-25.55,77.71-50.01c47.86-24.46,76.99-46.05,90.67-77.35
			s14.03-34.9,17.99-35.62s7.2-5.4,3.96-6.84c-3.24-1.44-15.84-1.8-16.55-6.3c-0.72-4.5,0.36-27.88,5.76-37.96
			s7.91-16.19,7.91-16.19l1.44-14.75l-21.95,7.19c0,0,0.72,8.99-3.6,10.79c-4.32,1.8-9.72-1.8-16.55,4.68s-21.95,17.29-21.95,31.85
			c0,14.56,6.47,44.79,7.91,50.54c1.44,5.76,4.32,13.67-7.56,17.99c-11.87,4.32-14.39,6.48-14.39,6.48l-4.32-58.29l-12.95-2.34
			c0,0,6.12-37.24,25.91-54.87c19.79-17.63,20.51-19.43,20.51-19.43l1.8-11.15l9.35-0.36l5.04,3.95c0,0,10.8-5.4,16.91-8.64
			c6.11-3.24,14.03,0.36,16.19-7.19c2.16-7.56-1.08-46.77-3.6-52.17c-2.52-5.4-0.71-18.35,0-23.75c0.72-5.4-4.68-22.31-12.24-24.83
			c-7.56-2.52-18.35,2.88-18.71,12.95c-0.36,10.08,5.04,20.15,3.24,31.3c-1.8,11.16-7.2,37.06-7.2,37.06s-11.15-15.83-12.59-20.15
			s-9,11.87-11.16,18.35c-2.16,6.48-16.54,32.74-24.46,34.18c-7.92,1.44-9.36-6.84-11.16-10.44c-1.8-3.6-9.35,0.72-15.47,3.24
			c-6.12,2.52-16.55,7.91-16.55,7.91s6.11-36.7,14.39-56.13s9.35-25.18,8.99-26.26c-0.36-1.08-17.27,7.2-23.38,13.67
			c-6.12,6.48-23.38,11.16-32.38,12.95c-9,1.8-20.87-7.2-21.23-9c-0.36-1.8,17.27-15.11,23.75-17.99
			c6.48-2.88,38.14-25.18,43.18-33.82c5.04-8.64-23.38-12.96-27.34-13.32c-3.96-0.36-25.91,1.8-28.79-0.72
			c-2.88-2.52-4.68-6.48-5.04-10.44c-0.24-2.59-0.48-11.2-0.62-16.89h-1.32c1.2-4.05,2.71-8.33,4.35-10.67
			c1.06-1.51,6.59,1.89,9.22,3.31c8.9,4.77,33.14,8.15,55.17,10.94l5.32,0.68c7.75,1.02,12.51,0.03,15.01-3.11
			c1-1.27,1.42-2.66,1.49-3.95c2.03-2.93,7.11-10.24,10.21-14.46c0.24-0.33,0.49-0.7,0.73-1.05l0.01,0.03c0,0,9.17-6.58,10.79-11.17
			c1.62-4.59-3.74-7.31-12.14-8.64c-1.94-0.31-3.52-0.23-4.84,0.03c-1.13-0.46-2.23-0.93-3.57-1.36
			c-6.27-1.99-13.16-8.96-17.97-14.93c17.64,2.84,48.65,2.53,68.49-2.69c29.16-7.65,69.26-7.45,73.66-5.89
			c5.6,2.1,32.29,13.49,32.56,13.6c1.86,0.78,4.03,0.19,5.21-1.46c0.57-0.79,2.5-4,3.64-11.98c0.91-6.35,8.59-22.19,15.94-30.93
			c3.51-4.18,5.77-5.78,6.9-6.4c2.99,3.51,9.76,6.85,16.76,5.72c3.74-0.63,4.07-0.31,5.96,1.41l0.88,0.78
			c1.05,1.16,1.69,6.25,1.34,7.35c-1.67,1.42-12.15,6.4-16.62,8.53c-1.97,0.93-3.62,1.72-4.64,2.23
			c-5.93,2.97-12.14,14.7-11.74,33.46c0.16,7.56,3.39,10.89,6.07,12.36c5.79,3.15,13.36,0.05,16.78-1.71
			c10.44,2.9,26.54,7.24,30.17,7.25c5.52,0.06,11.67-1.36,17.74-13.15c3.81-7.4,10.2-7.02,19.26-4c5.22,1.74,21.78,0.8,48.64-1.39
			l7-0.56c4.85-0.35,9.1,2.08,11.41,4.47c1.24,1.29,1.91,2.66,2.14,3.83c-0.43,0.87-0.87,1.74-1.17,2.95
			c-1.62,6.48-2.06,9.34,5.67,13.46c2.31,1.23,4.71,2.42,6.97,3.51c0.98,0.79,1.78,1.39,2.08,1.59c2.89,2.02,3.37,6.09,1.71,11.95
			h-36.56c-6.69-4.91-13.49-9.79-17.91-12.64c-0.92-0.59-1.79-1-2.69-1.49l0.14-0.03c0,0-6.09-6.91-11.49-8.26
			c-5.4-1.35-11.87-5.13-12.95,0c-1.08,5.13-2.43,11.6-2.43,11.6l0.7,1.74c-0.65,1.08-1.49,1.64-2.75,1.82
			c-0.67,0.11-1.44,0.04-2.23-0.08c-0.33-0.28-7.35-6.22-8.41-8.07c-1.08-1.89-12.68,0.02-18.62,4.06
			c-5.94,4.04-8.35,5.12-6.87,7.28c0.7,1.03,1.24,2.54,1.57,4.07l-0.36,6.81c-0.36,6.48-2.52,8.28,0,14.39
			c2.52,6.12,5.76,11.87,5.76,11.87s7.92,4.68,11.51,6.83c3.6,2.16,9.71,0,11.51,0s14.75,0,16.91,11.51
			c2.16,11.51-11.51,13.31-15.11,10.07c-3.6-3.24-6.11,0-6.11,0s-4.68,4.32-8.28,6.12s-1.8,3.95,0,5.4s5.4,3.24,8.64,7.91
			c3.24,4.68,5.4,10.25,5.4,10.25c9.17,2.7,28.06,35.62,37.24,50.19c9.17,14.57,41.56,96.61,42.64,111.18
			c1.08,14.57-26.45,12.95-26.45,12.95s-9.18-0.72-8.82,10.79c0.36,11.51,3.96,19.79,3.96,19.79s-1.8,6.12-7.2,7.92
			c-5.4,1.8-18.7,6.11-22.3,6.11s-9.36,7.56-5.76,8.64s9.35,1.08,15.11,5.4c5.76,4.32,10.44,16.56,3.96,18.35
			c-6.48,1.8-17.63,8.99-17.63,15.83c0,6.84-2.88,23.75-12.59,27.71c-9.71,3.96-16.19,1.8-18.35,5.4c-2.16,3.6,3.6,7.2,9.71,7.2
			c6.12,0,14.39-3.24,22.67-7.2c8.28-3.96,53.25,5.04,73.4,25.91c20.15,20.87,29.86,37.78,29.86,37.78h12.29
			c14.48,0,26.21-13.06,26.21-29.16v-211.9l-5.04,0.56c-5.04,0.56-12.95-4.16-17.27-1.28c-4.32,2.88-5.46,0-5.46,0
			s4.02-19.43,4.02-30.63c0-11.2-1.44-13.98-3.6-23.34C551.49,271.66,557.97,272.39,564.45,281.02z M415.49,127.22
			c-9.98,0.46-9.71-2.62-11.08-6.42c-1.37-3.8-0.29-3.13,3.98-4.43c4.26-1.3,4.54,1.45,6.03,3.52
			C415.9,121.97,415.49,127.22,415.49,127.22z M429.79,127.22c-7.83-6.02,7.02-5.32,7.02-5.32s7.56-3.24,10.93-8.9
			c3.37-5.66,8.83,4.62,12.24,6.96c3.4,2.34,5.71,8.51,5.71,8.51L429.79,127.22z"/>
	</g>
</g>
</svg>
