<?xml version="1.0" encoding="utf-8"?>
<!-- Generator: Adobe Illustrator 24.3.0, SVG Export Plug-In . SVG Version: 6.00 Build 0)  -->
<svg version="1.1" id="Capa_1" xmlns="http://www.w3.org/2000/svg" xmlns:xlink="http://www.w3.org/1999/xlink" x="0px" y="0px"
	 viewBox="0 0 1920 140" style="enable-background:new 0 0 1920 140;" xml:space="preserve">
<style type="text/css">
	.st0{fill:none;stroke:#1C3E8C;stroke-width:5;stroke-miterlimit:10;}
	.st1{fill:none;}
	.st2{fill:#1C3E8C;}
</style>
<g>
	<text transform="matrix(1 0 0 1 532.0728 1208.7588)" style="font-family:'AlbanyStd-Bold'; font-size:107.7807px;">CATEG</text>
</g>
<g>
	<text transform="matrix(1 0 0 1 1017.9443 1208.7588)" style="font-family:'AlbanyStd-Bold'; font-size:107.7807px;">RIAS</text>
</g>
<path class="st0" d="M-3,1101.65h895.5c18,0.85,22,10.85,23,20.85c0.9,9.01,4,53,4,53s4,25,27,32s45-9,48-32s9-64,9-64
	s2.41-9.6,14.21-9.8c11.79-0.2,903.79,0,903.79,0"/>
<g>
	<g>
		<path d="M957.02,1133.07c-20.98,0-37.98,17.01-37.98,37.98s17.01,37.98,37.98,37.98c20.98,0,37.98-17.01,37.98-37.98
			S977.99,1133.07,957.02,1133.07z M957.02,1192.76c-11.97,0-21.7-9.74-21.7-21.7s9.74-21.7,21.7-21.7c11.97,0,21.7,9.74,21.7,21.7
			S968.99,1192.76,957.02,1192.76z"/>
	</g>
	<circle class="st1" cx="957.02" cy="1171.06" r="12.21"/>
	<circle class="st1" cx="957.02" cy="1171.06" r="12.21"/>
	<circle class="st1" cx="957.02" cy="1171.06" r="12.21"/>
	<circle cx="957.02" cy="1171.06" r="12.21"/>
</g>
<g>
	<circle class="st1" cx="899.55" cy="1115.87" r="4.49"/>
	<circle class="st1" cx="899.55" cy="1115.87" r="4.49"/>
	<circle class="st1" cx="899.55" cy="1115.87" r="4.49"/>
	<g>
		<path d="M899.55,1101.89c-7.72,0-13.98,6.26-13.98,13.98c0,7.72,6.26,13.98,13.98,13.98c7.72,0,13.98-6.26,13.98-13.98
			C913.54,1108.15,907.28,1101.89,899.55,1101.89z M899.55,1123.86c-4.41,0-7.99-3.58-7.99-7.99c0-4.41,3.58-7.99,7.99-7.99
			c4.41,0,7.99,3.58,7.99,7.99C907.54,1120.28,903.96,1123.86,899.55,1123.86z"/>
	</g>
	<circle cx="899.55" cy="1115.87" r="4.49"/>
</g>
<g>
	<circle class="st1" cx="1016.55" cy="1115.87" r="4.49"/>
	<circle class="st1" cx="1016.55" cy="1115.87" r="4.49"/>
	<circle class="st1" cx="1016.55" cy="1115.87" r="4.49"/>
	<g>
		<path d="M1016.55,1101.89c-7.72,0-13.98,6.26-13.98,13.98c0,7.72,6.26,13.98,13.98,13.98c7.72,0,13.98-6.26,13.98-13.98
			C1030.54,1108.15,1024.28,1101.89,1016.55,1101.89z M1016.55,1123.86c-4.41,0-7.99-3.58-7.99-7.99c0-4.41,3.58-7.99,7.99-7.99
			c4.41,0,7.99,3.58,7.99,7.99C1024.54,1120.28,1020.96,1123.86,1016.55,1123.86z"/>
	</g>
	<circle cx="1016.55" cy="1115.87" r="4.49"/>
</g>
<g>
	<g>
		<path d="M611.43,115c-9.05,5.93-19.19,8.52-30.61,8.52c-24.25,0-38.8-15.95-38.8-38.16c0-22.53,15.09-38.8,38.8-38.8
			c10.35,0,21.13,3.23,29.53,8.08l-4.42,11.96c-6.79-4.31-16.28-7.65-25.12-7.65c-14.66,0-23.17,12.18-23.17,26.41
			c0,14.87,10.99,25.76,23.17,25.76c9.16,0,19.19-3.34,26.3-7.98L611.43,115z"/>
	</g>
	<g>
		<path d="M692.16,122.22h-15.74l-8.08-20.37h-29.32l-8.08,20.37H615.2l32.01-74.27h12.93L692.16,122.22z M663.49,89.78l-9.81-24.68
			l-9.92,24.68H663.49z"/>
	</g>
	<g>
		<path d="M748.21,60.46h-23.17v61.76h-15.09V60.46h-22.96v-12.5h61.22V60.46z"/>
	</g>
	<g>
		<path d="M816.43,122.22h-58.42V47.96h57.77V61H773.1v16.81h37.08v12.5H773.1v18.86h43.33V122.22z"/>
	</g>
	<g>
		<path d="M898.77,116.4c-11.43,5.07-21.13,7.11-32.55,7.11c-24.25,0-38.8-15.95-38.8-38.16c0-22.53,15.09-38.8,39.34-38.8
			c10.46,0,20.91,2.91,31.04,8.3l-4.42,11.96c-8.19-4.42-17.57-7.87-26.62-7.87c-15.09,0-23.71,12.18-23.71,26.41
			c0,14.87,10.99,25.76,23.17,25.76c7.11,0,13.04-1.51,17.46-3.34V94.52h-16.06v-12.5h31.15V116.4z"/>
	</g>
</g>
<g>
	<g>
		<path d="M1096.34,122.22h-17.46l-22.42-27.05h-15.09v27.05h-15.09V47.96h32.77c17.14,0,27.92,8.19,27.92,23.39
			c0,13.69-8.95,19.83-15.31,21.34L1096.34,122.22z M1058.5,82.66c8.95,0,13.37-4.1,13.37-11.21c0-6.9-4.96-10.99-14.12-10.99
			h-16.38v22.2H1058.5z"/>
	</g>
	<g>
		<path d="M1119.18,122.22h-15.09V47.96h15.09V122.22z"/>
	</g>
	<g>
		<path d="M1204.01,122.22h-15.74l-8.08-20.37h-29.32l-8.08,20.37h-15.74l32.01-74.27H1172L1204.01,122.22z M1175.34,89.78
			l-9.81-24.68l-9.92,24.68H1175.34z"/>
	</g>
	<g>
		<path d="M1265.55,66.06c-7.11-4.31-16.6-7.11-24.79-7.11c-9.81,0-15.63,3.56-15.63,8.41c0,12.72,47.64,2.91,47.64,32.23
			c0,15.52-15.52,23.93-32.34,23.93c-13.04,0-23.39-3.02-32.88-7.87l4.42-11.96c9.16,4.31,17.68,7.44,28.03,7.44
			c9.81,0,17.14-3.77,17.14-10.56c0-14.88-47.64-3.23-47.64-32.88c0-12.4,11.75-21.13,31.26-21.13c9.49,0,19.51,2.16,29.32,7.44
			L1265.55,66.06z"/>
	</g>
</g>
<g>
	<path class="st2" d="M958.42,125.13c-3.9,0-7.84-0.59-11.75-1.78c-24.22-7.37-28.57-32.91-28.74-34l-0.02-0.22
		c-0.03-0.44-3.11-44.06-3.99-52.93c-0.87-8.75-4-17.8-20.58-18.6H-2.11v-5h895.56l0.06,0c20.77,0.98,24.42,13.66,25.37,23.1
		c0.88,8.79,3.78,49.83,4,52.95c0.3,1.61,4.73,23.67,25.24,29.91c9.87,3.01,20.01,1.63,28.54-3.87
		c8.92-5.75,14.85-15.25,16.25-26.06c2.97-22.76,8.95-63.63,9.01-64.04l0.05-0.25c1-3.96,5.74-11.51,16.59-11.69
		c11.68-0.2,894.92,0,903.84,0v5c-5.94,0-398.95-0.09-664.73-0.09c-133.68,0-235.13,0.02-239.02,0.09
		c-9.15,0.15-11.51,6.87-11.8,7.82c-0.42,2.84-6.1,41.81-8.97,63.8c-1.6,12.27-8.34,23.06-18.5,29.61
		C972.97,123.03,965.78,125.13,958.42,125.13z"/>
</g>
<g>
	<g>
		<path d="M957.91,46.53c-20.98,0-37.98,17.01-37.98,37.98c0,20.98,17.01,37.98,37.98,37.98c20.98,0,37.98-17.01,37.98-37.98
			C995.89,63.54,978.89,46.53,957.91,46.53z M957.91,106.22c-11.97,0-21.7-9.74-21.7-21.7c0-11.97,9.74-21.7,21.7-21.7
			c11.97,0,21.7,9.74,21.7,21.7C979.61,96.48,969.88,106.22,957.91,106.22z"/>
	</g>
	<g>
		<circle class="st1" cx="957.91" cy="84.52" r="12.21"/>
	</g>
	<g>
		<circle class="st1" cx="957.91" cy="84.52" r="12.21"/>
	</g>
	<g>
		<circle class="st1" cx="957.91" cy="84.52" r="12.21"/>
	</g>
	<g>
		<circle cx="957.91" cy="84.52" r="12.21"/>
	</g>
</g>
<g>
	<g>
		<circle class="st1" cx="900.45" cy="29.34" r="4.49"/>
	</g>
	<g>
		<circle class="st1" cx="900.45" cy="29.34" r="4.49"/>
	</g>
	<g>
		<circle class="st1" cx="900.45" cy="29.34" r="4.49"/>
	</g>
	<g>
		<path d="M900.45,15.35c-7.72,0-13.98,6.26-13.98,13.98c0,7.72,6.26,13.98,13.98,13.98c7.72,0,13.98-6.26,13.98-13.98
			C914.43,21.61,908.17,15.35,900.45,15.35z M900.45,37.33c-4.41,0-7.99-3.58-7.99-7.99c0-4.41,3.58-7.99,7.99-7.99
			c4.41,0,7.99,3.58,7.99,7.99C908.44,33.74,904.85,37.33,900.45,37.33z"/>
	</g>
	<g>
		<circle cx="900.45" cy="29.34" r="4.49"/>
	</g>
</g>
<g>
	<g>
		<circle class="st1" cx="1017.45" cy="29.34" r="4.49"/>
	</g>
	<g>
		<circle class="st1" cx="1017.45" cy="29.34" r="4.49"/>
	</g>
	<g>
		<circle class="st1" cx="1017.45" cy="29.34" r="4.49"/>
	</g>
	<g>
		<path d="M1017.45,15.35c-7.72,0-13.98,6.26-13.98,13.98c0,7.72,6.26,13.98,13.98,13.98c7.72,0,13.98-6.26,13.98-13.98
			C1031.43,21.61,1025.17,15.35,1017.45,15.35z M1017.45,37.33c-4.41,0-7.99-3.58-7.99-7.99c0-4.41,3.58-7.99,7.99-7.99
			c4.41,0,7.99,3.58,7.99,7.99C1025.44,33.74,1021.85,37.33,1017.45,37.33z"/>
	</g>
	<g>
		<circle cx="1017.45" cy="29.34" r="4.49"/>
	</g>
</g>
</svg>
