<?xml version="1.0" encoding="UTF-8" standalone="no"?>
<!-- Created with Inkscape (http://www.inkscape.org/) -->

<svg
   width="1125"
   height="2436"
   viewBox="0 0 1125 2436"
   version="1.1"
   id="svg5"
   inkscape:version="1.2.2 (b0a8486, 2022-12-01)"
   sodipodi:docname="dibujo.svg"
   inkscape:export-filename="dibujo.jpg"
   inkscape:export-xdpi="96"
   inkscape:export-ydpi="96"
   xmlns:inkscape="http://www.inkscape.org/namespaces/inkscape"
   xmlns:sodipodi="http://sodipodi.sourceforge.net/DTD/sodipodi-0.dtd"
   xmlns="http://www.w3.org/2000/svg"
   xmlns:svg="http://www.w3.org/2000/svg">
  <sodipodi:namedview
     id="namedview7"
     pagecolor="#ffffff"
     bordercolor="#cccccc"
     borderopacity="1"
     inkscape:showpageshadow="0"
     inkscape:pageopacity="1"
     inkscape:pagecheckerboard="0"
     inkscape:deskcolor="#d1d1d1"
     inkscape:document-units="px"
     showgrid="false"
     inkscape:zoom="0.23973727"
     inkscape:cx="364.98288"
     inkscape:cy="1218"
     inkscape:window-width="1418"
     inkscape:window-height="804"
     inkscape:window-x="0"
     inkscape:window-y="25"
     inkscape:window-maximized="0"
     inkscape:current-layer="layer1" />
  <defs
     id="defs2" />
  <g
     inkscape:label="Capa 1"
     inkscape:groupmode="layer"
     id="layer1">
    <rect
       style="fill:#000000;stroke-width:9.20572;stroke-linecap:round"
       id="rect1069"
       width="831.04565"
       height="677.61176"
       x="362.16656"
       y="190.50996"
       ry="104.12173"
       transform="matrix(1,0,-0.30014814,0.9538926,0,0)" />
    <rect
       style="fill:#000000;stroke-width:9.20572;stroke-linecap:round"
       id="rect1069-9"
       width="831.04565"
       height="677.61176"
       x="279.91486"
       y="323.2117"
       ry="104.12173"
       transform="matrix(1,0,-0.30014814,0.9538926,0,0)" />
    <path
       style="fill:#000000;stroke-width:10.56;stroke-linecap:round"
       d="M 355.60301,183.53425 206.0191,329.5274 461.38456,321.18494 Z"
       id="path1202" />
    <path
       style="fill:#000000;stroke-width:10.56;stroke-linecap:round"
       d="m 768.23602,759.00732 -12.95057,197.617 194.51856,-185.819 z"
       id="path1202-8" />
    <path
       id="rect1330-3"
       style="fill:#4c4c4c;stroke:#3f3f3f;stroke-width:11.6356;stroke-linecap:round;stroke-opacity:1;fill-opacity:1"
       d="m 230.79511,836.50678 a 175.23313,249.00016 36.020504 0 0 16.91803,-1.38472 L 378.49963,385.43963 a 175.23313,249.00016 36.020504 0 0 -16.11186,-1.38717 175.23313,249.00016 36.020504 0 0 -258.66982,226.22716 175.23313,249.00016 36.020504 0 0 127.07716,226.22716 z" />
    <path
       id="rect1330-3-0"
       style="fill:#f9f9f9;stroke:#000000;stroke-width:5.8178;stroke-linecap:round;stroke-opacity:1"
       d="m 251.62131,713.77113 a 87.616565,124.50008 36.020504 0 0 8.45902,-0.6924 l 65.39324,-224.8412 a 87.616565,124.50008 36.020504 0 0 -8.05593,-0.6936 87.616565,124.50008 36.020504 0 0 -129.33491,113.1136 87.616565,124.50008 36.020504 0 0 63.53858,113.1136 z" />
    <path
       id="rect1330-3-0-1"
       style="fill:#f9f9f9;stroke:#000000;stroke-width:2.83439;stroke-linecap:round;stroke-opacity:1"
       d="m 273.02964,640.16195 a 39.688479,65.236815 69.388904 0 0 5.2001,-0.2674 l 40.2005,-86.8118 a 39.688479,65.236815 69.388904 0 0 -4.9524,-0.2678 39.688479,65.236815 69.388904 0 0 -79.5085,43.6735 39.688479,65.236815 69.388904 0 0 39.0603,43.6735 z" />
    <path
       id="rect1330-3-0-1-2"
       style="fill:#808080;stroke:#000000;stroke-width:1.85557;stroke-linecap:round;stroke-opacity:1"
       d="m 288.18654,623.96215 a 25.181169,44.067498 72.313854 0 0 3.5428,-0.1682 l 27.3886,-54.6108 a 25.181169,44.067498 72.313854 0 0 -3.3741,-0.1684 25.181169,44.067498 72.313854 0 0 -54.169,27.4737 25.181169,44.067498 72.313854 0 0 26.6117,27.4737 z" />
    <path
       id="rect1330-05-3"
       style="fill:#999999;stroke:#000000;stroke-width:11.6356;stroke-linecap:round;stroke-opacity:1"
       d="m 757.78703,381.49388 a 175.23313,249.00016 36.020504 0 0 -16.91801,1.38472 L 610.08253,832.56103 a 175.23313,249.00016 36.020504 0 0 16.11184,1.38717 175.23313,249.00016 36.020504 0 0 258.66986,-226.22716 175.23313,249.00016 36.020504 0 0 -127.0772,-226.22716 z" />
    <path
       id="rect1330-05-3-4"
       style="fill:#f9f9f9;stroke:#000000;stroke-width:5.8178;stroke-linecap:round;stroke-opacity:1"
       d="m 745.30334,491.71516 a 87.616565,124.50008 36.020504 0 0 -8.45901,0.6924 l -65.39324,224.8412 a 87.616565,124.50008 36.020504 0 0 8.05592,0.6936 87.616565,124.50008 36.020504 0 0 129.33493,-113.1136 87.616565,124.50008 36.020504 0 0 -63.5386,-113.1136 z" />
    <rect
       style="fill:#1a1a1a;stroke:#000000;stroke-width:11.3572;stroke-linecap:round;stroke-opacity:1"
       id="rect1505-5"
       width="409.19452"
       height="469.492"
       x="465.47495"
       y="398.15625"
       transform="matrix(1,0,-0.27927003,0.96021261,0,0)" />
    <ellipse
       style="fill:#cccccc;stroke:none;stroke-width:10.56;stroke-linecap:round;stroke-opacity:1"
       id="path1816"
       cx="260.70206"
       cy="483.86301"
       rx="14.599315"
       ry="16.684931" />
    <ellipse
       style="fill:#cccccc;stroke:none;stroke-width:10.56;stroke-linecap:round;stroke-opacity:1"
       id="path1818"
       cx="204.39041"
       cy="540.17468"
       rx="12.513699"
       ry="18.770548" />
    <circle
       style="fill:#cccccc;stroke:none;stroke-width:9.77666;stroke-linecap:round;stroke-opacity:1"
       id="path2598"
       cx="282.5"
       cy="525.57538"
       r="12.513699" />
    <ellipse
       style="fill:#cccccc;stroke:none;stroke-width:10.56;stroke-linecap:round;stroke-opacity:1"
       id="path2600"
       cx="189.79109"
       cy="700.76715"
       rx="14.599315"
       ry="16.684931" />
    <ellipse
       style="fill:#808080;stroke:none;stroke-width:10.56;stroke-linecap:round;stroke-opacity:1"
       id="path3432"
       cx="298.24316"
       cy="508.89041"
       rx="6.2568493"
       ry="8.3424654" />
    <circle
       style="fill:#808080;stroke:none;stroke-width:10.56;stroke-linecap:round;stroke-opacity:1"
       id="path3486"
       cx="218.98973"
       cy="502.63358"
       r="10.428082" />
    <circle
       style="fill:#808080;stroke:none;stroke-width:10.56;stroke-linecap:round;stroke-opacity:1"
       id="path3488"
       cx="229.4178"
       cy="583.9726"
       r="12.513699" />
    <ellipse
       style="fill:#666666;fill-opacity:1;stroke:#3f3f3f;stroke-width:10.56;stroke-linecap:round;stroke-opacity:1"
       id="path3711"
       cx="216.90411"
       cy="506.80481"
       rx="16.684931"
       ry="10.428082" />
    <circle
       style="fill:#666666;fill-opacity:1;stroke:#3f3f3f;stroke-width:10.56;stroke-linecap:round;stroke-opacity:1"
       id="path4447"
       cx="155.36301"
       cy="625.68494"
       r="8.3424654" />
    <ellipse
       style="fill:#333333;fill-opacity:1;stroke:#3f3f3f;stroke-width:10.56;stroke-linecap:round;stroke-opacity:1"
       id="path4545"
       cx="209.3322"
       cy="648.88354"
       rx="2.0856164"
       ry="4.1712327" />
    <path
       id="rect1330-3-0-1-0"
       style="fill:#f9f9f9;stroke:#000000;stroke-width:2.63796;stroke-linecap:round;stroke-opacity:1"
       d="m 731.55583,565.71955 a 38.548332,58.179465 63.155329 0 0 -4.5452,0.265 l -35.13788,86.0306 a 38.548332,58.179465 63.155329 0 0 4.32872,0.2653 38.548332,58.179465 63.155329 0 0 69.49566,-43.2804 38.548332,58.179465 63.155329 0 0 -34.1413,-43.2805 z" />
    <path
       id="rect1330-3-0-1-2-9"
       style="fill:#808080;stroke:#000000;stroke-width:1.72698;stroke-linecap:round;stroke-opacity:1"
       d="m 714.25745,577.60227 a 24.589064,39.090425 67.375615 0 0 -3.0967,0.1667 l -23.93937,54.1194 a 24.589064,39.090425 67.375615 0 0 2.94918,0.1668 24.589064,39.090425 67.375615 0 0 47.34729,-27.2264 24.589064,39.090425 67.375615 0 0 -23.2604,-27.2265 z" />
    <path
       id="rect1330-3-0-1-2-9-7-6"
       style="fill:#1a1a1a;stroke:#000000;stroke-width:0.848202;stroke-linecap:round;stroke-opacity:1"
       d="m 710.275,584.7467 a 12.520143,18.519412 29.080544 0 0 -1.1763,0.1058 l -9.093,34.3703 a 12.520143,18.519412 29.080544 0 0 1.1202,0.106 12.520143,18.519412 29.080544 0 0 17.9842,-17.2911 12.520143,18.519412 29.080544 0 0 -8.8351,-17.291 z" />
    <path
       id="path309"
       style="fill:#ececec;stroke-width:9.56569;stroke-linecap:round"
       d="m 788.89214,391.75938 -2.42887,8.99533 15.84454,13.95896 3.95513,-7.65063 z m -2.42887,8.99533 -5.6317,-4.9615 -4.76636,9.22232 -33.89093,125.51471 5.78852,7.01069 -6.60929,12.78703 -3.40969,-4.13017 -10.18634,37.7249 c 11.299,-0.91241 22.6599,-4.37685 33.73624,-10.28758 l -17.53871,-15.45159 z m 22.12217,19.4895 -5.70333,11.03551 -3.78405,14.01416 14.9409,13.16281 -2.41463,8.94253 15.79523,-30.56221 z m -9.48738,25.04967 -2.37744,-2.09454 -2.91134,5.63443 -3.70345,-4.48543 -16.69605,61.83361 -15.7891,58.47475 7.47045,6.58141 z m -34.00693,125.94423 -0.12794,0.4739 c 0.13169,-0.0792 0.26335,-0.15873 0.39495,-0.23863 z m 65.46724,-131.63577 -23.9311,46.30342 -18.37829,68.06384 c 8.08115,-7.71302 15.69161,-16.74937 22.68504,-26.93522 l 22.84247,-84.59689 z M 800.2188,566.71801 c -6.08097,4.86119 -12.34468,8.96797 -18.72753,12.27871 l -1.45925,5.40431 -3.43264,-3.02411 c -16.56661,7.44499 -33.51217,9.4168 -49.71654,5.785 l -8.61619,31.91003 54.78367,48.26419 z"
       sodipodi:nodetypes="ccccccccccccccccccccccccccccccccccccccccccccccccc" />
    <rect
       style="fill:#ececec;stroke-width:12.4593;stroke-linecap:round"
       id="rect499"
       width="331.17145"
       height="263.29688"
       x="490.65976"
       y="497.91736"
       ry="78.989059"
       transform="matrix(1,0,-0.25711212,0.96638158,0,0)" />
  </g>
</svg>
