<?xml version="1.0" encoding="utf-8"?>
<!-- Generator: Adobe Illustrator 24.3.0, SVG Export Plug-In . SVG Version: 6.00 Build 0)  -->
<svg version="1.1" id="Capa_1" xmlns="http://www.w3.org/2000/svg" xmlns:xlink="http://www.w3.org/1999/xlink" x="0px" y="0px"
	 viewBox="0 0 1920 396" style="enable-background:new 0 0 1920 396;" xml:space="preserve">
<style type="text/css">
	.st0{fill:none;stroke:#1C3E8C;stroke-width:5;stroke-miterlimit:10;}
	.st1{fill:none;stroke:#41AA34;stroke-width:5;stroke-miterlimit:10;}
	.st2{fill:#FFFFFF;}
	.st3{fill:#CFD500;}
	.st4{fill:none;}
	.st5{fill:#3A68AF;}
	.st6{fill:#34A7DF;}
	.st7{fill:#544F9C;}
	.st8{fill:#D9561B;}
	.st9{fill:#C36135;}
	.st10{fill:#8D8958;}
	.st11{fill:#C5291D;}
	.st12{fill:#EC8C0A;}
	.st13{fill:#CE581D;}
	.st14{fill:#726F20;}
	.st15{fill:#292A60;}
	.st16{fill:#41AA34;}
	.st17{fill:#933F8F;}
	.st18{fill:#BF1819;}
	.st19{fill:#1C3E8C;}
	.st20{fill:none;stroke:#000000;stroke-width:0.25;stroke-miterlimit:10;}
	.st21{font-family:'AlbanyStd-Bold';}
	.st22{font-size:95.1758px;}
	.st23{font-size:98.7128px;}
	.st24{letter-spacing:7;}
	.st25{font-size:38.1035px;}
</style>
<path class="st0" d="M982.12,187.65c3,0,18-0.02,18,12.98l10,78.74c0,1.01,0.17,2.01,0.49,2.96c1.16,3.44,4.62,10.89,12.84,10.89
	c10.68,0,14.58-8.21,14.63-12.9h39.73"/>
<line class="st0" x1="304.69" y1="187.64" x2="983.16" y2="187.64"/>
<path class="st1" d="M630.69,92.27c-24.32,0-74.83,0-88.62,0c-2.84,0-5.43,0-7.77,0c-13.17,0-16.54,7.12-17.05,10.68
	c-0.93,6.51-1.87,13.03-2.8,19.54c-1.88,13.09-3.76,26.19-5.63,39.28c-0.04,0.73-0.09,1.79-0.49,2.96
	c-1.16,3.44-4.62,10.89-12.84,10.89c-10.68,0-14.58-8.21-14.63-12.9c-50.89,0-126.28,0-177.17,0"/>
<polygon points="179.18,277.66 180.35,277.52 179.18,277.66 "/>
<polygon points="177.16,277.44 178.32,277.31 177.16,277.44 "/>
<path d="M106.56,93.45c-0.01,0.36-0.02,0.71-0.02,1.07l0,0C106.54,94.16,106.55,93.8,106.56,93.45L106.56,93.45z"/>
<g>
	<g>
		<path class="st2" d="M135.6,323.46l-0.85,4.29l0.11-0.01c1.36-2.69,4.49-5.52,7.33-5.73c4.26-0.31,7.62,2.01,6.71,6.79
			l-5.57,28.55l-9.04,0.02l4.83-24.41c0.23-1.6-0.11-2.92-1.82-2.7c-1.59,0.15-2.67,1.18-3.01,2.95l-4.83,24.17l-9.04,0.02
			l6.76-33.36L135.6,323.46z"/>
		<path class="st2" d="M179.25,340.56l-1.19,6.48c-0.34,2.04,0.11,3.74,2.1,3.85c3.3,0.15,3.58-3.37,4.32-6.51l8.98-0.23
			c-1.25,9.74-6.48,14.19-14.38,14.32c-6.48,0.07-11.59-2.96-10.06-11.24l2.78-14.86c1.7-9.46,7.45-12.94,14.44-13.5
			c6.37-0.52,11.71,1.95,10.23,10.27l-1.93,10.93L179.25,340.56z M186.75,333.31l0.68-3.71c0.23-1.35-0.06-3.8-2.39-3.67
			c-2.56,0.15-3.64,2.59-4.09,5.19l-0.45,2.46L186.75,333.31z"/>
		<path class="st2" d="M210.96,318.21l-1.02,5.98l0.11-0.01c1.76-4.29,4.43-7.34,8.18-7.61l-2.16,12.8
			c-0.85-0.17-1.76-0.19-2.67-0.15c-2.56,0.13-3.69,0.81-4.43,4.04l-4.15,23.96l-9.04,0.02l6.76-38.45L210.96,318.21z"/>
		<path class="st2" d="M309.34,352.92c-2.84,3.6-5.06,5.54-8.64,5.54c-5.12,0-7.56-4.85-6.48-11.96
			c1.53-10.17,5.97-13.54,10.17-15.56c4.21-2.05,8.24-2.8,8.98-7.75c0.34-2.56-0.34-4.74-2.16-4.63c-3.3,0.19-3.81,3.48-4.55,7.33
			l-9.04,0.44c0.68-5.65,2.44-9.61,5.06-12.27c2.61-2.69,5.85-3.97,9.49-4.23c8.92-0.64,11.59,3.17,10.12,13.48l-4.15,28.54
			c-0.23,1.74-0.17,3.47,0,5.12l-8.81,0.02V352.92z M311.67,334.74c-2.05,1.46-3.75,2.25-5.06,3.51c-1.31,1.17-2.5,2.83-2.96,5.91
			c-0.45,2.84,0.45,4.84,2.61,4.81c2.67-0.04,3.81-4.05,4.32-7L311.67,334.74z"/>
		<path class="st2" d="M152.14,329.51l1.36-7.29l3.58-0.25l1.93-10.28l9.04-0.81l-1.93,10.45l4.32-0.3l-1.36,7.52l-4.32,0.24
			l-3.58,18.98c-0.4,2.04,0.34,2.48,1.53,2.46c1.02-0.21,1.36-0.15,2.33-0.16l-1.36,7.18c-1.99,0.32-3.92,0.58-5.91,0.58
			c-4.89,0.01-6.99-2.74-5.97-8.06l3.92-20.47L152.14,329.51z"/>
		<path class="st2" d="M278.43,322.45l1.36-9.04l3.58-0.25l1.93-12.72l9.04-0.81l-1.93,12.89l4.32-0.3l-1.36,9.28l-4.32,0.24
			l-3.58,23.47c-0.4,2.53,0.34,3.07,1.53,3.05c1.02-0.25,1.36-0.18,2.33-0.19l-1.36,8.89c-1.99,0.4-3.92,0.72-5.91,0.72
			c-4.89,0.01-6.99-3.41-5.97-10.02l3.92-25.41L278.43,322.45z"/>
		<polygon class="st2" points="113.78,313.98 112.93,318.08 112.86,318.4 112.5,320.1 112.42,320.49 112.05,322.28 111.97,322.67 
			108.92,337.32 108.5,339.35 107.91,342.2 107.7,343.22 107.59,343.76 107.49,344.21 106.9,347.05 106.79,347.59 106.7,348.01 
			106.29,350.01 106.21,350.36 106.1,350.89 104.74,357.45 114.74,357.42 114.94,356.46 114.97,356.29 115.1,355.65 115.3,354.7 
			115.65,352.98 115.75,352.49 116.21,350.2 116.4,349.29 116.53,348.66 116.59,348.35 117.43,344.23 117.85,342.17 122,321.81 
			122.09,321.36 122.45,319.56 122.53,319.18 122.89,317.44 122.94,317.19 123.78,313.05 		"/>
		<polygon class="st2" points="241.03,302.18 240.38,307.07 240.28,307.82 236.94,333.06 236.77,333.07 234.87,311.56 
			234.86,311.43 234.71,309.76 234.7,309.67 234.57,308.24 234.51,307.5 234.1,302.83 223.81,303.78 223.02,308.46 222.92,309 
			222.72,310.21 222.63,310.73 222.42,311.96 222.32,312.6 218.6,334.6 218.3,336.32 217.46,341.28 217.15,343.13 216.33,348 
			216.02,349.82 214.77,357.21 224.26,357.19 224.95,352.18 225.24,350.13 225.87,345.59 226.15,343.57 226.73,339.36 227,337.35 
			228.41,327.18 228.52,327.03 229.42,336.92 229.6,338.92 229.96,342.86 230.14,344.88 230.53,349.17 230.53,349.21 230.61,350.08 
			230.71,351.17 230.88,353.03 230.96,353.89 231.2,356.56 231.25,357.17 234.69,357.16 241.48,357.15 241.63,356.26 241.77,355.35 
			241.9,354.6 242.24,352.45 242.28,352.21 242.43,351.31 242.84,348.78 243.02,347.65 243.23,346.33 243.63,343.85 244.21,340.33 
			244.61,337.84 249.59,307.05 249.69,306.45 250.52,301.3 		"/>
		<path class="st2" d="M258.19,337.97l-1.19,7.41c-0.34,2.34,0.11,4.28,2.1,4.41c3.3,0.18,3.58-3.85,4.32-7.43l8.98-0.23
			c-1.25,11.11-6.48,16.19-14.38,16.34c-6.48,0.08-11.59-3.4-10.06-12.9l2.78-17.04c1.7-10.83,7.45-14.76,14.44-15.33
			c6.37-0.53,11.71,2.34,10.23,11.81l-1.93,12.45L258.19,337.97z M265.7,329.72l0.68-4.23c0.23-1.54-0.06-4.35-2.39-4.21
			c-2.56,0.15-3.64,2.94-4.09,5.91l-0.45,2.82L265.7,329.72z"/>
	</g>
	<g>
		<path class="st2" d="M279.38,42.29c-45.44-8.5-127.13-11.19-127.13-11.19c-29.79,0-53.94,24.15-53.94,53.94v168.31
			c0,29.79,19.9,51.03,49.69,51.03l117.95-12.09c29.79,0,50.92-21.13,50.92-50.92l3.02-147.61
			C319.89,65.35,310.49,48.11,279.38,42.29z M270.06,123.95l-0.03,1.46l-0.81,45.31h-4.49v-0.98c0,0-1.27-1.71-2.24-2.81
			c-0.28-0.32-0.14-4.33-1.47-4.49c-1.4-0.17-3.58-0.14-3.58-0.14s-2.24,0-2.24,1.82c0,1.82,0,27.5,0,27.5s-0.42,2.24,2.24,2.24
			c2.67,0,3.93,0,3.93,0s1.4,0.14,1.82-1.26c0.42-1.4,1.54-3.51,1.54-3.51v-0.56c0,0,1.74,0,4.18,0l-0.25,14.26l-0.03,1.49
			l-0.42,23.82c0,5.15-0.66,9.99-1.88,14.44c-0.04,0.14-0.07,0.29-0.11,0.43c-4.86,17.2-18.27,28.42-35.68,28.42l-47.03,5.54
			l-4.33,0.51l-29.19,3.44l-6.71,0.79c-22.04,0-36.76-18.06-36.76-43.39v-16.43v-0.75v-39.39v-4.64V159.7v-3.31v-7.86v-2.56v-15.24
			v-1.33v-2.79v-10.79v-1.04v-1.7v-0.92v-1.05v-0.92v-1.05v-0.91v-1.06v-0.91v-1.05v-0.91v-1.06v-0.9v-1.06v-0.34v-0.56v-1.06v-0.9
			v-1.06v-0.89v-1.07v-0.23c0-0.22,0.01-0.44,0.01-0.66c0-0.36,0.01-0.72,0.02-1.07c0.01-0.3,0.02-0.6,0.03-0.9
			c0.02-0.37,0.05-0.73,0.07-1.09c0.02-0.3,0.03-0.6,0.06-0.9c0.03-0.37,0.08-0.74,0.12-1.11c0.03-0.31,0.06-0.61,0.1-0.92
			c0.05-0.37,0.1-0.75,0.16-1.12c0.05-0.31,0.09-0.62,0.14-0.93c0.06-0.38,0.13-0.76,0.2-1.13c0.06-0.32,0.12-0.63,0.19-0.94
			c0.08-0.38,0.16-0.76,0.25-1.14c0.08-0.32,0.16-0.64,0.24-0.96c0.1-0.38,0.2-0.77,0.3-1.15c0.09-0.33,0.19-0.66,0.29-0.99
			c0.13-0.43,0.27-0.87,0.41-1.3c3.14-9.49,8.94-17.47,16.36-22.73c0.58-0.41,1.17-0.81,1.77-1.19c1.68-1.06,3.44-1.99,5.26-2.76
			c0.49-0.21,1-0.41,1.5-0.6c3.91-1.47,8.08-2.27,12.41-2.27c0,0,60.43,2.29,94.05,9.51c23.02,4.95,29.97,19.6,29.97,43.77
			L270.06,123.95z"/>
		<path d="M113.1,150.58c0.77-0.28,1.59-0.5,2.49-0.62c3.28-0.45,6.25-0.11,8.68,0.93c-0.88-11.42-2.72-18.77-5.29-20.61l-0.37,0.01
			c-5.18,0.19-9.5,0.35-12.08,0.44v15.24c0.03,0.06,0.06,0.13,0.09,0.19C107.57,148.07,109.89,149.98,113.1,150.58z"/>
		<path d="M111.12,151.54c-1.94-0.67-3.5-1.78-4.6-3.01v7.86C107.6,154.58,109.09,152.79,111.12,151.54z"/>
		<path d="M142.13,132.76c2.33,0.74,5.16-0.07,6.75-1.27c1.17-0.87,1.49-1.78,1.54-2.43c-3.54,0.15-7.53,0.31-11.66,0.47
			C139.48,131.19,140.61,132.28,142.13,132.76z"/>
		<path d="M134.44,174.7c1.54,0,2.45-1.37,2.58-8.34c0.13-7.01-1.33-18.68-1.41-19.32c-1.21-6.04-4.04-14.36-5.51-17.18l-9.17,0.35
			c2.81,3.63,4.19,12.36,4.84,21.46c0.9,0.56,1.69,1.23,2.36,2.02c2.16,2.55,4.1,7.61,1.11,17.22c-0.33,1.05-0.71,1.85-1.07,2.45
			c0.77,0.63,1.72,1.05,2.77,1.14C132.57,174.63,133.75,174.7,134.44,174.7z"/>
		<path d="M140.03,153.58c1.02,0.36,2.08-0.14,2.5-0.53c0.48-0.44,0.38-3.55-0.22-6.67c-0.77-4.85-4.11-14.03-5.13-16.79l-5.5,0.21
			c1.78,3.8,4.78,12.91,5.68,18.83C137.79,151.4,138.71,153.12,140.03,153.58z"/>
		<path class="st3" d="M151.01,128.38"/>
		<path class="st4" d="M165.26,66.69c0.31,0.07,0.63,0.14,0.94,0.22c2.5,0.6,3.95,0.85,4.67-1.08c0.39-1.04,0.23-1.91-0.42-2.34
			c-0.37-0.24-0.84-0.27-1.05-0.06c-0.5,0.49-3.14,2.91-5.62,2c-2-0.73-4.96-1.23-7.93-1.34c-1.73-0.06-2.51,0.55-2.86,1.07
			c0.46,0.12,0.93,0.26,1.4,0.45c1.43,0.54,2.59,1.15,3.51,1.81C159.45,66.31,162.99,66.2,165.26,66.69z"/>
		<path class="st4" d="M175.3,76.68c-1.68-1.24-3.3-4.02-3.73-5.22c-0.36-1.01-1.53-2.57-2.46-2.62c-1.07,0.06-2.22-0.21-3.26-0.46
			c-0.3-0.07-0.61-0.15-0.91-0.21c-2.19-0.48-4.81-0.19-5.85,0.28c0.47,0.52,0.8,1.06,0.96,1.62c0.11,0.38,0.1,0.77,0,1.15
			c0.61,0.24,1.71,0.52,2.03,0.7c0.4,0.23,0.37,1.2-0.63,1.24c-0.6,0.02-1.58-0.33-2.26-0.61c-0.97,0.88-2.41,1.27-3.49,0.93
			c-1.54-0.48-6.84-1.44-10.26-0.93c-0.22,1.34-0.62,5.07,1.57,6.51c0.07,0.04,0.13,0.1,0.17,0.16c0.02,0.02,1.57,1.9,5.37,3.09
			c3.97,1.25,6.05,2.62,6.55,4.31c0.14,0.47,0.65,1.07,1.26,1.26c0.41,0.13,0.79,0.05,1.16-0.23c0.33-0.47,2.04-3.24-0.93-6.56
			c-0.08-0.09-0.13-0.2-0.16-0.31c-1.69-0.96-3.92-2.35-5.01-3.55c-0.19-0.21-0.24-0.49-0.16-0.74c0.04-0.12,0.11-0.24,0.21-0.33
			c0.31-0.28,0.79-0.26,1.07,0.05c1.66,1.83,6.71,4.37,6.74,4.39c4.52,2.1,10.96-1.07,12.83-2.09l0.05-0.03
			c0.1-0.05,0.33-0.2,0.35-0.36C176.53,77.89,176.22,77.37,175.3,76.68z"/>
		<path class="st5" d="M150.49,115.55"/>
		<path class="st4" d="M126.63,115.47c0.01,0,0.02,0,0.03,0C126.65,115.47,126.65,115.47,126.63,115.47
			C126.63,115.47,126.63,115.47,126.63,115.47z"/>
		<polygon class="st4" points="152.67,112.52 152.67,112.51 152.67,112.51 		"/>
		<path class="st4" d="M121.88,191.61l-0.21-0.08c0,0,0.44-4.17-1.79-6.82c-2.23-2.65-6.26-8.49-7.29-12.3
			c-1.02-3.81-0.9-7.89,1-10.53c1.9-2.65,4.38-4.79,7.42-4.15c3.04,0.65,5.68,4.08,3.92,8.03c0,0-0.35,1.23-1.06,0.6
			s0.06-1.55,0.22-2.28c0.17-0.72,0.27-2.35-0.64-3.33c-1.2-1.29-2.35-2.14-4.96-1.59c-2.01,0.42-4.77,2.94-5.39,5.59
			c-0.62,2.65-0.61,5.28,0.2,7.31c0.81,2.03,2.03,4.53,2.9,5.85c0.87,1.32,2.64,4.29,3.84,5.16c1.2,0.87,2.6,1.6,2.82,2.84
			c0.08,0.43,0.17,0.78,0.26,1.12c-0.03-1.68-0.09-3.45-0.21-5.34c-0.04-0.6-0.07-1.03-0.07-1.25c-0.03-2.79,0.37-3.65,3.08-6.6
			c0.03-0.03,0.07-0.07,0.1-0.09c0,0,0.11-0.09,0.27-0.26c0.21-0.23,0.52-0.64,0.86-1.27c0.24-0.46,0.49-1.03,0.72-1.75
			c2.22-7.11,1.93-12.6-0.83-15.86c-0.34-0.4-0.72-0.76-1.13-1.09c0,0-0.01-0.01-0.01-0.01c-0.46-0.37-0.96-0.7-1.5-0.98
			c-2.28-1.18-5.26-1.6-8.6-1.14c-0.91,0.12-1.73,0.36-2.5,0.68c-6.42,2.69-7.95,11.47-7.97,11.56c-0.01,0.04-0.02,0.08-0.03,0.12
			c-1.66,4.87,1.87,17.23,4.18,20.78c2.38,3.66,2.79,6.45,3.9,13.91l0.14,0.92c0.28,1.9,0.68,3.47,1.18,4.67
			c0.37,0.88,1.14,1.5,2.07,1.71c-0.02-1.12,0-2.05,0.09-2.71c0.18-1.25,1.22-2.17,2.34-1.95c0.32,0.06,0.62,0.21,0.86,0.43
			c0.34,0.32,0.54,0.82,0.68,1.55c0.05-0.1,0.1-0.19,0.15-0.29c0.47-0.96,0.87-2.09,1.19-3.4c0.36-1.46,0.63-3.14,0.8-5.03
			c0.09-0.95,0.15-1.96,0.19-3.02C122.78,191.91,122.09,191.69,121.88,191.61z"/>
		<path class="st4" d="M133.45,211.33c0.97-0.67,4.6-3.39,5.15-6.59c0.15-0.89,0.19-1.71,0.15-2.43c-0.25-0.32-0.4-0.5-0.4-0.5
			s-7.46-7.71-9.53-8.85c-1.32-0.73-2.96-0.76-4.36,0.01c-0.2,3.01-0.65,6.08-1.55,8.67c0.04,0.1,0.09,0.21,0.13,0.31
			c0.76,1.78,4.94,4.8,4.94,4.8s2.88,2.29,3.9,3.08C132.05,209.94,132.62,210.49,133.45,211.33z"/>
		<path class="st4" d="M142.49,208.91c0.21-0.35,0.4-0.74,0.58-1.14c0.39-0.92,0.69-1.96,0.9-3.01c0.51-2.56,0.51-5.18,0.11-6.26
			c-0.33-0.89-1.07-1-1.71-0.89c-0.81,0.14-1.4,0.85-1.4,1.67c0,0.46,0.04,1.07,0,1.98c-0.04,0.82-0.14,1.9-0.4,3.35
			c-0.02,0.11-0.04,0.22-0.06,0.33c-0.96,5.16-5.86,7.33-5.86,7.33s-0.08,0.04-0.19,0.1c-0.44,0.23-1.51,0.84-1.92,1.6
			c-0.19,0.35-0.25,0.72-0.05,1.11c0.35,0.67,1.19,0.84,2,0.84c0.97-0.01,1.89-0.27,1.89-0.27c0.28-0.09,0.57-0.23,0.85-0.4
			C139.02,214.16,140.9,211.52,142.49,208.91z"/>
		<path class="st4" d="M122.07,226.79c-0.03,0-0.07,0-0.1,0c-2.17-0.01-3.84,1.92-3.6,4.08c0.13,1.16,0.3,2.8,0.41,4.15
			c0.19,2.36,0,3.25-0.38,5.04c-0.22,1.04-1.02,1.57-0.96,4.59c0.05,2.32,1.98,2.68,3.51,2.61c1.53-0.06,1.27-1.59,1.12-2.74
			c-0.15-1.15,0.34-1.98,1.49-1.84c1.15,0.13,0.7,2.16,1.15,3.28c0.45,1.11,2.61,1.05,3.89,0c1.27-1.05,1.15-2.77,0.96-5.19
			c-0.08-1.04-0.38-1.87-0.68-2.47c-0.29-0.57-0.75-1.03-1.26-1.41c-0.51-0.39-1.39-1.42-2.15-4.13c-0.06-0.22-0.1-0.45-0.1-0.67
			C125.32,230.91,124.99,226.85,122.07,226.79z"/>
		<path class="st4" d="M119.44,214.01c-1.42,0.13-2.25,0.11-2.48-3.91c-0.01-0.12-0.01-0.24-0.02-0.36
			c-0.45,0.36-0.8,0.86-0.98,1.55c0,0-1.57,9.11,1.33,12.33c0.38,0.43,0.84,0.75,1.39,0.94c2.37,0.8,4.29,0.34,5.46-0.66
			c0.78-0.68,1.22-1.6,1.22-2.58c-0.01-1.66-0.6-5.86-1.21-9.11c-0.54-2.88-2.33-3.23-2.33-3.23s-0.25-0.05-0.65-0.09l-0.03,0
			C121.23,212.39,120.77,213.89,119.44,214.01z"/>
		<path class="st4" d="M116.8,207.19c-0.02,0.01-0.04,0.02-0.06,0.03L116.8,207.19C116.8,207.19,116.8,207.19,116.8,207.19z"/>
		<path class="st4" d="M150.1,217.16c-0.57-0.83-1.03-1.52-1.3-1.92c-0.53-0.8-2.4-3.22-4.41-5.79c-1.06,2.49-2.52,4.06-4.66,5.62
			c-0.57,0.42-1.11,0.78-1.63,1.09c2.16,2.29,4.57,4.91,6.74,7.37C146.52,221.51,148.7,218.86,150.1,217.16z"/>
		<path class="st4" d="M155.9,225.65c0,0-0.62-0.91-1.5-2.19l-5.1,5.46c0.83,1.09,1.43,1.99,1.7,2.6c1.78,3.99,1.2,6.71,5.1,5.99
			c0.92-0.17,2.5-1.1,3.31-2.08c0.77-0.93,1.74-1.1,1.23-3.65C160.15,229.22,155.9,225.65,155.9,225.65z"/>
		<path class="st4" d="M154.64,220.96l0.95-1.01c0,0,0.92-1.37,0.32-2.52c-0.59-1.11-2.34-1.44-3.58-0.13
			c-0.04,0.04-0.08,0.08-0.12,0.13c-0.23,0.27-0.61,0.71-1.09,1.24c-1.59,1.78-4.18,4.64-5.36,5.94c-0.39,0.42-0.63,0.69-0.63,0.69
			s-0.43,0.53-0.65,1.26c-0.09,0.3-0.15,0.63-0.12,0.97c0.1,1.18,0.77,2.23,1.88,1.78c0.25-0.1,0.48-0.22,0.67-0.33
			c0.49-0.29,0.77-0.56,0.77-0.56l0.67-0.72l5.16-5.54L154.64,220.96z"/>
		<path class="st4" d="M145.14,225.29c0,0-0.43,0.53-0.65,1.26c-0.09,0.3-0.15,0.63-0.12,0.97c0.1,1.18,0.77,2.23,1.88,1.78
			c0.25-0.1,0.48-0.22,0.67-0.33c0.49-0.29,0.77-0.56,0.77-0.56l0.67-0.72l5.16-5.54l1.13-1.21l0.95-1.01c0,0,0.92-1.37,0.32-2.52
			c-0.59-1.11-2.34-1.44-3.58-0.13c-0.04,0.04-0.08,0.08-0.12,0.13c-0.23,0.27-0.61,0.71-1.09,1.24c-1.59,1.78-4.18,4.64-5.36,5.94
			C145.38,225.03,145.14,225.29,145.14,225.29z"/>
		<path class="st4" d="M149.31,228.91c0.83,1.09,1.43,1.99,1.7,2.6c1.78,3.99,1.2,6.71,5.1,5.99c0.92-0.17,2.5-1.1,3.31-2.08
			c0.77-0.93,1.74-1.1,1.23-3.65c-0.51-2.55-4.75-6.12-4.75-6.12s-0.62-0.91-1.5-2.19L149.31,228.91z"/>
		<path class="st4" d="M116.8,207.19c-0.02,0.01-0.04,0.02-0.06,0.03L116.8,207.19C116.8,207.19,116.8,207.19,116.8,207.19z"/>
		<path class="st4" d="M126.64,115.47C126.63,115.47,126.63,115.47,126.64,115.47c0.01,0,0.02,0,0.03,0
			C126.65,115.47,126.65,115.47,126.64,115.47z"/>
		<polygon class="st4" points="152.67,112.51 152.67,112.52 152.67,112.51 		"/>
		<path class="st4" d="M134.65,212.26c0,0-0.08,0.04-0.19,0.1c-0.44,0.23-1.51,0.84-1.92,1.6c-0.19,0.35-0.25,0.72-0.05,1.11
			c0.35,0.67,1.19,0.84,2,0.84c0.97-0.01,1.89-0.27,1.89-0.27c0.28-0.09,0.57-0.23,0.85-0.4c1.79-1.08,3.67-3.72,5.27-6.33
			c0.21-0.35,0.4-0.74,0.58-1.14c0.39-0.92,0.69-1.96,0.9-3.01c0.51-2.56,0.51-5.18,0.11-6.26c-0.33-0.89-1.07-1-1.71-0.89
			c-0.81,0.14-1.4,0.85-1.4,1.67c0,0.46,0.04,1.07,0,1.98c-0.04,0.82-0.14,1.9-0.4,3.35c-0.02,0.11-0.04,0.22-0.06,0.33
			C139.56,210.09,134.65,212.26,134.65,212.26z"/>
		<path class="st4" d="M128.87,238.29c-0.29-0.57-0.75-1.03-1.26-1.41c-0.51-0.39-1.39-1.42-2.15-4.13c-0.06-0.22-0.1-0.45-0.1-0.67
			c-0.04-1.16-0.37-5.23-3.29-5.28c-0.03,0-0.07,0-0.1,0c-2.17-0.01-3.84,1.92-3.6,4.08c0.13,1.16,0.3,2.8,0.41,4.15
			c0.19,2.36,0,3.25-0.38,5.04c-0.22,1.04-1.02,1.57-0.96,4.59c0.05,2.32,1.98,2.68,3.51,2.61c1.53-0.06,1.27-1.59,1.12-2.74
			c-0.15-1.15,0.34-1.98,1.49-1.84c1.15,0.13,0.7,2.16,1.15,3.28c0.45,1.11,2.61,1.05,3.89,0c1.27-1.05,1.15-2.77,0.96-5.19
			C129.47,239.71,129.18,238.89,128.87,238.29z"/>
		<path class="st4" d="M118.86,202.26c-0.9-0.25-1.18,0.71-1.2,1.02c-0.09,1.81,0.05,5.26,0.18,7.27c0.04,0.64,0.12,1.13,0.21,1.5
			c0.3,1.28,1.89,1.36,2.2,0.1c0-0.02,0.01-0.02,0.01-0.02c0.15-1.51-0.03-3.24-0.18-6.11
			C119.93,203.14,119.76,202.51,118.86,202.26z"/>
		<path class="st4" d="M124.13,223.89c0.78-0.68,1.22-1.6,1.22-2.58c-0.01-1.66-0.6-5.86-1.21-9.11c-0.54-2.88-2.33-3.23-2.33-3.23
			s-0.25-0.05-0.65-0.09l-0.03,0c0.1,3.52-0.36,5.01-1.7,5.14c-1.42,0.13-2.25,0.11-2.48-3.91c-0.01-0.12-0.01-0.24-0.02-0.36
			c-0.45,0.36-0.8,0.86-0.98,1.55c0,0-1.57,9.11,1.33,12.33c0.38,0.43,0.84,0.75,1.39,0.94
			C121.05,225.35,122.97,224.9,124.13,223.89z"/>
		<path class="st4" d="M139.73,215.07c-0.57,0.42-1.11,0.78-1.63,1.09c2.16,2.29,4.57,4.91,6.74,7.37c1.69-2.02,3.88-4.68,5.27-6.37
			c-0.57-0.83-1.03-1.52-1.3-1.92c-0.53-0.8-2.4-3.22-4.41-5.79C143.33,211.94,141.87,213.51,139.73,215.07z"/>
		<path class="st4" d="M123.05,201.93c0.76,1.78,4.94,4.8,4.94,4.8s2.88,2.29,3.9,3.08c0.16,0.13,0.73,0.68,1.56,1.52
			c0.97-0.67,4.6-3.39,5.15-6.59c0.15-0.89,0.19-1.71,0.15-2.43c-0.25-0.32-0.4-0.5-0.4-0.5s-7.46-7.71-9.53-8.85
			c-1.32-0.73-2.96-0.76-4.36,0.01c-0.2,3.01-0.65,6.08-1.55,8.67C122.96,201.73,123.01,201.84,123.05,201.93z"/>
		<path class="st4" d="M119.19,201.08c0.32,0.06,0.62,0.21,0.86,0.43c0.34,0.32,0.54,0.82,0.68,1.55c0.05-0.1,0.1-0.19,0.15-0.29
			c0.47-0.96,0.87-2.09,1.19-3.4c0.36-1.46,0.63-3.14,0.8-5.03c0.09-0.95,0.15-1.96,0.19-3.02c-0.29,0.57-0.99,0.35-1.19,0.28
			l-0.21-0.08c0,0,0.44-4.17-1.79-6.82c-2.23-2.65-6.26-8.49-7.29-12.3c-1.02-3.81-0.9-7.89,1-10.53c1.9-2.65,4.38-4.79,7.42-4.15
			c3.04,0.65,5.68,4.08,3.92,8.03c0,0-0.35,1.23-1.06,0.6s0.06-1.55,0.22-2.28c0.17-0.72,0.27-2.35-0.64-3.33
			c-1.2-1.29-2.35-2.14-4.96-1.59c-2.01,0.42-4.77,2.94-5.39,5.59c-0.62,2.65-0.61,5.28,0.2,7.31c0.81,2.03,2.03,4.53,2.9,5.85
			c0.87,1.32,2.64,4.29,3.84,5.16c1.2,0.87,2.6,1.6,2.82,2.84c0.08,0.43,0.17,0.78,0.26,1.12c-0.03-1.68-0.09-3.45-0.21-5.34
			c-0.04-0.6-0.07-1.03-0.07-1.25c-0.03-2.79,0.37-3.65,3.08-6.6c0.03-0.03,0.07-0.07,0.1-0.09c0,0,0.11-0.09,0.27-0.26
			c0.21-0.23,0.52-0.64,0.86-1.27c0.24-0.46,0.49-1.03,0.72-1.75c2.22-7.11,1.93-12.6-0.83-15.86c-0.34-0.4-0.72-0.76-1.13-1.09
			c0,0-0.01-0.01-0.01-0.01c-0.46-0.37-0.96-0.7-1.5-0.98c-2.28-1.18-5.26-1.6-8.6-1.14c-0.91,0.12-1.73,0.36-2.5,0.68
			c-6.42,2.69-7.95,11.47-7.97,11.56c-0.01,0.04-0.02,0.08-0.03,0.12c-1.66,4.87,1.87,17.23,4.18,20.78
			c2.38,3.66,2.79,6.45,3.9,13.91l0.14,0.92c0.28,1.9,0.68,3.47,1.18,4.67c0.37,0.88,1.14,1.5,2.07,1.71
			c-0.02-1.12,0-2.05,0.09-2.71C117.03,201.79,118.07,200.86,119.19,201.08z"/>
		<path class="st4" d="M126.63,115.47c0.01,0,0.02,0,0.03,0C126.65,115.47,126.65,115.47,126.63,115.47
			C126.63,115.47,126.63,115.47,126.63,115.47z"/>
		<path class="st4" d="M124.15,114.25c0.48-0.01,0.96-0.02,1.42-0.03C125.1,114.23,124.62,114.24,124.15,114.25L124.15,114.25z"/>
		<path class="st4" d="M106.57,114.13c5.92,0.2,11.3,0.23,16.16,0.15C115.82,112.6,109.43,113.53,106.57,114.13z"/>
		<polygon class="st4" points="152.67,112.52 152.67,112.51 152.67,112.51 		"/>
		<path class="st6" d="M116.76,102.46c-0.12-0.32-0.23-0.65-0.34-0.97c-4.33-0.39-8.16,0.41-9.89,0.86v0.9
			C108.5,102.77,112.35,102.05,116.76,102.46z"/>
		<path class="st6" d="M119.81,108.77c-0.2-0.34-0.4-0.67-0.59-1.01c-5.48-0.91-10.46-0.04-12.7,0.48v0.91
			C109.03,108.6,114.1,107.8,119.81,108.77z"/>
		<path class="st6" d="M121.22,110.98c-0.23-0.34-0.47-0.69-0.7-1.03c-6.02-1.2-11.54-0.29-14,0.26v0.92
			C109.26,110.54,114.91,109.7,121.22,110.98z"/>
		<path class="st6" d="M122.86,113.26c-0.27-0.34-0.53-0.7-0.8-1.06c-6.64-1.58-12.82-0.62-15.54-0.02v0.92
			C109.52,112.47,115.85,111.58,122.86,113.26z"/>
		<path class="st6" d="M180.04,102.72l0.16,1.37c2.57,0.36,9.96,2.35,16.37,13.3c6.53,11.17,9.36,19.35,10.06,21.53
			c0.36,0.04,0.72,0.06,1.1,0.01l1.12-0.13c-1.15-3.53-5.56-13.79-12.27-24.02C190.82,105.98,182.89,103.39,180.04,102.72z"/>
		<path class="st6" d="M118.62,106.62c-0.17-0.33-0.35-0.66-0.51-1c-5.03-0.69-9.55,0.15-11.59,0.65v0.91
			C108.83,106.66,113.42,105.89,118.62,106.62z"/>
		<path class="st6" d="M180.33,105.16l0.16,1.29c10.19,1.14,18.3,18.82,22.29,29.48c0.48,1.29,1.48,2.25,2.69,2.72
			c-0.93-2.78-3.78-10.48-9.78-20.74C189.78,107.8,182.92,105.63,180.33,105.16z"/>
		<path class="st7" d="M116.8,207.19c-0.02,0.01-0.04,0.02-0.06,0.03L116.8,207.19C116.8,207.19,116.8,207.19,116.8,207.19z"/>
		<path class="st8" d="M138.48,128.22c4.21-0.16,8.28-0.32,11.89-0.47l1.39-0.06c2.07-0.09,3.94-0.17,5.57-0.24
			c1.17-0.05,2.21-0.1,3.09-0.15c1.29-0.07,2.26-0.12,2.79-0.16c0.33-0.03,0.65-0.08,1.01-0.17c0.76-0.18,1.38-0.5,1.83-0.93
			c1.3-1.26,1.27-2.96,1.05-3.78c-0.2-0.73-3.02-5.11-5.57-8.86c-1.3-2.44-3.09-2.06-3.95-1.88l-0.16,0.03
			c-0.14,0.03-0.29,0.05-0.43,0.07c0,0,0,0,0,0c0.02,0-1.05,0.28-3.15,0.67l-1.23,0.22c-0.43,0.07-0.88,0.15-1.37,0.23
			c-3.25,0.52-6.87,0.96-10.76,1.31c-0.65,0.06-1.33,0.12-2.03,0.17c-4.05,0.32-8.37,0.55-12.84,0.67l-2.85,0.06
			c-5.21,0.09-10.66,0.04-16.19-0.15l-0.03,0v1.04c2.36,0.04,6.83,0.14,8.61,0.23c2.13,0.11,2.33,1.41,2.34,1.47l0.98,7.55
			c0,0.01,0.16,0.41-0.09,0.78c-0.23,0.34-0.87,0.75-2.57,0.76h0c-0.07,0-6.83,0.06-9.26,0.01v2.79c2.59-0.09,6.89-0.25,12.03-0.44
			L138.48,128.22z M150.35,114.74c0.11-0.4,0.5-0.77,1.15-1.07c1.99-0.93,7.38-1.33,7.87-1.37c0.03,0,0.06,0,0.09,0
			c0.16,0.02,0.67,0.15,1.08,1.06c0.52,1.13,3.23,6.34,4.32,8.42c0.37,0.71,0.38,1.58-0.07,2.24c-0.28,0.42-0.73,0.76-1.44,0.8
			c-2.18,0.13-5.1,0.22-5.13,0.22l-0.06,0.01c-0.13,0.03-3.21,0.57-5.09-2.96C151.08,118.36,150.24,115.17,150.35,114.74z
			 M136.11,116.09c0.27-0.37,0.7-0.59,1.26-0.67c2.31-0.31,8.64-0.57,8.7-0.57c0,0,0,0,0,0c0.1,0,1.34,0.04,1.93,1.98
			c0.7,2.29,2.98,7.23,3.08,7.44c0,0.01,0.3,0.67,0.03,1.13c-0.18,0.3-0.57,0.47-1.18,0.52c-2.37,0.19-8.88,0.73-8.88,0.73
			c-0.15,0.03-1.95,0.53-2.5-0.96c-0.07-0.2-2.75-7.79-2.8-7.94c0,0,0,0,0,0C135.76,117.74,135.61,116.77,136.11,116.09z
			 M120.29,116.88c0.17-0.26,0.45-0.4,0.87-0.44c2.01-0.19,9.6-0.35,9.68-0.36l0.11-0.02c0,0,1.07-0.25,1.92,2.48
			c0.97,3.11,2.59,7.22,2.66,7.39c0,0,0,0,0,0c-0.01,0,0.01,0.24-0.17,0.47c-0.19,0.24-0.65,0.54-1.74,0.59
			c-2.55,0.13-9.68,0.43-9.68,0.43l0,0c-2.11,0.09-2.49-1.62-2.5-1.69l-1.17-7.11C120.14,118.28,119.95,117.39,120.29,116.88z"/>
		<path class="st9" d="M164.17,274.66c-4.84-0.17-8.58-2.63-9.09-4.33c-0.33-1.1-0.77-3.55-1.03-5.15
			c-3.61-0.21-7.99-1.18-12.09-3.76c-6.64-4.18-12.42-9.96-13.45-11.45c-0.26-0.38-0.39-0.78-0.44-1.18c0,0,0,0,0,0
			c-4.12,1.83-8.81,1.46-11.15-1.54c-2.34-3-1.19-6.12-1.19-6.12s1.15-4.72,0.38-5.99c-0.76-1.27-0.83-5.15-0.66-7.71
			c0.04-0.64,0.17-1.21,0.36-1.74c-3.02-1.84-3.19-8.37-2.93-13.31c0.13-2.54,1.79-4.3,3.87-5.17c-0.03,0-0.06,0-0.09-0.01
			c-1.49-0.25-2.72-1.23-3.3-2.61c-0.55-1.31-0.98-3-1.28-5.02l-0.14-0.92c-1.1-7.44-1.47-9.94-3.68-13.33
			c-0.55-0.85-1.15-2.12-1.74-3.62v56.58c0,25.33,14.72,43.39,36.76,43.39l35.9-4.23c-0.37-0.17-0.72-0.31-1.02-0.41
			C174.89,275.97,169.01,274.83,164.17,274.66z"/>
		<path class="st9" d="M113.37,198.44l0.14,0.92c0.28,1.9,0.68,3.47,1.18,4.67c0.37,0.88,1.14,1.5,2.07,1.71
			c-0.02-1.12,0-2.05,0.09-2.71c0.18-1.25,1.22-2.17,2.34-1.95c0.32,0.06,0.62,0.21,0.86,0.43c0.34,0.32,0.54,0.82,0.68,1.55
			c0.05-0.1,0.1-0.19,0.15-0.29c0.47-0.96,0.87-2.09,1.19-3.4c0.36-1.46,0.63-3.14,0.8-5.03c0.09-0.95,0.15-1.96,0.19-3.02
			c-0.29,0.57-0.99,0.35-1.19,0.28l-0.21-0.08c0,0,0.44-4.17-1.79-6.82c-2.23-2.65-6.26-8.49-7.29-12.3c-1.02-3.81-0.9-7.89,1-10.53
			c1.9-2.65,4.38-4.79,7.42-4.15c3.04,0.65,5.68,4.08,3.92,8.03c0,0-0.35,1.23-1.06,0.6s0.06-1.55,0.22-2.28
			c0.17-0.72,0.27-2.35-0.64-3.33c-1.2-1.29-2.35-2.14-4.96-1.59c-2.01,0.42-4.77,2.94-5.39,5.59c-0.62,2.65-0.61,5.28,0.2,7.31
			c0.81,2.03,2.03,4.53,2.9,5.85c0.87,1.32,2.64,4.29,3.84,5.16c1.2,0.87,2.6,1.6,2.82,2.84c0.08,0.43,0.17,0.78,0.26,1.12
			c-0.03-1.68-0.09-3.45-0.21-5.34c-0.04-0.6-0.07-1.03-0.07-1.25c-0.03-2.79,0.37-3.65,3.08-6.6c0.03-0.03,0.07-0.07,0.1-0.09
			c0,0,0.11-0.09,0.27-0.26c0.21-0.23,0.52-0.64,0.86-1.27c0.24-0.46,0.49-1.03,0.72-1.75c2.22-7.11,1.93-12.6-0.83-15.86
			c-0.34-0.4-0.72-0.76-1.13-1.09c0,0-0.01-0.01-0.01-0.01c-0.46-0.37-0.96-0.7-1.5-0.98c-2.28-1.18-5.26-1.6-8.6-1.14
			c-0.91,0.12-1.73,0.36-2.5,0.68c-3.58,1.51-5.64,4.9-6.77,7.63v17.36c0.9,3.2,2.02,6.05,2.95,7.47
			C111.85,188.19,112.26,190.98,113.37,198.44z"/>
		<path class="st6" d="M117.61,104.54c-0.15-0.33-0.29-0.65-0.42-0.98c-4.65-0.52-8.79,0.29-10.67,0.76v0.91
			C108.65,104.72,112.84,103.98,117.61,104.54z"/>
		<path class="st10" d="M113.3,78.21c0.02,0,0.03,0,0.05,0c1.56-0.57,2.84-1.53,2.86-1.54c0.03-0.03,0.07-0.05,0.11-0.07
			c0.75-0.39,1.67-1.49,1.85-2.51c0.09-0.52-0.01-0.94-0.32-1.28c-1.57-1.75-2.63-3.21-1.82-6.12c0.54-1.91,2.15-4.02,6.86-3.28
			c3.15,0.5,6.83,3.09,10.33,5.83c3.88,3.03,9.27,2.35,11.41,1.91c0.01,0,0.02,0,0.03-0.01c0,0,0,0,0.01,0
			c3.95-0.79,10.15,0.48,11.47,0.9c0.59,0.18,1.52-0.11,2.08-0.66c0.18-0.18,0.47-0.53,0.37-0.9c-0.34-1.19-2.06-2.45-4.72-3.46
			c-2.38-0.9-4.67-0.88-5.12-0.87c-4.54,1.27-12.22-2.24-14.33-5.12c-1.61-2.19-4.02-3.59-4.47-3.85c-0.42-0.08-0.87-0.21-1.35-0.34
			c-0.66-0.18-1.4-0.39-2.26-0.56c-0.22-0.04-0.51-0.1-0.84-0.16c-7.42,5.27-13.22,13.24-16.36,22.73c0.44-0.14,0.88-0.27,1.32-0.36
			C111.42,78.3,112.37,78.21,113.3,78.21z"/>
		<path class="st10" d="M129,55.39c1.58,0.44,2.16,0.55,2.57,0.14c0.55-0.57,0.95-1.93,0.95-3.34c0.49-0.21,1-0.41,1.5-0.59
			c-3.01,1.13-5.87,2.66-8.52,4.54c0.58-0.41,1.17-0.81,1.77-1.19C127.9,55.1,128.48,55.25,129,55.39z"/>
		<path class="st6" d="M117.69,83.05c0.18-0.21,0.34-0.43,0.53-0.62c-3.48-1.58-7.78-0.77-10.09-0.12c0.1-0.38,0.2-0.77,0.3-1.15
			c2.64-0.68,7.04-1.33,10.64,0.54c0.12-0.1,0.23-0.21,0.36-0.31c0.26-0.19,0.53-0.36,0.81-0.52c-1.51-0.69-3.43-1.36-5.55-1.57
			c-0.45-0.05-0.91-0.07-1.38-0.08c-1.16,0-2.29,0.16-3.37,0.46c-0.1,0.03-0.83,0.27-1.2,0.48c-0.31,1.02-0.59,2.05-0.83,3.1
			C110.15,82.65,114.08,81.93,117.69,83.05z"/>
		<path class="st7" d="M107.25,86.48c0.06-0.38,0.13-0.75,0.2-1.13C107.38,85.73,107.31,86.1,107.25,86.48z"/>
		<path class="st6" d="M116.52,84.71c0.15-0.27,0.31-0.54,0.48-0.8c-3.54-0.94-7.43-0.07-9.37,0.5c-0.07,0.31-0.13,0.63-0.19,0.94
			C109.42,84.79,112.98,84.05,116.52,84.71z"/>
		<path class="st7" d="M108.72,80.17c0.13-0.43,0.27-0.87,0.41-1.29C108.99,79.3,108.85,79.73,108.72,80.17z"/>
		<path class="st6" d="M116.06,100.44c-0.1-0.32-0.18-0.64-0.27-0.96c-4.07-0.29-7.67,0.5-9.27,0.93v0.9
			C108.36,100.83,111.95,100.13,116.06,100.44z"/>
		<path class="st7" d="M107.64,84.41c0.08-0.38,0.16-0.76,0.25-1.14C107.8,83.65,107.72,84.03,107.64,84.41z"/>
		<path class="st6" d="M114.84,94.41c-0.03-0.32-0.04-0.64-0.05-0.95c-3.68-0.16-6.94,0.67-8.25,1.07c0,0.22-0.01,0.44-0.01,0.66
			v0.23C108.09,94.97,111.24,94.26,114.84,94.41z"/>
		<path class="st6" d="M115.67,86.55c0.11-0.31,0.25-0.59,0.38-0.88c-3.54-0.56-7.13,0.31-8.8,0.81c-0.11,0.68-0.22,1.36-0.3,2.05
			c0.05-0.37,0.1-0.75,0.16-1.12C108.86,86.9,112.18,86.15,115.67,86.55z"/>
		<path class="st6" d="M115.5,98.42c-0.08-0.32-0.13-0.64-0.19-0.96c-3.87-0.22-7.29,0.57-8.78,0.98v0.9
			C108.25,98.88,111.63,98.19,115.5,98.42z"/>
		<path class="st6" d="M115.09,96.4c-0.05-0.32-0.08-0.63-0.13-0.95c-3.75-0.18-7.06,0.63-8.44,1.03v0.89
			C108.16,96.93,111.39,96.23,115.09,96.4z"/>
		<path class="st6" d="M114.75,92.42c0-0.32,0.01-0.64,0.03-0.95c-3.64-0.18-6.9,0.68-8.18,1.08c0.02-0.37,0.05-0.73,0.07-1.09
			c1.55-0.46,4.68-1.2,8.17-1.02c0.03-0.32,0.08-0.63,0.13-0.94c-3.6-0.24-6.91,0.64-8.23,1.05c0.03-0.37,0.08-0.73,0.12-1.1
			c-0.14,1.31-0.24,2.64-0.28,3.99C108.09,93,111.21,92.27,114.75,92.42z"/>
		<path class="st6" d="M115.12,88.48c0.07-0.32,0.16-0.61,0.25-0.92c-3.56-0.35-6.97,0.52-8.42,0.98c-0.04,0.3-0.07,0.61-0.1,0.92
			C108.46,88.97,111.65,88.22,115.12,88.48z"/>
		<path class="st11" d="M140.57,204.6c-0.02,0.11-0.04,0.22-0.06,0.33c-0.96,5.16-5.86,7.33-5.86,7.33s-0.08,0.04-0.19,0.1
			c-0.44,0.23-1.51,0.84-1.92,1.6c-0.19,0.35-0.25,0.72-0.05,1.11c0.35,0.67,1.19,0.84,2,0.84c0.97-0.01,1.89-0.27,1.89-0.27
			c0.28-0.09,0.57-0.23,0.85-0.4c1.79-1.08,3.67-3.72,5.27-6.33c0.21-0.35,0.4-0.74,0.58-1.14c0.39-0.92,0.69-1.96,0.9-3.01
			c0.51-2.56,0.51-5.18,0.11-6.26c-0.33-0.89-1.07-1-1.71-0.89c-0.81,0.14-1.4,0.85-1.4,1.67c0,0.46,0.04,1.07,0,1.98
			C140.93,202.07,140.83,203.15,140.57,204.6z"/>
		<path class="st11" d="M155.91,217.42c-0.59-1.11-2.34-1.44-3.58-0.13c-0.04,0.04-0.08,0.08-0.12,0.13
			c-0.23,0.27-0.61,0.71-1.09,1.24c-1.59,1.78-4.18,4.64-5.36,5.94c-0.39,0.42-0.63,0.69-0.63,0.69s-0.43,0.53-0.65,1.26
			c-0.09,0.3-0.15,0.63-0.12,0.97c0.1,1.18,0.77,2.23,1.88,1.78c0.25-0.1,0.48-0.22,0.67-0.33c0.49-0.29,0.77-0.56,0.77-0.56
			l0.67-0.72l5.16-5.54l1.13-1.21l0.95-1.01C155.59,219.94,156.51,218.57,155.91,217.42z"/>
		<path class="st12" d="M151.01,231.51c1.78,3.99,1.2,6.71,5.1,5.99c0.92-0.17,2.5-1.1,3.31-2.08c0.77-0.93,1.74-1.1,1.23-3.65
			c-0.51-2.55-4.75-6.12-4.75-6.12s-0.62-0.91-1.5-2.19l-5.1,5.46C150.14,230.01,150.74,230.91,151.01,231.51z"/>
		<path class="st12" d="M144.39,209.45c-1.06,2.49-2.52,4.06-4.66,5.62c-0.57,0.42-1.11,0.78-1.63,1.09
			c2.16,2.29,4.57,4.91,6.74,7.37c1.69-2.02,3.88-4.68,5.27-6.37c-0.57-0.83-1.03-1.52-1.3-1.92
			C148.27,214.44,146.4,212.02,144.39,209.45z"/>
		<path class="st6" d="M197.48,111.66c-5.63-7.42-14.67-10.52-17.74-11.4l0.17,1.38c2.67,0.54,11.24,2.98,17.53,12.58
			c6.87,10.49,11.37,21.05,12.44,24.46l1.17-0.14c0.68-0.08,1.32-0.31,1.89-0.66l-0.48,0.15C210.61,132,203.75,119.92,197.48,111.66
			z"/>
		<path class="st12" d="M127.99,206.74c0,0,2.88,2.29,3.9,3.08c0.16,0.13,0.73,0.68,1.56,1.52c0.97-0.67,4.6-3.39,5.15-6.59
			c0.15-0.89,0.19-1.71,0.15-2.43c-0.25-0.32-0.4-0.5-0.4-0.5s-7.46-7.71-9.53-8.85c-1.32-0.73-2.96-0.76-4.36,0.01
			c-0.2,3.01-0.65,6.08-1.55,8.67c0.04,0.1,0.09,0.21,0.13,0.31C123.81,203.72,127.99,206.74,127.99,206.74z"/>
		<path class="st13" d="M118.05,212.06c0.3,1.28,1.89,1.36,2.2,0.1c0-0.02,0.01-0.02,0.01-0.02c0.15-1.51-0.03-3.24-0.18-6.11
			c-0.14-2.88-0.32-3.51-1.22-3.75c-0.9-0.25-1.18,0.71-1.2,1.02c-0.09,1.81,0.05,5.26,0.18,7.27
			C117.88,211.2,117.96,211.69,118.05,212.06z"/>
		<path class="st13" d="M128.87,238.29c-0.29-0.57-0.75-1.03-1.26-1.41c-0.51-0.39-1.39-1.42-2.15-4.13
			c-0.06-0.22-0.1-0.45-0.1-0.67c-0.04-1.16-0.37-5.23-3.29-5.28c-0.03,0-0.07,0-0.1,0c-2.17-0.01-3.84,1.92-3.6,4.08
			c0.13,1.16,0.3,2.8,0.41,4.15c0.19,2.36,0,3.25-0.38,5.04c-0.22,1.04-1.02,1.57-0.96,4.59c0.05,2.32,1.98,2.68,3.51,2.61
			c1.53-0.06,1.27-1.59,1.12-2.74c-0.15-1.15,0.34-1.98,1.49-1.84c1.15,0.13,0.7,2.16,1.15,3.28c0.45,1.11,2.61,1.05,3.89,0
			c1.27-1.05,1.15-2.77,0.96-5.19C129.47,239.71,129.18,238.89,128.87,238.29z"/>
		<path class="st13" d="M124.13,223.89c0.78-0.68,1.22-1.6,1.22-2.58c-0.01-1.66-0.6-5.86-1.21-9.11c-0.54-2.88-2.33-3.23-2.33-3.23
			s-0.25-0.05-0.65-0.09l-0.03,0c0.1,3.52-0.36,5.01-1.7,5.14c-1.42,0.13-2.25,0.11-2.48-3.91c-0.01-0.12-0.01-0.24-0.02-0.36
			c-0.45,0.36-0.8,0.86-0.98,1.55c0,0-1.57,9.11,1.33,12.33c0.38,0.43,0.84,0.75,1.39,0.94
			C121.05,225.35,122.97,224.9,124.13,223.89z"/>
		<path class="st6" d="M110.15,113.57c3.11,0.07,6.18,0.1,9.18,0.08C115.85,113.18,112.64,113.29,110.15,113.57z"/>
		<path class="st14" d="M147,79.07c0.07,0.04,0.13,0.1,0.17,0.16c0.02,0.02,1.57,1.9,5.37,3.09c3.97,1.25,6.05,2.62,6.55,4.31
			c0.14,0.47,0.65,1.07,1.26,1.26c0.41,0.13,0.79,0.05,1.16-0.23c0.33-0.47,2.04-3.24-0.93-6.56c-0.08-0.09-0.13-0.2-0.16-0.31
			c-1.69-0.96-3.92-2.35-5.01-3.55c-0.19-0.21-0.24-0.49-0.16-0.74c0.04-0.12,0.11-0.24,0.21-0.33c0.31-0.28,0.79-0.26,1.07,0.05
			c1.66,1.83,6.71,4.37,6.74,4.39c4.52,2.1,10.96-1.07,12.83-2.09l0.05-0.03c0.1-0.05,0.33-0.2,0.35-0.36
			c0.02-0.24-0.29-0.76-1.21-1.44c-1.68-1.24-3.3-4.02-3.73-5.22c-0.36-1.01-1.53-2.57-2.46-2.62c-1.07,0.06-2.22-0.21-3.26-0.46
			c-0.3-0.07-0.61-0.15-0.91-0.21c-2.19-0.48-4.81-0.19-5.85,0.28c0.47,0.52,0.8,1.06,0.96,1.62c0.11,0.38,0.1,0.77,0,1.15
			c0.61,0.24,1.71,0.52,2.03,0.7c0.4,0.23,0.37,1.2-0.63,1.24c-0.6,0.02-1.58-0.33-2.26-0.61c-0.97,0.88-2.41,1.27-3.49,0.93
			c-1.54-0.48-6.84-1.44-10.26-0.93C145.2,73.89,144.81,77.62,147,79.07z"/>
		<path class="st6" d="M179.45,97.79l0.17,1.38c2.72,0.74,12.61,3.87,18.68,11.87c6.27,8.26,13.13,20.32,15.08,26.51
			c0.4-0.31,0.76-0.67,1.05-1.1c0.28-0.43,0.46-0.9,0.59-1.38c-2.71-8.26-10.64-20.09-16.61-26.53
			C192.9,102.63,182.72,98.89,179.45,97.79z"/>
		<path class="st14" d="M165.26,66.69c0.31,0.07,0.63,0.14,0.94,0.22c2.5,0.6,3.95,0.85,4.67-1.08c0.39-1.04,0.23-1.91-0.42-2.34
			c-0.37-0.24-0.84-0.27-1.05-0.06c-0.5,0.49-3.14,2.91-5.62,2c-2-0.73-4.96-1.23-7.93-1.34c-1.73-0.06-2.51,0.55-2.86,1.07
			c0.46,0.12,0.93,0.26,1.4,0.45c1.43,0.54,2.59,1.15,3.51,1.81C159.45,66.31,162.99,66.2,165.26,66.69z"/>
		<path class="st6" d="M199.14,107.86c5.27,5.68,11.76,15.05,15.29,22.95c-9.28-28.78-29.82-33.68-35.16-34.47l0.04,0.33
			C182.07,97.55,193.12,101.37,199.14,107.86z"/>
		<path class="st6" d="M154.79,105.73L154.79,105.73l13.5-1.62c0.55-0.07,1.03-0.34,1.37-0.77c0.34-0.43,0.49-0.97,0.43-1.52
			l-0.3-2.48l-0.17-1.39c-0.13-1.05-1.02-1.82-2.05-1.82c-0.08,0-0.16,0-0.25,0.01l-13.5,1.62c-1.13,0.14-1.94,1.16-1.8,2.29
			l0.03,0.28l0.43,3.59c0.07,0.55,0.34,1.03,0.77,1.37c0.07,0.06,0.15,0.1,0.23,0.15C153.89,105.68,154.33,105.78,154.79,105.73z"/>
		<path class="st6" d="M173.4,109.93c0.06,0.05,0.2,0.13,0.39,0.11h0l4.29-0.51c0.19-0.02,0.3-0.13,0.35-0.2
			c0.05-0.06,0.13-0.2,0.11-0.39l-2.15-17.91c-0.02-0.19-0.13-0.3-0.2-0.35c-0.06-0.04-0.17-0.11-0.33-0.11c-0.02,0-0.04,0-0.07,0
			l-4.29,0.51c-0.29,0.04-0.5,0.3-0.46,0.59l2.15,17.91C173.22,109.76,173.33,109.88,173.4,109.93z"/>
		<path class="st6" d="M135.88,96.62c-2.4,1.51-0.75,8.43,3.67,15.46c0.14,0.23,0.29,0.44,0.43,0.66c0.12-0.01,0.24-0.02,0.35-0.03
			c3.78-0.34,7.31-0.77,10.48-1.27c-0.71-1.56-1.57-3.18-2.6-4.81C143.81,99.6,138.28,95.12,135.88,96.62z"/>
		<path class="st15" d="M149.93,100.7L149.93,100.7c-0.84-1.81-1.85-3.63-3.04-5.4c-7.4-11.09-18.7-16.54-25.22-12.18
			c-0.5,0.33-0.94,0.73-1.35,1.15c-0.24,0.25-0.48,0.5-0.69,0.77c-0.13,0.16-0.23,0.34-0.35,0.51c-0.19,0.28-0.39,0.57-0.55,0.88
			c-0.12,0.22-0.21,0.46-0.32,0.7c-0.14,0.31-0.27,0.62-0.39,0.95c-0.09,0.26-0.17,0.53-0.25,0.81c-0.09,0.33-0.17,0.66-0.23,1
			c-0.06,0.28-0.12,0.57-0.16,0.86c-0.05,0.33-0.07,0.68-0.1,1.02c-0.02,0.3-0.06,0.6-0.07,0.91c-0.01,0.34,0,0.69,0.01,1.04
			c0.01,0.31,0,0.61,0.02,0.93c0.02,0.35,0.07,0.7,0.1,1.06c0.03,0.31,0.06,0.62,0.1,0.94c0.05,0.35,0.12,0.71,0.19,1.06
			c0.06,0.32,0.11,0.63,0.18,0.95c0.08,0.36,0.18,0.73,0.27,1.09c0.08,0.32,0.16,0.63,0.25,0.96c0.11,0.37,0.24,0.74,0.36,1.12
			c0.11,0.32,0.2,0.64,0.32,0.96c0.14,0.37,0.29,0.75,0.44,1.12c0.13,0.33,0.25,0.65,0.39,0.97c0.17,0.39,0.36,0.78,0.55,1.18
			c0.16,0.33,0.31,0.66,0.48,0.99c0.21,0.4,0.43,0.8,0.65,1.2c0.19,0.33,0.37,0.67,0.57,1c0.26,0.43,0.53,0.86,0.81,1.29
			c0.12,0.18,0.22,0.37,0.34,0.55c0.11,0.16,0.22,0.31,0.33,0.47c0.12,0.18,0.25,0.36,0.38,0.54c0.36,0.51,0.74,0.99,1.12,1.48
			l0.48-0.01c4.3-0.12,8.46-0.33,12.37-0.64c-0.17-0.24-0.35-0.48-0.52-0.73c-4.61-6.91-5.78-14.23-2.61-16.34s9.48,1.77,14.09,8.68
			c1.51,2.26,2.62,4.55,3.36,6.69c0.04-0.01,0.08-0.01,0.11-0.02l0.46-0.08c-0.11-1.27-0.3-2.58-0.62-3.93
			C151.7,105.07,150.94,102.89,149.93,100.7z"/>
		<polygon points="109.13,78.87 109.13,78.87 109.13,78.87 		"/>
		<polygon points="106.94,88.53 106.94,88.53 106.94,88.53 		"/>
		<polygon points="125.49,56.14 125.49,56.14 125.49,56.14 		"/>
		<polygon points="107.64,84.41 107.64,84.41 107.64,84.41 		"/>
		<polygon points="107.89,83.27 107.89,83.27 107.89,83.27 		"/>
		<polygon points="108.72,80.17 108.72,80.17 108.72,80.17 		"/>
		<polygon points="107.25,86.48 107.25,86.48 107.25,86.48 		"/>
		<polygon points="107.45,85.35 107.45,85.35 107.45,85.35 		"/>
		<polygon points="106.84,89.45 106.84,89.46 106.84,89.45 		"/>
		<path class="st9" d="M202.18,200.89c0-6.82-3.38-16.13-4.14-18.48c-0.76-2.36-4.02-11.03-6.99-20.33
			c-2.97-9.31-8.06-15.62-10.22-17.97c-2.17-2.36-13.64-13.32-13.64-13.32l-2.34-2.63c-0.11,0.03-0.21,0.07-0.33,0.1
			c-0.43,0.1-0.82,0.17-1.22,0.2c-0.44,0.04-1.19,0.08-2.16,0.13l12.84,11.5c0,0,8.82,9.62,10.79,11.86
			c1.98,2.23,2.68,7.27,3.12,10.71c0.45,3.44,3.25,7.9,2.93,9.37c-0.32,1.47-1.34,0.7-1.34,0.7c-0.89-0.76-3.06-6.25-3.57-8.41
			c-0.51-2.17-0.51-4.84-1.66-8.92c-1.15-4.08-7.14-9.69-8.41-10.71c-1.27-1.02-7.52-7.27-10.07-9.94
			c-1.87-1.96-5.65-4.69-7.53-6.01c-0.29,0.01-0.56,0.03-0.87,0.04c-1.6,0.07-3.44,0.15-5.47,0.24c0.07,0.87-0.25,2.21-2.17,3.65
			c-1.34,1.01-3.48,1.84-5.68,1.84c-0.79,0-1.59-0.11-2.37-0.35c-0.5-0.16-1.06-0.41-1.62-0.77c1.38,3.97,3.11,9.34,3.66,12.77
			c0.38,1.98,1.12,6.73-0.22,7.97c-0.61,0.57-1.63,1.04-2.74,1.04c-0.4,0-0.81-0.06-1.22-0.2c-0.56-0.19-1.18-0.57-1.77-1.27
			c0.38,4.01,0.75,8.99,0.68,12.7c-0.12,6.33-0.79,9.76-4.02,9.76c-0.74,0-1.96-0.07-3.63-0.21c-1.32-0.11-2.53-0.63-3.51-1.41
			c-0.16,0.17-0.29,0.29-0.37,0.35c-2.52,2.75-2.68,3.27-2.66,5.56c0,0.21,0.03,0.61,0.06,1.17c0.11,1.75,0.31,4.85,0.25,8.33
			c1.85-0.39,4.01-0.32,5.87,1.13c2.08,1.62,4.9,4.28,7.64,7.12c0.08-0.45,0.27-0.88,0.57-1.24c0.3-0.35,0.69-0.67,1.2-0.86
			c1.66-0.64,7.27-1.15,6.25,6.25c-0.22,1.61-0.48,2.99-0.78,4.2c0.33,0.45,0.65,0.89,0.9,1.28c1.29,1.97,3.27,5.06,5.06,7.89
			c0.11-0.13,0.17-0.21,0.17-0.21c0.41-0.43,0.93-0.75,1.51-0.89c1.35-0.33,3.77-0.61,4.51,1.32c0.63,1.64,0.5,2.84,0.3,3.53
			c-0.11,0.37-0.3,0.7-0.57,0.98l-1.75,1.87c0,0,3.34,3.27,5.21,5.05c1.87,1.78,3.57,4.93,2.55,7.05s-3.06,3.18-4.67,4.57
			c-1.61,1.38-4.08,2.32-5.86,1.47c-1.78-0.85-1.95-1.78-2.12-4.03c0,0,0.05-3.66-2.42-6.27l-0.93,0.99c0,0-1.15,1.15-1.78,1.24
			c-0.64,0.1-2.52-0.57-3.19-1.59c-0.67-1.02-1.31-2.74,0.64-4.97c0.12-0.14,0.26-0.3,0.42-0.49c-2.27-2.42-4.99-5.39-7.49-8.01
			c-1.74,0.68-3.11,0.67-4.11,0.05c-1.25-0.77-1.82-3.05-0.49-4.62c-0.44-0.4-0.85-0.75-1.21-1.03c-2.85-2.21-6.06-4.94-8.19-7.62
			c-0.26,0.46-0.55,0.89-0.86,1.29c0.01,0.15,0.02,0.31,0.03,0.47c0.02,0.27,0.04,0.54,0.06,0.84c1.11,0.19,2.13,0.63,2.92,1.36
			c2.96,2.74,3.16,10.67,3.16,10.67c0.01,1.98-0.19,3.67-0.37,4.79c-0.13,0.79-0.64,1.44-1.35,1.76c0.44,0.64,0.78,1.36,1.01,2.09
			c0.72,2.24,1.9,5.89,2.16,6.76c0.38,1.27,2.83,3.49,3,6.12c0.16,2.53,0.45,5.48-1.79,7.46c0.11,0.14,0.23,0.3,0.35,0.49
			c0.51,0.76,1.32,1.56,6.88,5.74c5.55,4.18,7.64,6.69,15.94,7.26c8.4,0.58,9.65,0.18,12.22-3.37c2.58-3.55,2.29-5.1,2.58-6.76
			c0.11-0.66,0.3-0.91,0.53-1.72c0.07,0,0.23-0.21,0.34-0.31c0.02-0.07,0.06-0.13,0.08-0.21c0.72-0.44,1.34-0.85,1.68-1.17
			c1.33-1.23,2.99-1.88,5.01-0.65c2.02,1.22,4.04,1.18,5.65,0.67c0.19-0.09,0.43-0.25,0.68-0.43c-0.03-0.02,0.48-0.6,0.51-0.65
			c0.55-0.85,1-1.94,0.94-3.78c-0.06-1.86-2.73-3.09-2.96-3.19c-0.6-0.03-1.26,0.01-2.02,0.18c-2.38,0.52-4.01-0.41-4.83-1.29
			c-0.82-0.89-0.21-1.78-0.21-1.78l0.29-0.33c0,0-0.98,2.08,1.47,2.55c1.63,0.31,3.66-0.06,5.24-0.17c-0.01,0-0.03,0-0.03,0
			s2.65-1.77,4.71-3.19c2.35-1.61,3.35-4.32,1.86-6.16c-2.43-3.02-2.57-4.57-1.37-6.52c0.58-0.94,1.59-1.55,2.55-1.94
			c0,0,0.01-0.01,0.01-0.01c0.07-0.03,0.14-0.05,0.21-0.08c0.02-0.01,0.04-0.02,0.06-0.02c0.65-0.26,1.22-0.41,1.79-0.48
			c0.02,0,0.04-0.01,0.04-0.01v0c1.04-0.12,2.14-0.01,3.91,0.1C203.2,221.03,202.18,207.71,202.18,200.89z M150.33,151.58
			c1.27-2.29,5.61-5.74,12.24-6.76c6.63-1.02,12.11,1.02,14.79,2.29c2.32,1.1,0.84,2.55,0.76,2.57c0,0-0.96,0.29-2.1-0.66
			c-1.15-0.96-8.54-3.57-14.41-2.04c-5.86,1.53-9.05,3.38-9.94,5.1c-0.89,1.72-1.66,5.16-1.59,6.18c0.06,1.02-1.36,1.66-1.27,0.57
			C148.8,158.85,149.06,153.88,150.33,151.58z M188.01,215.79c-1.61-0.2-4.52,0.18-5.52,0.96c-0.99,0.78-3.85,2.3-5.65,1.68
			c-1.81-0.62-3.51-1.5-4.37-3.69c-0.18-0.46-0.29-0.86-0.38-1.22l-0.01,0c-0.75-2.33-0.6-4.95-0.41-6.47
			c0.03-0.38,0.09-0.76,0.18-1.13c0.02-0.1,0.03-0.16,0.03-0.16l0.01,0c0.22-0.86,0.62-1.68,1.29-2.29c2.49-2.25,2.22,0.37,1.5,1.11
			c-0.34,0.35-0.86,0.8-1.29,1.56c-0.13,0.29-1.09,2.49-0.68,4.89c0.01,0.02,0.03,0.02,0.04,0.04c0,0,0.02,0.21,0.08,0.52
			c0.09,0.35,0.16,0.65,0.21,0.9c0.19,0.68,0.5,1.46,1,2.08c1.08,1.33,4.41,2.58,7.22,1.1c2.81-1.48,5.95-0.95,7.14-0.67
			c1.18,0.29,0.87,0.6,0.87,0.6S189.62,215.99,188.01,215.79z"/>
		<path class="st4" d="M145.14,225.29c0,0-0.43,0.53-0.65,1.26c-0.09,0.3-0.15,0.63-0.12,0.97c0.1,1.18,0.77,2.23,1.88,1.78
			c0.25-0.1,0.48-0.22,0.67-0.33c0.49-0.29,0.77-0.56,0.77-0.56l0.67-0.72l5.16-5.54l1.13-1.21l0.95-1.01c0,0,0.92-1.37,0.32-2.52
			c-0.59-1.11-2.34-1.44-3.58-0.13c-0.04,0.04-0.08,0.08-0.12,0.13c-0.23,0.27-0.61,0.71-1.09,1.24c-1.59,1.78-4.18,4.64-5.36,5.94
			C145.38,225.03,145.14,225.29,145.14,225.29z"/>
		<path class="st4" d="M149.31,228.91c0.83,1.09,1.43,1.99,1.7,2.6c1.78,3.99,1.2,6.71,5.1,5.99c0.92-0.17,2.5-1.1,3.31-2.08
			c0.77-0.93,1.74-1.1,1.23-3.65c-0.51-2.55-4.75-6.12-4.75-6.12s-0.62-0.91-1.5-2.19L149.31,228.91z"/>
		<path class="st4" d="M116.8,207.19c-0.02,0.01-0.04,0.02-0.06,0.03L116.8,207.19C116.8,207.19,116.8,207.19,116.8,207.19z"/>
		<path class="st4" d="M128.87,238.29c-0.29-0.57-0.75-1.03-1.26-1.41c-0.51-0.39-1.39-1.42-2.15-4.13c-0.06-0.22-0.1-0.45-0.1-0.67
			c-0.04-1.16-0.37-5.23-3.29-5.28c-0.03,0-0.07,0-0.1,0c-2.17-0.01-3.84,1.92-3.6,4.08c0.13,1.16,0.3,2.8,0.41,4.15
			c0.19,2.36,0,3.25-0.38,5.04c-0.22,1.04-1.02,1.57-0.96,4.59c0.05,2.32,1.98,2.68,3.51,2.61c1.53-0.06,1.27-1.59,1.12-2.74
			c-0.15-1.15,0.34-1.98,1.49-1.84c1.15,0.13,0.7,2.16,1.15,3.28c0.45,1.11,2.61,1.05,3.89,0c1.27-1.05,1.15-2.77,0.96-5.19
			C129.47,239.71,129.18,238.89,128.87,238.29z"/>
		<path class="st4" d="M124.13,223.89c0.78-0.68,1.22-1.6,1.22-2.58c-0.01-1.66-0.6-5.86-1.21-9.11c-0.54-2.88-2.33-3.23-2.33-3.23
			s-0.25-0.05-0.65-0.09l-0.03,0c0.1,3.52-0.36,5.01-1.7,5.14c-1.42,0.13-2.25,0.11-2.48-3.91c-0.01-0.12-0.01-0.24-0.02-0.36
			c-0.45,0.36-0.8,0.86-0.98,1.55c0,0-1.57,9.11,1.33,12.33c0.38,0.43,0.84,0.75,1.39,0.94
			C121.05,225.35,122.97,224.9,124.13,223.89z"/>
		<path class="st4" d="M139.73,215.07c-0.57,0.42-1.11,0.78-1.63,1.09c2.16,2.29,4.57,4.91,6.74,7.37c1.69-2.02,3.88-4.68,5.27-6.37
			c-0.57-0.83-1.03-1.52-1.3-1.92c-0.53-0.8-2.4-3.22-4.41-5.79C143.33,211.94,141.87,213.51,139.73,215.07z"/>
		<path class="st4" d="M134.65,212.26c0,0-0.08,0.04-0.19,0.1c-0.44,0.23-1.51,0.84-1.92,1.6c-0.19,0.35-0.25,0.72-0.05,1.11
			c0.35,0.67,1.19,0.84,2,0.84c0.97-0.01,1.89-0.27,1.89-0.27c0.28-0.09,0.57-0.23,0.85-0.4c1.79-1.08,3.67-3.72,5.27-6.33
			c0.21-0.35,0.4-0.74,0.58-1.14c0.39-0.92,0.69-1.96,0.9-3.01c0.51-2.56,0.51-5.18,0.11-6.26c-0.33-0.89-1.07-1-1.71-0.89
			c-0.81,0.14-1.4,0.85-1.4,1.67c0,0.46,0.04,1.07,0,1.98c-0.04,0.82-0.14,1.9-0.4,3.35c-0.02,0.11-0.04,0.22-0.06,0.33
			C139.56,210.09,134.65,212.26,134.65,212.26z"/>
		<path class="st4" d="M127.99,206.74c0,0,2.88,2.29,3.9,3.08c0.16,0.13,0.73,0.68,1.56,1.52c0.97-0.67,4.6-3.39,5.15-6.59
			c0.15-0.89,0.19-1.71,0.15-2.43c-0.25-0.32-0.4-0.5-0.4-0.5s-7.46-7.71-9.53-8.85c-1.32-0.73-2.96-0.76-4.36,0.01
			c-0.2,3.01-0.65,6.08-1.55,8.67c0.04,0.1,0.09,0.21,0.13,0.31C123.81,203.72,127.99,206.74,127.99,206.74z"/>
		<path class="st4" d="M118.05,212.06c0.3,1.28,1.89,1.36,2.2,0.1c0-0.02,0.01-0.02,0.01-0.02c0.15-1.51-0.03-3.24-0.18-6.11
			c-0.14-2.88-0.32-3.51-1.22-3.75c-0.9-0.25-1.18,0.71-1.2,1.02c-0.09,1.81,0.05,5.26,0.18,7.27
			C117.88,211.2,117.96,211.69,118.05,212.06z"/>
		<path class="st16" d="M107.45,85.35C107.45,85.35,107.45,85.35,107.45,85.35c-0.07,0.38-0.14,0.75-0.2,1.13c0,0,0,0,0,0
			C107.31,86.1,107.38,85.73,107.45,85.35z"/>
		<path class="st16" d="M134.01,51.6c0,0-0.01,0-0.01,0C134.01,51.6,134.01,51.6,134.01,51.6C134.01,51.6,134.01,51.6,134.01,51.6z"
			/>
		<path class="st16" d="M108.73,80.15c0,0.01,0,0.01-0.01,0.02c0,0,0,0,0,0C108.72,80.16,108.72,80.16,108.73,80.15z"/>
		<path class="st16" d="M107.1,87.41c-0.06,0.37-0.11,0.74-0.16,1.12c0,0,0,0,0,0C106.99,88.16,107.05,87.79,107.1,87.41z"/>
		<path class="st16" d="M240.47,58.84c-33.62-7.23-94.05-9.51-94.05-9.51c-4.33,0-8.5,0.8-12.41,2.27c0.12,1.92-0.39,3.98-1.36,4.99
			c-0.12,0.12-0.25,0.23-0.37,0.31c1.03,0.74,2.32,1.84,3.36,3.25c1.8,2.45,8.93,5.68,12.78,4.54c0.06-0.02,0.11-0.03,0.17-0.03
			c0.07,0,1.14-0.06,2.63,0.15c0.14,0.02,0.27-0.05,0.34-0.17c0.55-1.03,1.84-2.14,4.36-2.05c4.5,0.16,7.37,1.06,8.4,1.43
			c1.35,0.49,3.17-0.81,4.04-1.66c0.72-0.71,1.96-0.76,2.94-0.13c1,0.65,1.77,2.07,1.01,4.14c-0.25,0.68-0.58,1.19-0.96,1.56
			c-0.14,0.13-0.14,0.34,0,0.47c0.84,0.81,1.43,1.89,1.67,2.55c0.37,1.03,1.87,3.53,3.21,4.52c1.29,0.95,1.88,1.86,1.82,2.76
			c-0.04,0.65-0.45,1.21-1.13,1.59l-0.05,0.03c-2.4,1.31-8.2,4-13.05,2.55c-0.26-0.08-0.5,0.15-0.41,0.4
			c1.2,3.29-0.7,5.82-0.72,5.85c-0.03,0.04-0.07,0.08-0.12,0.12c-0.78,0.65-1.72,0.85-2.64,0.57c-1.04-0.32-1.97-1.26-2.27-2.28
			c-0.19-0.64-1.15-1.91-5.55-3.29c-3.82-1.2-5.62-3.04-6.02-3.49c-2.4-1.67-2.47-5.06-2.27-7.03c0.02-0.21-0.15-0.38-0.36-0.35
			c-2.83,0.36-7.53,0.39-11.16-2.45c-3.18-2.48-6.81-5.08-9.63-5.53c-4.37-0.69-4.97,1.48-5.17,2.19c-0.62,2.22,0.08,3.14,1.48,4.69
			c0.63,0.7,0.86,1.58,0.69,2.57c-0.28,1.55-1.53,2.97-2.59,3.55c-0.12,0.09-0.43,0.31-0.88,0.58c1.98,0.38,3.72,1.07,5.07,1.75
			c0.08,0.04,0.16,0.04,0.24,0.01c7.36-3.01,18.84,2.04,26.53,12.73c0.93,1.29,1.73,2.59,2.43,3.89c0.11,0.2,0.37,0.22,0.53,0.05
			c0.66-0.71,1.55-1.19,2.58-1.32l13.5-1.62c0.57-0.07,1.13-0.01,1.65,0.15c0.22,0.06,0.43-0.12,0.4-0.35l-0.18-1.54
			c-0.2-1.66,0.98-3.16,2.64-3.36l3.97-0.48c0.72-0.09,1.42,0.11,1.99,0.56c0.57,0.45,0.93,1.08,1.01,1.8l0.37,3.09
			c0.02,0.15,0.13,0.26,0.28,0.28c2.31,0.28,7.93,1.33,14.4,5.12c3.3,1.93,7.09,4.77,10.78,8.91l1.86-0.2l6.51-0.83
			c4.34-0.53,8.68-1.01,13.03-1.43c4.35-0.41,8.71-0.81,13.06-1c2.18-0.09,4.36-0.14,6.51,0.01c2.14,0.15,4.28,0.52,6.13,1.54
			c1.44,1.12,2.72,2.51,3.99,3.88l3.8,4.19c2.55,2.79,5.15,5.52,7.82,8.2c0.98,0.97,1.96,1.93,2.95,2.89l0.41-22.8
			C270.44,78.44,263.49,63.79,240.47,58.84z"/>
		<path d="M132.71,52.11c0,0-0.01,0.01-0.01,0.01c0.43-0.18,0.87-0.35,1.31-0.52C133.57,51.76,133.13,51.93,132.71,52.11z"/>
		<path d="M127.14,55.03c-0.55,0.35-1.1,0.72-1.64,1.1c0.54-0.38,1.09-0.75,1.65-1.11C127.15,55.03,127.14,55.03,127.14,55.03z"/>
		<path d="M106.84,89.46c-0.04,0.37-0.09,0.73-0.12,1.1c0.03-0.37,0.08-0.74,0.12-1.11C106.84,89.45,106.84,89.46,106.84,89.46z"/>
		<path d="M109.08,79.03c-0.12,0.37-0.24,0.74-0.35,1.12C108.84,79.78,108.96,79.4,109.08,79.03
			C109.08,79.03,109.08,79.03,109.08,79.03z"/>
		<path d="M107.89,83.27c-0.01,0.02-0.01,0.04-0.01,0.06C107.88,83.31,107.88,83.29,107.89,83.27
			C107.89,83.27,107.89,83.27,107.89,83.27z"/>
		<path d="M108.38,81.34c-0.09,0.32-0.17,0.64-0.25,0.97C108.21,81.98,108.3,81.66,108.38,81.34
			C108.38,81.33,108.38,81.34,108.38,81.34z"/>
		<path class="st4" d="M124.13,223.89c0.78-0.68,1.22-1.6,1.22-2.58c-0.01-1.66-0.6-5.86-1.21-9.11c-0.54-2.88-2.33-3.23-2.33-3.23
			s-0.25-0.05-0.65-0.09l-0.03,0c0.1,3.52-0.36,5.01-1.7,5.14c-1.42,0.13-2.25,0.11-2.48-3.91c-0.01-0.12-0.01-0.24-0.02-0.36
			c-0.45,0.36-0.8,0.86-0.98,1.55c0,0-1.57,9.11,1.33,12.33c0.38,0.43,0.84,0.75,1.39,0.94
			C121.05,225.35,122.97,224.9,124.13,223.89z"/>
		<path class="st4" d="M118.05,212.06c0.3,1.28,1.89,1.36,2.2,0.1c0-0.02,0.01-0.02,0.01-0.02c0.15-1.51-0.03-3.24-0.18-6.11
			c-0.14-2.88-0.32-3.51-1.22-3.75c-0.9-0.25-1.18,0.71-1.2,1.02c-0.09,1.81,0.05,5.26,0.18,7.27
			C117.88,211.2,117.96,211.69,118.05,212.06z"/>
		<path class="st4" d="M152.24,111.21c0.04-0.01,0.08-0.01,0.11-0.02l0.46-0.08c-0.01-0.1-0.02-0.21-0.03-0.31l-2.83-4.55
			C150.94,107.93,151.69,109.61,152.24,111.21z"/>
		<path class="st4" d="M128.87,238.29c-0.29-0.57-0.75-1.03-1.26-1.41c-0.51-0.39-1.39-1.42-2.15-4.13c-0.06-0.22-0.1-0.45-0.1-0.67
			c-0.04-1.16-0.37-5.23-3.29-5.28c-0.03,0-0.07,0-0.1,0c-2.17-0.01-3.84,1.92-3.6,4.08c0.13,1.16,0.3,2.8,0.41,4.15
			c0.19,2.36,0,3.25-0.38,5.04c-0.22,1.04-1.02,1.57-0.96,4.59c0.05,2.32,1.98,2.68,3.51,2.61c1.53-0.06,1.27-1.59,1.12-2.74
			c-0.15-1.15,0.34-1.98,1.49-1.84c1.15,0.13,0.7,2.16,1.15,3.28c0.45,1.11,2.61,1.05,3.89,0c1.27-1.05,1.15-2.77,0.96-5.19
			C129.47,239.71,129.18,238.89,128.87,238.29z"/>
		<path class="st4" d="M145.14,225.29c0,0-0.43,0.53-0.65,1.26c-0.09,0.3-0.15,0.63-0.12,0.97c0.1,1.18,0.77,2.23,1.88,1.78
			c0.25-0.1,0.48-0.22,0.67-0.33c0.49-0.29,0.77-0.56,0.77-0.56l0.67-0.72l5.16-5.54l1.13-1.21l0.95-1.01c0,0,0.92-1.37,0.32-2.52
			c-0.59-1.11-2.34-1.44-3.58-0.13c-0.04,0.04-0.08,0.08-0.12,0.13c-0.23,0.27-0.61,0.71-1.09,1.24c-1.59,1.78-4.18,4.64-5.36,5.94
			C145.38,225.03,145.14,225.29,145.14,225.29z"/>
		<path class="st4" d="M139.73,215.07c-0.57,0.42-1.11,0.78-1.63,1.09c2.16,2.29,4.57,4.91,6.74,7.37c1.69-2.02,3.88-4.68,5.27-6.37
			c-0.57-0.83-1.03-1.52-1.3-1.92c-0.53-0.8-2.4-3.22-4.41-5.79C143.33,211.94,141.87,213.51,139.73,215.07z"/>
		<path class="st4" d="M165.26,66.69c0.31,0.07,0.63,0.14,0.94,0.22c2.5,0.6,3.95,0.85,4.67-1.08c0.39-1.04,0.23-1.91-0.42-2.34
			c-0.37-0.24-0.84-0.27-1.05-0.06c-0.5,0.49-3.14,2.91-5.62,2c-2-0.73-4.96-1.23-7.93-1.34c-1.73-0.06-2.51,0.55-2.86,1.07
			c0.46,0.12,0.93,0.26,1.4,0.45c1.43,0.54,2.59,1.15,3.51,1.81C159.45,66.31,162.99,66.2,165.26,66.69z"/>
		<path class="st4" d="M116.8,207.19c-0.02,0.01-0.04,0.02-0.06,0.03L116.8,207.19C116.8,207.19,116.8,207.19,116.8,207.19z"/>
		<path class="st4" d="M149.31,228.91c0.83,1.09,1.43,1.99,1.7,2.6c1.78,3.99,1.2,6.71,5.1,5.99c0.92-0.17,2.5-1.1,3.31-2.08
			c0.77-0.93,1.74-1.1,1.23-3.65c-0.51-2.55-4.75-6.12-4.75-6.12s-0.62-0.91-1.5-2.19L149.31,228.91z"/>
		<path class="st4" d="M134.65,212.26c0,0-0.08,0.04-0.19,0.1c-0.44,0.23-1.51,0.84-1.92,1.6c-0.19,0.35-0.25,0.72-0.05,1.11
			c0.35,0.67,1.19,0.84,2,0.84c0.97-0.01,1.89-0.27,1.89-0.27c0.28-0.09,0.57-0.23,0.85-0.4c1.79-1.08,3.67-3.72,5.27-6.33
			c0.21-0.35,0.4-0.74,0.58-1.14c0.39-0.92,0.69-1.96,0.9-3.01c0.51-2.56,0.51-5.18,0.11-6.26c-0.33-0.89-1.07-1-1.71-0.89
			c-0.81,0.14-1.4,0.85-1.4,1.67c0,0.46,0.04,1.07,0,1.98c-0.04,0.82-0.14,1.9-0.4,3.35c-0.02,0.11-0.04,0.22-0.06,0.33
			C139.56,210.09,134.65,212.26,134.65,212.26z"/>
		<path class="st4" d="M147,79.07c0.07,0.04,0.13,0.1,0.17,0.16c0.02,0.02,1.57,1.9,5.37,3.09c3.97,1.25,6.05,2.62,6.55,4.31
			c0.14,0.47,0.65,1.07,1.26,1.26c0.41,0.13,0.79,0.05,1.16-0.23c0.33-0.47,2.04-3.24-0.93-6.56c-0.08-0.09-0.13-0.2-0.16-0.31
			c-1.69-0.96-3.92-2.35-5.01-3.55c-0.19-0.21-0.24-0.49-0.16-0.74c0.04-0.12,0.11-0.24,0.21-0.33c0.31-0.28,0.79-0.26,1.07,0.05
			c1.66,1.83,6.71,4.37,6.74,4.39c4.52,2.1,10.96-1.07,12.83-2.09l0.05-0.03c0.1-0.05,0.33-0.2,0.35-0.36
			c0.02-0.24-0.29-0.76-1.21-1.44c-1.68-1.24-3.3-4.02-3.73-5.22c-0.36-1.01-1.53-2.57-2.46-2.62c-1.07,0.06-2.22-0.21-3.26-0.46
			c-0.3-0.07-0.61-0.15-0.91-0.21c-2.19-0.48-4.81-0.19-5.85,0.28c0.47,0.52,0.8,1.06,0.96,1.62c0.11,0.38,0.1,0.77,0,1.15
			c0.61,0.24,1.71,0.52,2.03,0.7c0.4,0.23,0.37,1.2-0.63,1.24c-0.6,0.02-1.58-0.33-2.26-0.61c-0.97,0.88-2.41,1.27-3.49,0.93
			c-1.54-0.48-6.84-1.44-10.26-0.93C145.2,73.89,144.81,77.62,147,79.07z"/>
		<path class="st4" d="M127.99,206.74c0,0,2.88,2.29,3.9,3.08c0.16,0.13,0.73,0.68,1.56,1.52c0.97-0.67,4.6-3.39,5.15-6.59
			c0.15-0.89,0.19-1.71,0.15-2.43c-0.25-0.32-0.4-0.5-0.4-0.5s-7.46-7.71-9.53-8.85c-1.32-0.73-2.96-0.76-4.36,0.01
			c-0.2,3.01-0.65,6.08-1.55,8.67c0.04,0.1,0.09,0.21,0.13,0.31C123.81,203.72,127.99,206.74,127.99,206.74z"/>
		<path class="st17" d="M269.23,170.72l0.81-45.31c-0.99-0.96-1.98-1.92-2.95-2.89c-2.66-2.68-5.27-5.41-7.82-8.2l-3.8-4.19
			c-1.27-1.37-2.55-2.75-3.99-3.88c-1.85-1.02-3.99-1.4-6.13-1.54c-2.16-0.15-4.34-0.1-6.51-0.01c-4.36,0.19-8.71,0.58-13.06,1
			c-4.35,0.42-8.69,0.91-13.03,1.43l-6.51,0.83l-1.86,0.2l0,0c4.85,5.42,9.53,13.07,12.71,23.83c0.75,2.52-0.03,5.3-2.13,7.12
			c-1.09,0.94-2.49,1.45-3.92,1.62l-3.04,0.36c-0.28,0.03-0.55,0.05-0.83,0.05c-2.83,0-5.39-1.74-6.4-4.45
			c-2.33-6.22-10.35-25.77-19.65-27.92c-0.21-0.05-0.39,0.12-0.39,0.34c-0.02,0.56-0.22,1.1-0.57,1.55
			c-0.45,0.57-1.08,0.93-1.8,1.01l-4.29,0.51c-0.11,0.01-0.22,0.02-0.33,0.02c-0.6,0-1.18-0.2-1.66-0.58
			c-0.57-0.45-0.93-1.09-1.01-1.8l-0.46-3.86c-0.03-0.23-0.28-0.36-0.47-0.24c-0.48,0.28-1.01,0.46-1.57,0.53l-13.5,1.62
			c-0.17,0.02-0.34,0.03-0.51,0.03c-0.25,0-0.5-0.03-0.74-0.07c0.06,0.92,0.04,1.81-0.02,2.68c-0.01,0.22,0.18,0.38,0.39,0.34
			c1.67-0.32,2.53-0.55,2.54-0.55c0.2-0.03,0.32-0.05,0.44-0.07l0.14-0.03c0.9-0.19,3.63-0.76,5.36,2.49
			c0.86,1.26,5.37,7.92,5.72,9.2c0.35,1.29,0.23,3.29-1.18,4.84c-0.11,0.13-0.12,0.31,0,0.43c2.24,2.2,6.56,6.42,8.04,7.81
			c2.04,1.91,14.79,12.96,17.93,23.07c0,0,1.83,5.43,3.81,11.35l3.91-1.67c0,0,9.84-4.71,19.96-4.13
			c10.12,0.58,18.61,15.23,18.61,15.23l12.34,21.4c4.68,5.57,12.95,4.32,12.95,4.32l3.9-0.29l0.28-15.75c-2.43,0-4.18,0-4.18,0v0.56
			c0,0-1.12,2.1-1.54,3.51c-0.42,1.4-1.82,1.26-1.82,1.26s-1.26,0-3.93,0c-2.67,0-2.24-2.24-2.24-2.24s0-25.67,0-27.5
			c0-1.82,2.24-1.82,2.24-1.82s2.18-0.03,3.58,0.14c1.33,0.16,1.19,4.17,1.47,4.49c0.97,1.1,2.24,2.81,2.24,2.81v0.98H269.23z"/>
		<path class="st4" d="M127.99,206.74c0,0,2.88,2.29,3.9,3.08c0.16,0.13,0.73,0.68,1.56,1.52c0.97-0.67,4.6-3.39,5.15-6.59
			c0.15-0.89,0.19-1.71,0.15-2.43c-0.25-0.32-0.4-0.5-0.4-0.5s-7.46-7.71-9.53-8.85c-1.32-0.73-2.96-0.76-4.36,0.01
			c-0.2,3.01-0.65,6.08-1.55,8.67c0.04,0.1,0.09,0.21,0.13,0.31C123.81,203.72,127.99,206.74,127.99,206.74z"/>
		<path class="st4" d="M134.65,212.26c0,0-0.08,0.04-0.19,0.1c-0.44,0.23-1.51,0.84-1.92,1.6c-0.19,0.35-0.25,0.72-0.05,1.11
			c0.35,0.67,1.19,0.84,2,0.84c0.97-0.01,1.89-0.27,1.89-0.27c0.28-0.09,0.57-0.23,0.85-0.4c1.79-1.08,3.67-3.72,5.27-6.33
			c0.21-0.35,0.4-0.74,0.58-1.14c0.39-0.92,0.69-1.96,0.9-3.01c0.51-2.56,0.51-5.18,0.11-6.26c-0.33-0.89-1.07-1-1.71-0.89
			c-0.81,0.14-1.4,0.85-1.4,1.67c0,0.46,0.04,1.07,0,1.98c-0.04,0.82-0.14,1.9-0.4,3.35c-0.02,0.11-0.04,0.22-0.06,0.33
			C139.56,210.09,134.65,212.26,134.65,212.26z"/>
		<path class="st4" d="M145.14,225.29c0,0-0.43,0.53-0.65,1.26c-0.09,0.3-0.15,0.63-0.12,0.97c0.1,1.18,0.77,2.23,1.88,1.78
			c0.25-0.1,0.48-0.22,0.67-0.33c0.49-0.29,0.77-0.56,0.77-0.56l0.67-0.72l5.16-5.54l1.13-1.21l0.95-1.01c0,0,0.92-1.37,0.32-2.52
			c-0.59-1.11-2.34-1.44-3.58-0.13c-0.04,0.04-0.08,0.08-0.12,0.13c-0.23,0.27-0.61,0.71-1.09,1.24c-1.59,1.78-4.18,4.64-5.36,5.94
			C145.38,225.03,145.14,225.29,145.14,225.29z"/>
		<path class="st4" d="M139.73,215.07c-0.57,0.42-1.11,0.78-1.63,1.09c2.16,2.29,4.57,4.91,6.74,7.37c1.69-2.02,3.88-4.68,5.27-6.37
			c-0.57-0.83-1.03-1.52-1.3-1.92c-0.53-0.8-2.4-3.22-4.41-5.79C143.33,211.94,141.87,213.51,139.73,215.07z"/>
		<path class="st4" d="M149.31,228.91c0.83,1.09,1.43,1.99,1.7,2.6c1.78,3.99,1.2,6.71,5.1,5.99c0.92-0.17,2.5-1.1,3.31-2.08
			c0.77-0.93,1.74-1.1,1.23-3.65c-0.51-2.55-4.75-6.12-4.75-6.12s-0.62-0.91-1.5-2.19L149.31,228.91z"/>
		<path class="st4" d="M116.8,207.19c-0.02,0.01-0.04,0.02-0.06,0.03L116.8,207.19C116.8,207.19,116.8,207.19,116.8,207.19z"/>
		<path class="st4" d="M118.05,212.06c0.3,1.28,1.89,1.36,2.2,0.1c0-0.02,0.01-0.02,0.01-0.02c0.15-1.51-0.03-3.24-0.18-6.11
			c-0.14-2.88-0.32-3.51-1.22-3.75c-0.9-0.25-1.18,0.71-1.2,1.02c-0.09,1.81,0.05,5.26,0.18,7.27
			C117.88,211.2,117.96,211.69,118.05,212.06z"/>
		<path class="st4" d="M128.87,238.29c-0.29-0.57-0.75-1.03-1.26-1.41c-0.51-0.39-1.39-1.42-2.15-4.13c-0.06-0.22-0.1-0.45-0.1-0.67
			c-0.04-1.16-0.37-5.23-3.29-5.28c-0.03,0-0.07,0-0.1,0c-2.17-0.01-3.84,1.92-3.6,4.08c0.13,1.16,0.3,2.8,0.41,4.15
			c0.19,2.36,0,3.25-0.38,5.04c-0.22,1.04-1.02,1.57-0.96,4.59c0.05,2.32,1.98,2.68,3.51,2.61c1.53-0.06,1.27-1.59,1.12-2.74
			c-0.15-1.15,0.34-1.98,1.49-1.84c1.15,0.13,0.7,2.16,1.15,3.28c0.45,1.11,2.61,1.05,3.89,0c1.27-1.05,1.15-2.77,0.96-5.19
			C129.47,239.71,129.18,238.89,128.87,238.29z"/>
		<path class="st4" d="M124.13,223.89c0.78-0.68,1.22-1.6,1.22-2.58c-0.01-1.66-0.6-5.86-1.21-9.11c-0.54-2.88-2.33-3.23-2.33-3.23
			s-0.25-0.05-0.65-0.09l-0.03,0c0.1,3.52-0.36,5.01-1.7,5.14c-1.42,0.13-2.25,0.11-2.48-3.91c-0.01-0.12-0.01-0.24-0.02-0.36
			c-0.45,0.36-0.8,0.86-0.98,1.55c0,0-1.57,9.11,1.33,12.33c0.38,0.43,0.84,0.75,1.39,0.94
			C121.05,225.35,122.97,224.9,124.13,223.89z"/>
		<path class="st18" d="M196.96,169.41c2.12,6.32,4.42,13.21,4.85,14.66c0.85,2.8,4.59,23.97,2.63,30.09
			c-1.95,6.12-5.27,8.58-9.77,8.84c-1.69,0.1-3.28-0.13-4.64-0.31c-0.04-0.01-0.08,0-0.12,0.01c-0.51,0.14-3.85,1.14-3.09,3.18
			c0.48,1.29,1.95,2.84,2.71,4.64c6.84-0.18,48.13-1.28,52.41-1.1c4.68,0.2,11.51,6.03,11.51,6.03l9.95,6.12l2.81,1.41
			c1.29-4.57,1.99-9.56,1.99-14.87l0.42-23.82l-3.9,0.29c0,0-8.27,1.25-12.95-4.32l-12.34-21.4c0,0-8.5-14.65-18.61-15.23
			c-10.12-0.59-19.96,4.13-19.96,4.13"/>
		<path class="st4" d="M116.8,207.19c-0.02,0.01-0.04,0.02-0.06,0.03L116.8,207.19C116.8,207.19,116.8,207.19,116.8,207.19z"/>
		<path class="st4" d="M145.14,225.29c0,0-0.43,0.53-0.65,1.26c-0.09,0.3-0.15,0.63-0.12,0.97c0.1,1.18,0.77,2.23,1.88,1.78
			c0.25-0.1,0.48-0.22,0.67-0.33c0.49-0.29,0.77-0.56,0.77-0.56l0.67-0.72l5.16-5.54l1.13-1.21l0.95-1.01c0,0,0.92-1.37,0.32-2.52
			c-0.59-1.11-2.34-1.44-3.58-0.13c-0.04,0.04-0.08,0.08-0.12,0.13c-0.23,0.27-0.61,0.71-1.09,1.24c-1.59,1.78-4.18,4.64-5.36,5.94
			C145.38,225.03,145.14,225.29,145.14,225.29z"/>
		<path class="st4" d="M139.73,215.07c-0.57,0.42-1.11,0.78-1.63,1.09c2.16,2.29,4.57,4.91,6.74,7.37c1.69-2.02,3.88-4.68,5.27-6.37
			c-0.57-0.83-1.03-1.52-1.3-1.92c-0.53-0.8-2.4-3.22-4.41-5.79C143.33,211.94,141.87,213.51,139.73,215.07z"/>
		<path class="st4" d="M148.17,230.13l-0.41,0.44c0.28,0.03,0.58,0.05,0.86,0.08C148.48,230.48,148.33,230.3,148.17,230.13z"/>
		<path class="st4" d="M118.67,224.55c0.75,0.25,1.44,0.37,2.09,0.39c-0.85-0.21-1.71-0.4-2.56-0.6
			C118.35,224.42,118.51,224.5,118.67,224.55z"/>
		<path class="st4" d="M118.05,212.06c0.3,1.28,1.89,1.36,2.2,0.1c0-0.02,0.01-0.02,0.01-0.02c0.15-1.51-0.03-3.24-0.18-6.11
			c-0.14-2.88-0.32-3.51-1.22-3.75c-0.9-0.25-1.18,0.71-1.2,1.02c-0.09,1.81,0.05,5.26,0.18,7.27
			C117.88,211.2,117.96,211.69,118.05,212.06z"/>
		<path class="st4" d="M134.65,212.26c0,0-0.08,0.04-0.19,0.1c-0.44,0.23-1.51,0.84-1.92,1.6c-0.19,0.35-0.25,0.72-0.05,1.11
			c0.35,0.67,1.19,0.84,2,0.84c0.97-0.01,1.89-0.27,1.89-0.27c0.28-0.09,0.57-0.23,0.85-0.4c1.79-1.08,3.67-3.72,5.27-6.33
			c0.21-0.35,0.4-0.74,0.58-1.14c0.39-0.92,0.69-1.96,0.9-3.01c0.51-2.56,0.51-5.18,0.11-6.26c-0.33-0.89-1.07-1-1.71-0.89
			c-0.81,0.14-1.4,0.85-1.4,1.67c0,0.46,0.04,1.07,0,1.98c-0.04,0.82-0.14,1.9-0.4,3.35c-0.02,0.11-0.04,0.22-0.06,0.33
			C139.56,210.09,134.65,212.26,134.65,212.26z"/>
		<path class="st4" d="M128.87,238.29c-0.29-0.57-0.75-1.03-1.26-1.41c-0.51-0.39-1.39-1.42-2.15-4.13c-0.06-0.22-0.1-0.45-0.1-0.67
			c-0.04-1.16-0.37-5.23-3.29-5.28c-0.03,0-0.07,0-0.1,0c-2.17-0.01-3.84,1.92-3.6,4.08c0.13,1.16,0.3,2.8,0.41,4.15
			c0.19,2.36,0,3.25-0.38,5.04c-0.22,1.04-1.02,1.57-0.96,4.59c0.05,2.32,1.98,2.68,3.51,2.61c1.53-0.06,1.27-1.59,1.12-2.74
			c-0.15-1.15,0.34-1.98,1.49-1.84c1.15,0.13,0.7,2.16,1.15,3.28c0.45,1.11,2.61,1.05,3.89,0c1.27-1.05,1.15-2.77,0.96-5.19
			C129.47,239.71,129.18,238.89,128.87,238.29z"/>
		<path class="st4" d="M127.99,206.74c0,0,2.88,2.29,3.9,3.08c0.16,0.13,0.73,0.68,1.56,1.52c0.97-0.67,4.6-3.39,5.15-6.59
			c0.15-0.89,0.19-1.71,0.15-2.43c-0.25-0.32-0.4-0.5-0.4-0.5s-7.46-7.71-9.53-8.85c-1.32-0.73-2.96-0.76-4.36,0.01
			c-0.2,3.01-0.65,6.08-1.55,8.67c0.04,0.1,0.09,0.21,0.13,0.31C123.81,203.72,127.99,206.74,127.99,206.74z"/>
		<path class="st19" d="M263.41,241.57l-9.95-6.12c0,0-6.84-5.83-11.51-6.03c-4.29-0.18-45.58,0.91-52.41,1.1
			c0.54,1.29,0.72,2.7-0.09,4.24c-1.57,2.97-7.33,3.83-8.89,4.01c0.63-0.03,1.17,0,1.54,0.17c1.34,0.58,2.02,1.43,2.38,2.08
			c0.06,0.11,0.09,0.23,0.11,0.35c0.34,0.95,0.36,2.39-0.78,4.59l-0.01,0c-0.01,0.03-0.03,0.07-0.04,0.1
			c-0.73,1.5-3.49,4.55-6.87,3.09c-3.05-1.31-3.28-1.95-5.23-0.7c-0.34,0.2-0.95,0.82-1.07,1.13c0,0.01-0.01,0.01-0.01,0.01
			c-0.04,0.05-0.22,0.4-0.22,2.51c0,2.34-0.11,3.89-2.23,6.75c-2.12,2.86-4.81,5.44-8.47,6.07c-0.89,0.15-2.02,0.27-3.29,0.3
			c-0.19,0-0.35,0.17-0.33,0.36c0.21,1.65,1.14,3.6,3.3,5.34c3.06,2.46,6.03,1.02,15.3,2.72c3.82,0.7,6.69,1.95,8.89,3.29
			l47.03-5.54c17.41,0,30.82-11.22,35.68-28.42L263.41,241.57z"/>
		<path d="M189.53,230.51c-0.03,0-0.05,0-0.08,0C189.48,230.51,189.51,230.51,189.53,230.51L189.53,230.51z"/>
		<path d="M149.96,106.25c-0.33-0.58-0.69-1.15-1.07-1.73L149.96,106.25z"/>
		<path d="M217.08,131.99c-3.18-10.76-7.86-18.41-12.71-23.83c-3.69-4.13-7.48-6.97-10.78-8.91c-6.47-3.79-12.09-4.84-14.4-5.12
			c-0.15-0.02-0.26-0.13-0.28-0.28l-0.37-3.09c-0.09-0.72-0.45-1.36-1.01-1.8c-0.57-0.45-1.27-0.64-1.99-0.56l-3.97,0.48
			c-1.66,0.2-2.84,1.7-2.64,3.36l0.18,1.54c0.03,0.23-0.18,0.41-0.4,0.35c-0.52-0.15-1.08-0.21-1.65-0.15l-13.5,1.62
			c-1.03,0.12-1.93,0.61-2.58,1.32c-0.16,0.17-0.42,0.15-0.53-0.05c-0.69-1.29-1.5-2.59-2.43-3.89
			c-7.69-10.69-19.17-15.74-26.53-12.73c-0.08,0.03-0.17,0.03-0.24-0.01c-1.35-0.67-3.09-1.37-5.07-1.75
			c0.44-0.27,0.76-0.5,0.88-0.58c1.06-0.58,2.31-2,2.59-3.55c0.18-0.98-0.06-1.87-0.69-2.57c-1.4-1.56-2.1-2.47-1.48-4.69
			c0.2-0.71,0.8-2.87,5.17-2.19c2.82,0.44,6.45,3.04,9.63,5.53c3.63,2.84,8.32,2.81,11.16,2.45c0.21-0.03,0.38,0.15,0.36,0.35
			c-0.2,1.98-0.13,5.37,2.27,7.03c0.4,0.45,2.2,2.29,6.02,3.49c4.39,1.38,5.36,2.65,5.55,3.29c0.3,1.02,1.23,1.96,2.27,2.28
			c0.92,0.28,1.85,0.08,2.64-0.57c0.04-0.04,0.08-0.08,0.12-0.12c0.03-0.03,1.92-2.56,0.72-5.85c-0.09-0.25,0.15-0.48,0.41-0.4
			c4.84,1.45,10.65-1.24,13.05-2.55l0.05-0.03c0.68-0.37,1.09-0.94,1.13-1.59c0.06-0.9-0.53-1.81-1.82-2.76
			c-1.34-0.99-2.84-3.49-3.21-4.52c-0.24-0.66-0.84-1.74-1.67-2.55c-0.14-0.13-0.13-0.34,0-0.47c0.38-0.37,0.71-0.88,0.96-1.56
			c0.76-2.07-0.01-3.49-1.01-4.14c-0.98-0.64-2.21-0.58-2.94,0.13c-0.87,0.85-2.69,2.16-4.04,1.66c-1.03-0.38-3.9-1.27-8.4-1.43
			c-2.52-0.09-3.81,1.02-4.36,2.05c-0.07,0.12-0.2,0.19-0.34,0.17c-1.49-0.21-2.56-0.16-2.63-0.15c-0.06,0-0.12,0.01-0.17,0.03
			c-3.84,1.14-10.97-2.09-12.78-4.54c-1.03-1.41-2.33-2.51-3.36-3.25c0.13-0.09,0.25-0.19,0.37-0.31c0.97-1.01,1.49-3.07,1.36-4.99
			c0,0,0,0,0,0c0,0-0.01,0-0.01,0c-0.44,0.17-0.87,0.34-1.31,0.52c-0.11,0.05-0.18,0.16-0.18,0.28c-0.04,1.33-0.43,2.59-0.95,3.13
			c-0.4,0.42-0.99,0.3-2.57-0.14c-0.47-0.13-1.01-0.27-1.6-0.41c-0.08-0.02-0.17,0-0.24,0.04c-0.56,0.36-1.11,0.72-1.65,1.11
			c0,0-0.01,0-0.01,0.01c0,0,0,0,0,0c0.33,0.06,0.62,0.11,0.84,0.16c0.86,0.17,1.6,0.37,2.26,0.56c0.47,0.13,0.9,0.25,1.32,0.33
			c0.03,0.01,0.04,0.01,0.07,0.02c0.52,0.29,2.87,1.69,4.44,3.83c2.11,2.87,9.77,6.37,14.31,5.13c0.02,0,0.03-0.01,0.05-0.01
			c0.49-0.01,2.75-0.02,5.09,0.87c2.66,1.01,4.38,2.27,4.72,3.46c0.1,0.37-0.19,0.72-0.37,0.9c-0.56,0.55-1.49,0.84-2.08,0.66
			c-1.32-0.41-7.52-1.68-11.47-0.9c0,0,0,0-0.01,0c-0.01,0-0.02,0-0.03,0.01c-2.14,0.43-7.53,1.12-11.41-1.91
			c-3.5-2.73-7.18-5.33-10.33-5.83c-4.71-0.74-6.33,1.37-6.86,3.28c-0.81,2.9,0.24,4.37,1.82,6.12c0.31,0.34,0.42,0.77,0.32,1.28
			c-0.19,1.02-1.11,2.12-1.85,2.51c-0.04,0.02-0.07,0.04-0.11,0.07c-0.02,0.01-1.3,0.97-2.86,1.54c-0.02,0-0.03,0-0.05,0
			c-0.92,0-1.88,0.09-2.85,0.3c-0.38,0.08-0.77,0.19-1.16,0.31c-0.07,0.07-0.14,0.14-0.21,0.21c-0.12,0.37-0.24,0.74-0.35,1.12
			c0,0.01,0,0.01-0.01,0.02c0,0,0,0,0,0c0.37-0.21,1.1-0.45,1.2-0.48c1.09-0.3,2.21-0.46,3.37-0.46c0.47,0,0.93,0.03,1.38,0.08
			c2.12,0.21,4.05,0.88,5.55,1.57c-0.28,0.16-0.55,0.33-0.81,0.52c-0.13,0.09-0.23,0.21-0.36,0.31c-3.52-1.83-7.8-1.25-10.46-0.59
			c-0.11,0.03-0.19,0.11-0.22,0.22c-0.09,0.32-0.17,0.65-0.26,0.98c2.31-0.65,6.61-1.46,10.09,0.12c-0.19,0.19-0.35,0.41-0.53,0.62
			c-3.61-1.11-7.54-0.39-9.8,0.22c-0.01,0.02-0.01,0.04-0.01,0.06c-0.08,0.36-0.16,0.71-0.24,1.07c0,0,5.82-1.43,9.37-0.5
			c-0.17,0.26-0.33,0.52-0.48,0.8c-3.54-0.66-7.11,0.08-9.07,0.64c0,0,0,0,0,0c-0.07,0.38-0.14,0.75-0.2,1.13c0,0,0,0,0,0
			c1.66-0.51,5.25-1.38,8.8-0.81c-0.13,0.29-0.27,0.58-0.38,0.88c-3.49-0.4-6.81,0.35-8.57,0.86c-0.06,0.37-0.11,0.74-0.16,1.12
			c0,0,0,0,0,0c1.46-0.45,4.87-1.33,8.42-0.98c-0.08,0.3-0.18,0.6-0.25,0.92c-3.47-0.26-6.66,0.5-8.28,0.97
			c-0.04,0.37-0.09,0.74-0.12,1.11c1.33-0.41,4.64-1.29,8.23-1.05c-0.05,0.31-0.1,0.62-0.13,0.94c-3.49-0.18-6.62,0.57-8.17,1.02
			c-0.03,0.36-0.05,0.73-0.07,1.09c1.28-0.4,4.55-1.26,8.18-1.08c-0.01,0.32-0.03,0.63-0.03,0.95c-3.53-0.15-6.65,0.58-8.19,1.03
			c-0.01,0.36-0.02,0.71-0.02,1.07c1.31-0.4,4.57-1.23,8.25-1.07c0.02,0.32,0.03,0.63,0.05,0.95c-3.6-0.15-6.75,0.56-8.32,1.01v1.07
			c1.39-0.4,4.7-1.21,8.44-1.03c0.04,0.32,0.07,0.63,0.13,0.95c-3.7-0.18-6.93,0.52-8.57,0.97v1.06c1.49-0.41,4.91-1.2,8.78-0.98
			c0.07,0.32,0.12,0.63,0.19,0.96c-3.87-0.23-7.25,0.47-8.98,0.92v1.06c1.6-0.43,5.2-1.22,9.27-0.93c0.09,0.32,0.17,0.64,0.27,0.96
			c-3.19-0.24-6.07,0.13-8.05,0.53c-0.57,0.11-1.07,0.23-1.48,0.33v1.06c1.73-0.45,5.57-1.25,9.89-0.86
			c0.11,0.32,0.22,0.65,0.34,0.97c-4.41-0.41-8.26,0.31-10.24,0.8v1.06c1.88-0.47,6.02-1.28,10.67-0.76
			c0.13,0.33,0.28,0.65,0.42,0.98c-4.77-0.55-8.96,0.18-11.09,0.69v1.05c2.05-0.5,6.56-1.34,11.59-0.65c0.16,0.33,0.33,0.66,0.51,1
			c-5.2-0.74-9.79,0.03-12.1,0.56v1.06c2.22-0.52,7.12-1.38,12.55-0.51c0.1,0.02,0.18,0.08,0.23,0.16c0.17,0.29,0.34,0.58,0.52,0.87
			c-5.71-0.97-10.78-0.17-13.29,0.39v1.05c2.44-0.55,7.9-1.45,13.86-0.29c0.09,0.02,0.16,0.07,0.21,0.14
			c0.2,0.31,0.41,0.61,0.62,0.92c-6.31-1.28-11.96-0.44-14.7,0.15v1.05c2.7-0.59,8.82-1.55,15.42,0c0.08,0.02,0.15,0.06,0.19,0.13
			c0.24,0.33,0.48,0.65,0.72,0.96c-6.82-1.63-12.99-0.84-16.08-0.22c-0.15,0.03-0.25,0.16-0.25,0.32l0,1.43l0.03,0
			c5.54,0.19,10.98,0.24,16.19,0.15l2.85-0.06c4.47-0.12,8.79-0.35,12.84-0.67c0.69-0.06,1.37-0.11,2.03-0.17
			c3.88-0.35,7.5-0.79,10.76-1.31c0.49-0.08,0.94-0.15,1.37-0.23l1.14-0.2l0.09-0.02c2.1-0.39,3.17-0.67,3.15-0.67c0,0,0,0,0,0
			c0.15-0.02,0.29-0.04,0.43-0.07l0.16-0.03c0.86-0.18,2.65-0.56,3.95,1.88c2.55,3.75,5.38,8.13,5.57,8.86
			c0.22,0.81,0.25,2.52-1.05,3.78c-0.45,0.43-1.06,0.75-1.83,0.93c-0.36,0.09-0.68,0.14-1.01,0.17c-0.07,0.01-0.16,0.01-0.25,0.02
			c-0.56,0.04-1.43,0.09-2.54,0.15c-0.88,0.04-1.92,0.09-3.09,0.15c-1.63,0.07-3.5,0.16-5.57,0.24l-1.39,0.06
			c-3.61,0.15-7.68,0.31-11.89,0.47l-19.92,0.75c-5.14,0.19-9.45,0.35-12.03,0.44v1.33c2.58-0.09,6.91-0.25,12.08-0.44l0.37-0.01
			l1.96-0.07c0,0,3.28-0.13,9.18-0.35l8.97-0.33c5.31-0.2,13.15-0.53,13.15-0.53c2.03-0.09,5.64-0.25,5.93-0.26l3.1-0.15
			c0.97-0.05,1.6-0.09,2.04-0.13c0.14-0.01,0.28-0.03,0.42-0.05c0.26-0.04,0.52-0.08,0.79-0.15c0.11-0.03,0.22-0.07,0.33-0.1
			l2.34,2.63c0,0,11.47,10.96,13.64,13.32c2.17,2.36,7.25,8.67,10.22,17.97c0.96,3.01,1.95,5.94,2.87,8.63
			c0.17,0.48,0.33,0.96,0.49,1.42c0.4,1.15,0.79,2.25,1.15,3.26c1.19,3.36,2.11,5.9,2.47,7.02c0.76,2.36,4.14,11.66,4.14,18.48
			c0,6.82,1.02,20.14-8.29,19.57c-1.77-0.11-2.87-0.22-3.91-0.1v0c0,0-0.02,0-0.04,0.01c-0.58,0.07-1.14,0.22-1.79,0.48
			c-0.02,0.01-0.04,0.02-0.06,0.02c-0.07,0.03-0.13,0.05-0.21,0.08c0,0-0.01,0.01-0.01,0.01c-0.96,0.4-1.97,1.01-2.55,1.94
			c-1.2,1.95-1.06,3.5,1.37,6.52c0.29,0.35,0.48,0.74,0.59,1.15c0,0,0.01,0,0.01,0c0,0,0,0-0.01,0c0,0,0,0,0,0
			c0.46,1.7-0.55,3.72-2.45,5.01c-2.06,1.41-4.71,3.19-4.71,3.19s0.02,0,0.03,0c-1.58,0.11-3.61,0.48-5.24,0.17
			c-2.45-0.47-1.47-2.55-1.47-2.55l-0.29,0.33c0,0-0.61,0.89,0.21,1.78c0.82,0.89,2.45,1.81,4.83,1.29c0.76-0.16,1.42-0.2,2.02-0.18
			c0.23,0.1,2.9,1.33,2.96,3.19c0.06,1.84-0.39,2.93-0.94,3.78c-0.03,0.05-0.54,0.63-0.51,0.65c-0.25,0.19-0.49,0.34-0.68,0.43
			c-1.61,0.51-3.64,0.55-5.65-0.67c-2.02-1.22-3.68-0.58-5.01,0.65c-0.34,0.31-0.96,0.73-1.68,1.17c-0.02,0.07-0.06,0.14-0.08,0.21
			c-0.11,0.1-0.27,0.31-0.34,0.31c-0.23,0.81-0.41,1.06-0.53,1.72c-0.29,1.66,0,3.21-2.58,6.76c-2.58,3.55-3.83,3.95-12.22,3.37
			c-1.27-0.09-2.38-0.23-3.4-0.4c-5.62-0.98-7.84-3.32-12.55-6.86c-5.55-4.18-6.37-4.97-6.88-5.74c-0.12-0.18-0.24-0.34-0.35-0.49
			c2.24-1.98,1.95-4.93,1.79-7.46c-0.17-2.62-2.61-4.84-3-6.12c-0.26-0.87-1.44-4.52-2.16-6.76c-0.12-0.37-0.26-0.73-0.43-1.08
			c-0.17-0.35-0.36-0.69-0.58-1.01c0.52-0.23,0.92-0.64,1.15-1.15c0.09-0.19,0.16-0.4,0.19-0.61c0.18-1.12,0.38-2.81,0.37-4.79
			c0,0-0.2-7.93-3.16-10.67c-0.78-0.73-1.81-1.17-2.92-1.36c-0.02-0.3-0.04-0.58-0.06-0.85c0.07-0.24,0.16-0.57,0.23-0.81
			c0.21-0.3,0.41-0.61,0.6-0.94c2.12,2.68,5.33,5.41,8.19,7.62c0.36,0.28,0.77,0.63,1.21,1.03c-1.33,1.57-0.76,3.85,0.49,4.62
			c1,0.62,2.37,0.62,4.11-0.05c2.5,2.62,5.22,5.6,7.49,8.01c-0.16,0.18-0.3,0.35-0.42,0.49c-0.95,1.09-1.28,2.06-1.3,2.89
			c-0.01,0.86,0.32,1.56,0.66,2.08c0.67,1.02,2.55,1.69,3.19,1.59c0.64-0.1,1.78-1.24,1.78-1.24l0.52-0.55l0.41-0.44
			c0.16,0.17,0.31,0.34,0.45,0.52c0.92,1.16,1.41,2.46,1.67,3.53c0.31,1.27,0.3,2.22,0.3,2.22c0.17,2.26,0.34,3.18,2.12,4.03
			c1.78,0.85,4.25-0.09,5.86-1.47c1.61-1.38,3.65-2.44,4.67-4.57c0.01-0.02,0.01-0.03,0.02-0.05c0.5-1.09,0.3-2.43-0.27-3.73
			c-0.54-1.23-1.4-2.41-2.3-3.28c-1.87-1.78-5.21-5.05-5.21-5.05l1.75-1.87c0.26-0.27,0.45-0.6,0.56-0.96
			c0.21-0.69,0.35-1.9-0.29-3.56c-0.74-1.93-3.16-1.65-4.51-1.32c-0.58,0.14-1.1,0.45-1.51,0.89c0,0-0.06,0.07-0.17,0.21
			c-1.79-2.82-3.77-5.92-5.06-7.89c-0.26-0.39-0.57-0.83-0.9-1.28c0.3-1.21,0.56-2.59,0.78-4.2c1.02-7.39-4.59-6.88-6.25-6.25
			c-0.51,0.2-0.9,0.52-1.2,0.86c-0.31,0.36-0.5,0.79-0.57,1.24c-2.73-2.84-5.55-5.5-7.64-7.12c-1.87-1.45-4.03-1.52-5.87-1.13
			c0.06-3.48-0.14-6.58-0.25-8.33c-0.04-0.56-0.06-0.97-0.06-1.17c-0.02-2.29,0.14-2.81,2.66-5.56c0.6-0.65,1.09-1.39,1.32-1.7
			c0.03-0.04,0.06-0.08,0.08-0.13c0.31-0.56,0.62-1.26,0.89-2.14c2.99-9.61,1.05-14.67-1.11-17.22c-0.67-0.79-1.46-1.46-2.36-2.02
			c0,0-0.99-0.57-1.51-0.78c-2.42-1.04-5.4-1.37-8.68-0.93c-0.89,0.12-1.71,0.33-2.47,0.61c-0.01,0-0.03,0.01-0.04,0.02l-1.94,0.94
			c-0.01,0.01-0.03,0.01-0.04,0.02c-2,1.23-3.47,2.98-4.54,4.76c-0.03,0.05-0.05,0.11-0.05,0.17l0,3.22
			c1.12-2.73,3.18-6.13,6.77-7.63c0.76-0.32,1.59-0.56,2.5-0.68c3.34-0.46,6.32-0.04,8.6,1.14c0.54,0.28,1.04,0.61,1.5,0.98
			c0,0,0.01,0.01,0.01,0.01c0.41,0.33,0.79,0.69,1.13,1.09c2.76,3.26,3.05,8.75,0.83,15.86c-0.22,0.72-0.47,1.28-0.72,1.75
			c-0.33,0.63-1.39,1.8-1.42,1.83c-2.71,2.95-2.92,3.6-2.89,6.39c0,0.22,0.03,0.65,0.07,1.25c0.12,1.89,0.19,3.66,0.21,5.34
			c-0.09-0.34-0.18-0.7-0.26-1.12c-0.22-1.24-1.62-1.97-2.82-2.84c-1.2-0.87-2.97-3.84-3.84-5.16c-0.87-1.32-2.09-3.82-2.9-5.85
			c-0.81-2.03-0.83-4.66-0.2-7.31c0.62-2.65,3.38-5.17,5.39-5.59c2.61-0.54,3.77,0.31,4.96,1.59c0.91,0.98,0.81,2.61,0.64,3.33
			c-0.17,0.72-0.93,1.64-0.22,2.28c0.71,0.63,1.06-0.6,1.06-0.6c1.76-3.96-0.87-7.39-3.92-8.03c-3.04-0.65-5.52,1.5-7.42,4.15
			c-1.9,2.65-2.02,6.72-1,10.53c1.02,3.81,5.06,9.65,7.29,12.3c2.23,2.65,1.79,6.82,1.79,6.82l0.21,0.08c0.2,0.08,0.9,0.3,1.19-0.28
			c-0.04,1.05-0.1,2.07-0.19,3.02c-0.18,1.89-0.44,3.57-0.8,5.03c-0.32,1.31-0.72,2.44-1.19,3.4c-0.05,0.1-0.1,0.19-0.15,0.29
			c-0.14-0.73-0.34-1.23-0.68-1.55c-0.24-0.23-0.54-0.37-0.86-0.43c-1.12-0.22-2.16,0.7-2.34,1.95c-0.08,0.56-0.11,1.33-0.1,2.25
			c0,0.24-0.24,0.4-0.46,0.31c-0.72-0.28-1.3-0.83-1.61-1.56c-0.5-1.2-0.9-2.77-1.18-4.67l-0.14-0.92
			c-1.11-7.46-1.52-10.25-3.9-13.91c-0.93-1.42-2.04-4.27-2.95-7.47v4.58c0,0.04,0.01,0.08,0.02,0.12c0.58,1.47,1.17,2.72,1.71,3.56
			c2.21,3.39,2.58,5.9,3.68,13.33l0.14,0.92c0.3,2.02,0.73,3.7,1.28,5.02c0.58,1.39,1.81,2.36,3.3,2.61c0.03,0,0.06,0,0.09,0.01
			c0.02-0.01,0.04-0.02,0.06-0.03c0,0,0,0.01,0,0.01l-0.06,0.02c-2.07,0.87-3.73,2.64-3.87,5.17c-0.16,3.08-0.15,6.77,0.61,9.56
			c0.14,0.52,0.3,1,0.5,1.45c0.41,0.93,0.94,1.68,1.63,2.17c0.11,0.08,0.16,0.22,0.12,0.35c-0.15,0.46-0.25,0.97-0.29,1.52
			c-0.16,2.57-0.1,6.44,0.66,7.71c0.76,1.27-0.38,5.99-0.38,5.99s-1.15,3.12,1.19,6.12c2.34,3,7.03,3.37,11.15,1.54c0,0,0,0,0,0
			c0.05,0.39,0.17,0.8,0.44,1.18c1.03,1.49,6.81,7.27,13.45,11.45c2.54,1.6,5.19,2.57,7.7,3.14c1.44,0.32,2.84,0.51,4.15,0.6
			c0.14,0.01,0.26,0.11,0.28,0.25c0.27,1.59,0.68,3.86,0.99,4.91c0.51,1.7,4.25,4.16,9.09,4.33c4.84,0.17,10.73,1.31,13.99,2.37
			c0.28,0.09,0.6,0.22,0.94,0.37c0.05,0.02,0.11,0.03,0.17,0.03l1.08-0.13l3.16-0.37c-2.2-1.34-5.07-2.59-8.89-3.29
			c-9.26-1.7-12.24-0.25-15.3-2.72c-2.16-1.74-3.09-3.69-3.3-5.34c-0.02-0.19,0.14-0.36,0.33-0.36c1.27-0.03,2.39-0.15,3.29-0.3
			c3.66-0.63,6.35-3.21,8.47-6.07c2.12-2.86,2.23-4.41,2.23-6.75c0-2.11,0.18-2.46,0.22-2.51c0-0.01,0.01-0.01,0.01-0.01
			c0.12-0.31,0.72-0.93,1.07-1.13c1.95-1.25,2.18-0.61,5.23,0.7c3.39,1.46,6.14-1.59,6.87-3.09c0.02-0.03,0.03-0.07,0.04-0.1l0.01,0
			c1.14-2.2,1.12-3.64,0.78-4.59c-0.02-0.12-0.05-0.24-0.11-0.35c-0.36-0.65-1.04-1.5-2.38-2.08c-0.37-0.16-0.92-0.19-1.54-0.17
			c1.57-0.18,7.32-1.04,8.89-4.01c0.82-1.54,0.63-2.95,0.09-4.24c-0.76-1.8-2.23-3.36-2.71-4.64c-0.76-2.04,2.59-3.04,3.09-3.18
			c0.04-0.01,0.08-0.01,0.12-0.01c1.37,0.19,2.95,0.41,4.64,0.31c4.5-0.25,7.82-2.72,9.77-8.84c1.95-6.12-1.78-27.28-2.63-30.09
			c-0.44-1.45-2.74-8.33-4.85-14.66c-1.98-5.92-3.81-11.35-3.81-11.35c-3.14-10.11-15.89-21.16-17.93-23.07
			c-1.48-1.39-5.8-5.61-8.04-7.81c-0.12-0.12-0.11-0.3,0-0.43c1.42-1.55,1.53-3.55,1.18-4.84c-0.35-1.28-4.86-7.94-5.72-9.2
			c-1.73-3.26-4.46-2.68-5.36-2.49l-0.14,0.03c-0.12,0.02-0.23,0.04-0.44,0.07c-0.01,0-0.88,0.22-2.54,0.55
			c-0.21,0.04-0.41-0.13-0.39-0.34c0.06-0.87,0.08-1.76,0.02-2.68c0.24,0.04,0.49,0.07,0.74,0.07c0.17,0,0.34-0.01,0.51-0.03
			l13.5-1.62c0.56-0.07,1.09-0.25,1.57-0.53c0.2-0.11,0.44,0.02,0.47,0.24l0.46,3.86c0.09,0.72,0.45,1.36,1.01,1.8
			c0.48,0.38,1.06,0.58,1.66,0.58c0.11,0,0.22-0.01,0.33-0.02l4.29-0.51c0.72-0.09,1.35-0.45,1.8-1.01
			c0.35-0.45,0.55-0.99,0.57-1.55c0.01-0.21,0.19-0.38,0.39-0.34c9.3,2.16,17.32,21.7,19.65,27.92c1.01,2.71,3.58,4.45,6.4,4.45
			c0.27,0,0.55-0.02,0.83-0.05l3.04-0.36c1.43-0.17,2.83-0.68,3.92-1.62C217.05,137.29,217.82,134.51,217.08,131.99z M157.91,67.42
			c-0.91-0.66-2.08-1.27-3.51-1.81c-0.48-0.18-0.95-0.32-1.4-0.45c0.35-0.51,1.13-1.13,2.86-1.07c2.97,0.11,5.93,0.61,7.93,1.34
			c2.48,0.91,5.12-1.51,5.62-2c0.21-0.21,0.68-0.18,1.05,0.06c0.65,0.42,0.8,1.3,0.42,2.34c-0.72,1.92-2.17,1.68-4.67,1.08
			c-0.31-0.08-0.63-0.15-0.94-0.22C162.99,66.2,159.45,66.31,157.91,67.42z M145.43,72.55c3.42-0.51,8.72,0.45,10.26,0.93
			c1.08,0.34,2.53-0.06,3.49-0.93c0.68,0.28,1.66,0.63,2.26,0.61c1-0.04,1.03-1.01,0.63-1.24c-0.32-0.18-1.42-0.46-2.03-0.7
			c0.1-0.38,0.11-0.77,0-1.15c-0.16-0.56-0.49-1.1-0.96-1.62c1.04-0.47,3.66-0.76,5.85-0.28c0.3,0.07,0.61,0.14,0.91,0.21
			c1.04,0.25,2.2,0.52,3.26,0.46c0.93,0.05,2.09,1.61,2.46,2.62c0.43,1.2,2.05,3.97,3.73,5.22c0.92,0.68,1.23,1.2,1.21,1.44
			c-0.01,0.16-0.25,0.31-0.35,0.36l-0.05,0.03c-1.87,1.02-8.32,4.19-12.83,2.09c-0.03-0.02-5.08-2.56-6.74-4.39
			c-0.28-0.31-0.76-0.33-1.07-0.05c-0.1,0.09-0.17,0.21-0.21,0.33c-0.08,0.25-0.03,0.53,0.16,0.74c1.09,1.2,3.31,2.59,5.01,3.55
			c0.03,0.11,0.08,0.21,0.16,0.31c2.97,3.32,1.26,6.09,0.93,6.56c-0.37,0.28-0.75,0.36-1.16,0.23c-0.62-0.19-1.12-0.79-1.26-1.26
			c-0.49-1.69-2.57-3.06-6.55-4.31c-3.81-1.2-5.36-3.07-5.37-3.09c-0.05-0.06-0.11-0.12-0.17-0.16
			C144.81,77.62,145.2,73.89,145.43,72.55z M110.15,113.57c2.49-0.27,5.7-0.38,9.18,0.08C116.33,113.66,113.26,113.64,110.15,113.57
			z M155.9,225.65c0,0,3.22,2.71,4.39,5.1c0.17,0.35,0.3,0.7,0.37,1.02c0.29,1.47,0.09,2.15-0.28,2.64
			c-0.27,0.36-0.63,0.62-0.96,1.01c-0.81,0.98-2.39,1.91-3.31,2.08c-2.89,0.54-3.32-0.82-4.08-3.18c-0.26-0.83-0.57-1.77-1.03-2.81
			c-0.09-0.2-0.23-0.45-0.39-0.71c-0.32-0.53-0.76-1.16-1.31-1.88l5.1-5.46C155.28,224.74,155.9,225.65,155.9,225.65z
			 M152.21,217.42c0.04-0.05,0.08-0.08,0.12-0.13c1.24-1.32,2.99-0.99,3.58,0.13c0.61,1.15-0.32,2.52-0.32,2.52l-0.95,1.01
			l-1.13,1.21l-5.16,5.54l-0.67,0.72c0,0-0.28,0.27-0.77,0.56c-0.19,0.11-0.41,0.23-0.67,0.33c-1.11,0.45-1.78-0.61-1.88-1.78
			c-0.03-0.35,0.03-0.67,0.12-0.97c0.22-0.73,0.65-1.26,0.65-1.26s0.24-0.27,0.63-0.69c1.18-1.3,3.77-4.16,5.36-5.94
			C151.6,218.13,151.98,217.69,152.21,217.42z M148.8,215.24c0.27,0.4,0.73,1.09,1.3,1.92c-1.39,1.7-3.58,4.35-5.27,6.37
			c-2.16-2.46-4.58-5.08-6.74-7.37c0.52-0.32,1.06-0.68,1.63-1.09c2.14-1.56,3.61-3.12,4.66-5.62
			C146.4,212.02,148.27,214.44,148.8,215.24z M140.51,204.93c0.02-0.11,0.04-0.22,0.06-0.33c0.26-1.45,0.36-2.53,0.4-3.35
			c0.04-0.91,0-1.51,0-1.98c0-0.82,0.59-1.54,1.4-1.67c0.64-0.11,1.38,0,1.71,0.89c0.4,1.08,0.4,3.7-0.11,6.26
			c-0.21,1.06-0.51,2.1-0.9,3.01c-0.17,0.41-0.37,0.79-0.58,1.14c-1.59,2.62-3.47,5.25-5.27,6.33c-0.29,0.17-0.57,0.31-0.85,0.4
			c0,0-0.93,0.26-1.89,0.27c-0.81,0-1.65-0.17-2-0.84c-0.2-0.39-0.14-0.76,0.05-1.11c0.42-0.76,1.49-1.37,1.92-1.6
			c0.12-0.06,0.19-0.1,0.19-0.1S139.56,210.09,140.51,204.93z M124.47,192.96c1.4-0.77,3.03-0.74,4.36-0.01
			c2.08,1.15,9.53,8.85,9.53,8.85s0.14,0.18,0.4,0.5c0.03,0.73,0,1.54-0.15,2.43c-0.55,3.2-4.18,5.92-5.15,6.59
			c-0.83-0.84-1.4-1.39-1.56-1.52c-1.02-0.79-3.9-3.08-3.9-3.08s-4.17-3.02-4.94-4.8c-0.04-0.1-0.09-0.2-0.13-0.31
			C123.82,199.04,124.27,195.97,124.47,192.96z M117.66,203.28c0.02-0.31,0.3-1.27,1.2-1.02c0.89,0.24,1.07,0.88,1.22,3.75
			c0.14,2.88,0.33,4.6,0.18,6.11c0,0.01,0,0.01-0.01,0.02c-0.31,1.26-1.9,1.18-2.2-0.1c-0.09-0.37-0.16-0.86-0.21-1.5
			C117.71,208.55,117.58,205.1,117.66,203.28z M117.28,223.61c-0.31-0.35-0.57-0.77-0.79-1.23c-1.79-3.85-0.54-11.1-0.54-11.1
			c0.17-0.69,0.53-1.18,0.98-1.55c0.01,0.12,0.01,0.24,0.02,0.36c0.23,4.02,1.06,4.05,2.48,3.91c1.33-0.13,1.79-1.62,1.7-5.14
			l0.03,0c0.39,0.04,0.65,0.09,0.65,0.09s1.79,0.35,2.33,3.23c0.61,3.26,1.2,7.45,1.21,9.11c0.01,0.88-0.35,1.71-1,2.37
			c-0.07,0.07-0.14,0.14-0.22,0.21c-0.8,0.69-1.96,1.11-3.37,1.06c-0.65-0.03-1.34-0.14-2.09-0.39c-0.17-0.06-0.32-0.13-0.47-0.21
			C117.85,224.16,117.55,223.91,117.28,223.61z M128.6,245.95c-1.27,1.05-3.44,1.11-3.89,0c-0.45-1.11,0-3.14-1.15-3.28
			c-1.15-0.13-1.64,0.7-1.49,1.84c0.15,1.15,0.41,2.68-1.12,2.74c-1.53,0.06-3.46-0.3-3.51-2.61c-0.06-3.02,0.73-3.55,0.96-4.59
			c0.38-1.78,0.57-2.68,0.38-5.04c-0.11-1.35-0.28-2.99-0.41-4.15c-0.24-2.16,1.43-4.08,3.6-4.08c0.03,0,0.07,0,0.1,0
			c2.92,0.05,3.25,4.12,3.29,5.28c0.01,0.23,0.04,0.46,0.1,0.67c0.76,2.71,1.63,3.74,2.15,4.13c0.51,0.39,0.97,0.84,1.26,1.41
			c0.31,0.6,0.6,1.42,0.68,2.47C129.74,243.17,129.87,244.89,128.6,245.95z M189.32,230.52c-0.03,0-0.06,0-0.08,0
			c-0.03,0-0.06,0-0.09,0C189.2,230.52,189.25,230.52,189.32,230.52z M140.34,112.72c-0.11,0.01-0.24,0.02-0.35,0.03
			c-0.15-0.22-0.29-0.43-0.43-0.66c-2.53-4.03-4.15-8.01-4.62-10.97c-0.35-2.21-0.07-3.85,0.95-4.49c1.69-1.06,4.93,0.86,8.25,4.54
			c1.39,1.54,2.79,3.39,4.1,5.46c1.03,1.64,1.89,3.26,2.6,4.81C147.64,111.95,144.12,112.38,140.34,112.72z M152.36,111.19
			c-0.04,0.01-0.08,0.01-0.11,0.02c-0.55-1.6-1.31-3.28-2.28-4.96l-1.07-1.73c-0.81-1.21-1.68-2.33-2.57-3.34
			c-4.17-4.74-8.92-7.08-11.53-5.34c-1.38,0.92-1.94,2.83-1.75,5.26c0.25,3.15,1.75,7.18,4.36,11.08c0.17,0.25,0.35,0.49,0.52,0.73
			c-3.91,0.31-8.07,0.52-12.37,0.64l-0.48,0.01c-0.38-0.49-0.76-0.97-1.12-1.48c-0.13-0.18-0.25-0.35-0.38-0.54
			c-0.11-0.16-0.22-0.31-0.33-0.47c-0.12-0.18-0.23-0.37-0.34-0.55c-0.28-0.43-0.55-0.86-0.81-1.29c-0.2-0.33-0.38-0.67-0.57-1
			c-0.22-0.4-0.45-0.8-0.65-1.2c-0.17-0.33-0.32-0.66-0.48-0.99c-0.19-0.39-0.38-0.78-0.55-1.18c-0.14-0.33-0.26-0.65-0.39-0.97
			c-0.15-0.37-0.31-0.75-0.44-1.12c-0.12-0.32-0.22-0.64-0.32-0.96c-0.09-0.27-0.17-0.53-0.26-0.8c-0.03-0.11-0.07-0.21-0.1-0.32
			c-0.09-0.32-0.17-0.64-0.25-0.96c-0.09-0.36-0.19-0.73-0.27-1.09c-0.07-0.32-0.12-0.63-0.18-0.95c-0.07-0.36-0.14-0.71-0.19-1.06
			c-0.05-0.32-0.07-0.63-0.1-0.94c-0.04-0.35-0.08-0.71-0.1-1.06c-0.02-0.32-0.01-0.62-0.02-0.93c-0.01-0.35-0.02-0.7-0.01-1.04
			c0.01-0.31,0.05-0.61,0.07-0.91c0.03-0.34,0.05-0.69,0.1-1.02c0.04-0.29,0.1-0.58,0.16-0.86c0.07-0.34,0.14-0.68,0.23-1
			c0.08-0.27,0.16-0.55,0.25-0.81c0.11-0.33,0.25-0.64,0.39-0.95c0.1-0.23,0.2-0.48,0.32-0.7c0.16-0.31,0.36-0.59,0.55-0.88
			c0.12-0.17,0.22-0.35,0.35-0.51c0.21-0.27,0.45-0.53,0.69-0.77c0.41-0.42,0.85-0.82,1.35-1.15c6.53-4.36,17.82,1.09,25.22,12.18
			c1.19,1.78,2.2,3.59,3.04,5.4v0c0.08,0.17,0.14,0.33,0.22,0.5c0.49,1.1,0.92,2.2,1.28,3.29c0.3,0.91,0.57,1.81,0.78,2.7
			c0.29,1.24,0.47,2.44,0.59,3.61c0.01,0.1,0.02,0.21,0.03,0.31L152.36,111.19z M169.91,102.92c-0.07,0.14-0.15,0.29-0.25,0.41
			c-0.34,0.43-0.83,0.71-1.37,0.77l-1.71,0.21l-11.79,1.41h0c-0.46,0.06-0.9-0.05-1.29-0.28c-0.08-0.05-0.16-0.09-0.23-0.15
			c-0.28-0.22-0.48-0.51-0.62-0.83c-0.07-0.17-0.13-0.36-0.15-0.55l-0.33-2.71l-0.11-0.88l-0.03-0.28c-0.14-1.13,0.67-2.16,1.8-2.29
			l13.5-1.62c0.08-0.01,0.17-0.01,0.25-0.01c1.03,0,1.92,0.77,2.05,1.82l0.17,1.39l0.3,2.48
			C170.13,102.2,170.07,102.58,169.91,102.92z M178.44,109.32c-0.05,0.06-0.16,0.18-0.35,0.2l-4.29,0.51h0
			c-0.19,0.02-0.33-0.06-0.39-0.11c-0.06-0.05-0.18-0.17-0.2-0.35l-0.64-5.33l-0.12-0.97l-1.39-11.61
			c-0.03-0.29,0.17-0.56,0.46-0.59l4.29-0.51c0.02,0,0.04,0,0.07,0c0.16,0,0.27,0.07,0.33,0.11c0.06,0.05,0.18,0.16,0.2,0.35
			l1.56,13.01l0.02,0.15l0.57,4.75C178.57,109.12,178.49,109.26,178.44,109.32z M179.27,96.34c3.46,0.51,13.32,2.76,22.35,12.12
			c4.9,5.07,9.55,12.23,12.81,22.35c-3.37-7.55-9.44-16.43-14.57-22.16c-0.24-0.27-0.48-0.54-0.72-0.8
			c-6.02-6.49-17.08-10.31-19.83-11.18L179.27,96.34z M202.78,135.93c-3.99-10.66-12.1-28.34-22.29-29.48l-0.16-1.29
			c2.58,0.47,9.44,2.64,15.36,12.75c6,10.26,8.84,17.96,9.78,20.74C204.26,138.18,203.26,137.22,202.78,135.93z M207.73,138.94
			c-0.37,0.04-0.74,0.03-1.1-0.01c-0.7-2.18-3.53-10.36-10.06-21.53c-4.97-8.5-10.53-11.6-13.98-12.73
			c-0.82-0.27-1.53-0.43-2.07-0.52c-0.11-0.02-0.22-0.04-0.32-0.05l-0.16-1.37c1.05,0.25,2.79,0.76,4.86,1.74
			c0.45,0.21,0.92,0.45,1.39,0.71c3.28,1.79,7.11,4.76,10.29,9.61c6.7,10.23,11.11,20.49,12.27,24.02L207.73,138.94z M211.05,138.54
			l-1.17,0.14c-1.08-3.4-5.57-13.97-12.44-24.46c-2.64-4.03-5.68-6.79-8.52-8.69c-0.3-0.2-0.6-0.4-0.9-0.58
			c-3.56-2.19-6.68-3.02-8.1-3.31l-0.17-1.38c1.99,0.57,6.51,2.09,10.98,5.12c0.24,0.16,0.48,0.33,0.72,0.51
			c2.16,1.54,4.27,3.44,6.04,5.77c6.27,8.26,13.13,20.34,14.98,26.37l0.48-0.15C212.37,138.23,211.73,138.46,211.05,138.54z
			 M214.42,136.46c-0.28,0.43-0.65,0.79-1.05,1.1c-1.95-6.18-8.81-18.25-15.08-26.51c-0.55-0.72-1.12-1.4-1.73-2.04
			c-0.27-0.29-0.54-0.56-0.81-0.83c-0.77-0.76-1.57-1.45-2.38-2.09c-0.14-0.11-0.28-0.24-0.42-0.35
			c-5.41-4.16-11.33-6.02-13.34-6.56l-0.17-1.38c2.78,0.93,10.55,3.77,16.19,8.24c0.05,0.04,0.1,0.08,0.16,0.12
			c0.94,0.75,1.82,1.55,2.6,2.39c0.07,0.08,0.14,0.16,0.21,0.24c5.95,6.49,13.72,18.13,16.4,26.29
			C214.88,135.56,214.7,136.03,214.42,136.46z"/>
		<path d="M150.08,158.27c-0.06-1.02,0.7-4.46,1.59-6.18c0.89-1.72,4.08-3.57,9.94-5.1c5.86-1.53,13.26,1.08,14.41,2.04
			c1.15,0.96,2.1,0.66,2.1,0.66c0.07-0.02,1.55-1.47-0.76-2.57c-2.68-1.27-8.16-3.31-14.79-2.29c-6.63,1.02-10.96,4.46-12.24,6.76
			c-1.27,2.29-1.53,7.27-1.53,7.27C148.72,159.93,150.14,159.29,150.08,158.27z"/>
		<path d="M181.26,215.66c-2.81,1.48-6.14,0.23-7.22-1.1c-0.5-0.61-0.81-1.4-1-2.08c-0.05-0.25-0.12-0.55-0.21-0.9
			c-0.06-0.31-0.08-0.52-0.08-0.52c-0.01-0.02-0.03-0.03-0.04-0.04c-0.41-2.4,0.55-4.6,0.68-4.89c0.43-0.76,0.95-1.21,1.29-1.56
			c0.73-0.74,0.99-3.37-1.5-1.11c-0.68,0.61-1.07,1.43-1.29,2.29l-0.01,0c0,0-0.01,0.06-0.03,0.16c-0.09,0.38-0.14,0.76-0.18,1.13
			c-0.19,1.52-0.34,4.14,0.41,6.47l0.01,0c0.09,0.36,0.2,0.76,0.38,1.22c0.85,2.2,2.56,3.07,4.37,3.69c1.81,0.62,4.66-0.9,5.65-1.68
			c0.99-0.78,3.91-1.16,5.52-0.96c1.61,0.2,1.26-0.2,1.26-0.2s0.31-0.31-0.87-0.6C187.22,214.7,184.07,214.18,181.26,215.66z"/>
		<path d="M135.76,117.74c0.05,0.14,2.73,7.74,2.8,7.94c0.55,1.49,2.35,1,2.5,0.96c0,0,6.5-0.54,8.88-0.73
			c0.61-0.05,1.01-0.23,1.18-0.52c0.27-0.46-0.03-1.13-0.03-1.13c-0.1-0.21-2.38-5.15-3.08-7.44c-0.59-1.94-1.83-1.98-1.93-1.98
			c0,0,0,0,0,0c-0.06,0-6.38,0.26-8.7,0.57c-0.57,0.08-0.99,0.3-1.26,0.67C135.61,116.77,135.76,117.74,135.76,117.74
			C135.76,117.74,135.76,117.74,135.76,117.74z"/>
		<path d="M121.43,125.74c0.01,0.07,0.39,1.78,2.5,1.69l0,0c0,0,7.13-0.3,9.68-0.43c1.09-0.06,1.55-0.35,1.74-0.59
			c0.18-0.23,0.16-0.47,0.17-0.47c0,0,0,0,0,0c-0.07-0.17-1.69-4.28-2.66-7.39c-0.85-2.73-1.92-2.48-1.92-2.48l-0.11,0.02
			c-0.08,0-7.66,0.17-9.68,0.36c-0.42,0.04-0.7,0.18-0.87,0.44c-0.33,0.51-0.14,1.4-0.03,1.75L121.43,125.74z"/>
		<path d="M158.17,125.05l0.06-0.01c0.03,0,2.95-0.09,5.13-0.22c0.71-0.04,1.16-0.39,1.44-0.8c0.45-0.66,0.44-1.53,0.07-2.24
			c-1.09-2.09-3.8-7.29-4.32-8.42c-0.41-0.91-0.92-1.04-1.08-1.06c-0.03,0-0.06,0-0.09,0c-0.49,0.03-5.88,0.43-7.87,1.37
			c-0.65,0.3-1.04,0.68-1.15,1.07c-0.12,0.44,0.73,3.62,2.72,7.35C154.95,125.62,158.03,125.08,158.17,125.05z"/>
		<path d="M115.78,126.62L115.78,126.62c1.7-0.01,2.34-0.42,2.57-0.76c0.25-0.37,0.1-0.77,0.09-0.78l-0.98-7.55
			c-0.01-0.05-0.21-1.36-2.34-1.47c-1.78-0.09-6.25-0.18-8.61-0.23v10.79C108.95,126.67,115.71,126.62,115.78,126.62z"/>
		<path class="st20" d="M158.25,128.72c1.89,1.32,5.66,4.04,7.53,6.01c2.55,2.68,8.8,8.92,10.07,9.94
			c1.27,1.02,7.27,6.63,8.41,10.71c1.15,4.08,1.15,6.76,1.66,8.92c0.51,2.17,2.68,7.65,3.57,8.41c0,0,1.02,0.76,1.34-0.7
			c0.32-1.47-2.49-5.93-2.93-9.37c-0.45-3.44-1.15-8.48-3.12-10.71c-1.98-2.23-10.79-11.86-10.79-11.86l-12.84-11.5L158.25,128.72z"
			/>
		<path class="st9" d="M131.68,129.8l-1.57,0.05c1.47,2.81,4.29,11.13,5.5,17.17c0,0.01,0,0.01,0,0.02
			c0.09,0.74,1.54,12.33,1.41,19.31c-0.13,6.98-1.04,8.34-2.58,8.34c-0.7,0-1.87-0.07-3.5-0.21c-0.95-0.08-2.01-0.61-2.73-1.14
			l-0.9,1.16c0.98,0.79,2.18,1.3,3.51,1.41c1.67,0.14,2.89,0.21,3.63,0.21c3.23,0,3.91-3.43,4.02-9.76c0.07-3.71-0.3-8.7-0.68-12.7
			c0.59,0.7,1.21,1.07,1.77,1.27c0.41,0.14,0.82,0.2,1.22,0.2c1.1,0,2.13-0.47,2.74-1.04c1.34-1.24,0.6-5.99,0.22-7.97
			c-0.55-3.42-2.28-8.8-3.66-12.77c0.56,0.37,1.12,0.61,1.62,0.77c0.77,0.25,1.58,0.35,2.37,0.35c2.2,0,4.34-0.83,5.68-1.84
			c1.92-1.44,2.23-2.78,2.17-3.65l-1.49,0.06c-0.05,0.65-0.38,1.56-1.54,2.43c-1.59,1.19-4.42,2.01-6.75,1.27
			c-1.52-0.48-2.65-1.58-3.37-3.23l-1.59,0.06c1.03,2.76,4.36,11.94,5.13,16.79c0.6,3.12,0.7,6.22,0.22,6.67
			c-0.42,0.39-1.48,0.89-2.5,0.53c-1.32-0.46-2.24-2.17-2.67-4.95C136.46,142.71,133.46,133.6,131.68,129.8"/>
		<path class="st9" d="M125.77,151.66c-0.65-9.1-2.2-17.94-4.84-21.46l-1.96,0.07c2.57,1.83,4.4,9.19,5.29,20.61
			C124.26,150.88,125.44,151.47,125.77,151.66z"/>
		<path class="st9" d="M112.99,150.63c-3.21-0.59-5.42-2.56-6.38-4.47c-0.03-0.06-0.06-0.13-0.09-0.19v2.56
			c1.1,1.24,2.54,2.42,4.48,3.09L112.99,150.63z"/>
		<path d="M158.25,128.72c1.89,1.32,5.66,4.04,7.53,6.01c2.55,2.68,8.8,8.92,10.07,9.94c1.27,1.02,7.27,6.63,8.41,10.71
			c1.15,4.08,1.15,6.76,1.66,8.92c0.51,2.17,2.68,7.65,3.57,8.41c0,0,1.02,0.76,1.34-0.7c0.32-1.47-2.49-5.93-2.93-9.37
			c-0.45-3.44-1.15-8.48-3.12-10.71c-1.98-2.23-10.79-11.86-10.79-11.86l-12.84-11.5"/>
		<path d="M176.91,174.61c-2.95-0.9-7.02-1.65-11.47-1.69c-3.17-0.03-6.68,0-9.23,0.45c0.79,3.03,4.92,6.3,9.64,6.85
			c5.5,0.64,10.4-1.64,10.97-5.24L176.91,174.61z"/>
		<path d="M169.71,184.73c-6.91-0.46-13.01,0-16.49,1.07c2.16-1.69,8.08-2.62,14.97-2.16c4.93,0.33,9.27,1.3,12.05,2.55
			C177.23,185.51,173.61,184.99,169.71,184.73z"/>
		
			<ellipse transform="matrix(0.0843 -0.9964 0.9964 0.0843 -21.8786 326.1319)" class="st2" cx="166.51" cy="174.97" rx="3.25" ry="6.23"/>
		<ellipse transform="matrix(0.0843 -0.9964 0.9964 0.0843 -20.7332 325.69)" cx="166.84" cy="174.13" rx="2.59" ry="4.82"/>
		<path d="M176.74,174.76c-2.96-0.77-6.97-1.31-11.4-1.47c-3.16-0.11-6.12,0-8.65,0.27c-2.49,0.27-4.57,0.7-6,1.25
			c0.42-1.5,2.7-2.7,6.06-3.39c2.94-0.61,6.71-0.84,10.8-0.54c3.13,0.23,6.03,0.74,8.49,1.42c4.71,1.31,7.79,3.29,7.65,5.28
			c-0.22,3.04-7.81,4.96-16.94,4.29c-2.79-0.2-5.4-0.63-7.67-1.2c1.86,0.23,3.88,0.4,6,0.47c9.21,0.32,16.74-1.19,16.82-3.36
			C181.93,176.67,179.94,175.58,176.74,174.76z"/>
	</g>
</g>
<text transform="matrix(1 0 0 1 499.3255 278.4269)" class="st2 st21 st22">MEMORIA</text>
<text transform="matrix(1 0 0 1 543.938 170.9081)" class="st2 st21 st23 st24">ACERVO INTERNETA</text>
<text transform="matrix(1 0 0 1 1041.5967 224.3788)" class="st2 st21 st25">DE LAS</text>
<text transform="matrix(1 0 0 1 1260.3074 277.1071)" class="st2 st21 st22">INVISIBLES</text>
<text transform="matrix(1 0 0 1 1054.2845 269.0204)" class="st2 st21 st25">Y LOS</text>
<g>
	<circle class="st2" cx="1024.12" cy="279.21" r="4.5"/>
	<circle class="st2" cx="1024.12" cy="279.21" r="4.5"/>
	<circle class="st2" cx="1024.12" cy="279.21" r="4.5"/>
	<g>
		<path class="st2" d="M1024.12,265.21c-7.73,0-14,6.27-14,14c0,7.73,6.27,14,14,14c7.73,0,14-6.27,14-14
			C1038.12,271.48,1031.85,265.21,1024.12,265.21z M1024.12,287.21c-4.41,0-8-3.59-8-8c0-4.41,3.59-8,8-8c4.41,0,8,3.59,8,8
			C1032.12,283.62,1028.53,287.21,1024.12,287.21z"/>
	</g>
	<circle class="st2" cx="1024.12" cy="279.21" r="4.5"/>
</g>
<path class="st1" d="M630.27,92.26c337.02,0,913.85,0,1045.29,0c2.84,0,5.43,0,7.77,0c13.17,0,16.54,7.12,17.05,10.68
	c0.93,6.51,1.87,13.03,2.8,19.54c1.88,13.09,3.76,26.19,5.63,39.28c0.04,0.73,0.09,1.79,0.49,2.96c1.16,3.44,4.62,10.89,12.84,10.89
	c10.68,0,14.58-8.21,14.63-12.9c50.89,0,134.02,0,184.91,0"/>
<g>
	<circle class="st2" cx="986.12" cy="202.21" r="4.5"/>
	<circle class="st2" cx="986.12" cy="202.21" r="4.5"/>
	<circle class="st2" cx="986.12" cy="202.21" r="4.5"/>
	<g>
		<path class="st2" d="M986.12,188.21c-7.73,0-14,6.27-14,14c0,7.73,6.27,14,14,14c7.73,0,14-6.27,14-14
			C1000.12,194.48,993.85,188.21,986.12,188.21z M986.12,210.21c-4.41,0-8-3.59-8-8c0-4.41,3.59-8,8-8c4.41,0,8,3.59,8,8
			C994.12,206.62,990.53,210.21,986.12,210.21z"/>
	</g>
	<circle class="st2" cx="986.12" cy="202.21" r="4.5"/>
</g>
<path class="st0" d="M1921.58,187.06l-687.51,0.48c0,0,10,0,4,0c-3,0-18-0.02-18,12.98l-10,78.74c0,1.01-0.17,2.01-0.49,2.96
	c-1.16,3.44-4.62,10.89-12.84,10.89c-10.68,0-14.58-8.21-14.63-12.9l-104.31,0.11"/>
<g>
	<circle class="st2" cx="1234.07" cy="202.11" r="4.5"/>
	<circle class="st2" cx="1234.07" cy="202.11" r="4.5"/>
	<circle class="st2" cx="1234.07" cy="202.11" r="4.5"/>
	<g>
		<path class="st2" d="M1220.07,202.11c0,7.73,6.27,14,14,14c7.73,0,14-6.27,14-14c0-7.73-6.27-14-14-14
			C1226.34,188.11,1220.07,194.37,1220.07,202.11z M1226.07,202.11c0-4.41,3.59-8,8-8s8,3.59,8,8c0,4.41-3.59,8-8,8
			S1226.07,206.52,1226.07,202.11z"/>
	</g>
	<circle class="st2" cx="1234.07" cy="202.11" r="4.5"/>
</g>
<g>
	<circle class="st2" cx="1722.77" cy="161.61" r="4.5"/>
	<circle class="st2" cx="1722.77" cy="161.61" r="4.5"/>
	<circle class="st2" cx="1722.77" cy="161.61" r="4.5"/>
	<g>
		<path class="st2" d="M1708.77,161.61c0,7.73,6.27,14,14,14c7.73,0,14-6.27,14-14c0-7.73-6.27-14-14-14
			C1715.04,147.61,1708.77,153.87,1708.77,161.61z M1714.77,161.61c0-4.41,3.59-8,8-8s8,3.59,8,8c0,4.41-3.59,8-8,8
			S1714.77,166.02,1714.77,161.61z"/>
	</g>
	<circle class="st2" cx="1722.77" cy="161.61" r="4.5"/>
</g>
<g>
	<circle class="st2" cx="1687.84" cy="106.04" r="4.5"/>
	<circle class="st2" cx="1687.84" cy="106.04" r="4.5"/>
	<circle class="st2" cx="1687.84" cy="106.04" r="4.5"/>
	<g>
		<path class="st2" d="M1673.84,106.04c0,7.73,6.27,14,14,14c7.73,0,14-6.27,14-14c0-7.73-6.27-14-14-14
			C1680.11,92.04,1673.84,98.31,1673.84,106.04z M1679.84,106.04c0-4.41,3.59-8,8-8s8,3.59,8,8c0,4.41-3.59,8-8,8
			C1683.43,114.04,1679.84,110.45,1679.84,106.04z"/>
	</g>
	<circle class="st2" cx="1687.84" cy="106.04" r="4.5"/>
</g>
<g>
	<circle class="st2" cx="494.84" cy="161.72" r="4.5"/>
	<circle class="st2" cx="494.84" cy="161.72" r="4.5"/>
	<circle class="st2" cx="494.84" cy="161.72" r="4.5"/>
	<g>
		<path class="st2" d="M494.84,147.72c-7.73,0-14,6.27-14,14c0,7.73,6.27,14,14,14c7.73,0,14-6.27,14-14
			C508.84,153.98,502.57,147.72,494.84,147.72z M494.84,169.72c-4.41,0-8-3.59-8-8c0-4.41,3.59-8,8-8c4.41,0,8,3.59,8,8
			C502.84,166.13,499.25,169.72,494.84,169.72z"/>
	</g>
	<circle class="st2" cx="494.84" cy="161.72" r="4.5"/>
</g>
<g>
	<circle class="st2" cx="529.77" cy="106.15" r="4.5"/>
	<circle class="st2" cx="529.77" cy="106.15" r="4.5"/>
	<circle class="st2" cx="529.77" cy="106.15" r="4.5"/>
	<g>
		<path class="st2" d="M529.77,92.15c-7.73,0-14,6.27-14,14c0,7.73,6.27,14,14,14c7.73,0,14-6.27,14-14
			C543.77,98.42,537.5,92.15,529.77,92.15z M529.77,114.15c-4.41,0-8-3.59-8-8c0-4.41,3.59-8,8-8c4.41,0,8,3.59,8,8
			C537.77,110.56,534.18,114.15,529.77,114.15z"/>
	</g>
	<circle class="st2" cx="529.77" cy="106.15" r="4.5"/>
</g>
<g>
	<circle class="st2" cx="1196.07" cy="279.11" r="4.5"/>
	<circle class="st2" cx="1196.07" cy="279.11" r="4.5"/>
	<circle class="st2" cx="1196.07" cy="279.11" r="4.5"/>
	<g>
		<path class="st2" d="M1182.07,279.11c0,7.73,6.27,14,14,14c7.73,0,14-6.27,14-14c0-7.73-6.27-14-14-14
			C1188.34,265.11,1182.07,271.37,1182.07,279.11z M1188.07,279.11c0-4.41,3.59-8,8-8s8,3.59,8,8c0,4.41-3.59,8-8,8
			S1188.07,283.52,1188.07,279.11z"/>
	</g>
	<circle class="st2" cx="1196.07" cy="279.11" r="4.5"/>
</g>
</svg>
